<?xml version="1.0" encoding="utf-8" standalone="no"?>
<!DOCTYPE svg PUBLIC "-//W3C//DTD SVG 1.1//EN"
  "http://www.w3.org/Graphics/SVG/1.1/DTD/svg11.dtd">
<!-- Created with matplotlib (https://matplotlib.org/) -->
<svg height="312.48pt" version="1.1" viewBox="0 0 502.927188 312.48" width="502.927188pt" xmlns="http://www.w3.org/2000/svg" xmlns:xlink="http://www.w3.org/1999/xlink">
 <metadata>
  <rdf:RDF xmlns:cc="http://creativecommons.org/ns#" xmlns:dc="http://purl.org/dc/elements/1.1/" xmlns:rdf="http://www.w3.org/1999/02/22-rdf-syntax-ns#">
   <cc:Work>
    <dc:type rdf:resource="http://purl.org/dc/dcmitype/StillImage"/>
    <dc:date>2021-06-17T20:16:06.956082</dc:date>
    <dc:format>image/svg+xml</dc:format>
    <dc:creator>
     <cc:Agent>
      <dc:title>Matplotlib v3.3.2, https://matplotlib.org/</dc:title>
     </cc:Agent>
    </dc:creator>
   </cc:Work>
  </rdf:RDF>
 </metadata>
 <defs>
  <style type="text/css">*{stroke-linecap:butt;stroke-linejoin:round;}</style>
 </defs>
 <g id="figure_1">
  <g id="patch_1">
   <path d="M 0 312.48 
L 502.927187 312.48 
L 502.927187 0 
L 0 0 
z
" style="fill:#ffffff;"/>
  </g>
  <g id="axes_1">
   <g id="patch_2">
    <path d="M 80.276094 256.451094 
L 422.651094 256.451094 
L 422.651094 29.41125 
L 80.276094 29.41125 
z
" style="fill:#ffffff;"/>
   </g>
   <g id="matplotlib.axis_1">
    <g id="xtick_1">
     <g id="line2d_1">
      <defs>
       <path d="M 0 0 
L 0 5 
" id="m3df75e7eb3" style="stroke:#000000;"/>
      </defs>
      <g>
       <use style="stroke:#000000;" x="147.713594" xlink:href="#m3df75e7eb3" y="256.451094"/>
      </g>
     </g>
     <g id="text_1">
      <!-- 100 -->
      <g transform="translate(133.533203 277.145938)scale(0.17 -0.17)">
       <defs>
        <path d="M 9.578125 49.515625 
L 9.578125 56.25 
Q 19.09375 57.171875 22.84375 59.34375 
Q 26.609375 61.53125 28.46875 69.625 
L 35.40625 69.625 
L 35.40625 0 
L 26.03125 0 
L 26.03125 49.515625 
z
" id="Helvetica-49"/>
        <path d="M 27.046875 69.921875 
Q 40.625 69.921875 46.6875 58.734375 
Q 51.375 50.09375 51.375 35.0625 
Q 51.375 20.796875 47.125 11.46875 
Q 40.96875 -1.90625 27 -1.90625 
Q 14.40625 -1.90625 8.25 9.03125 
Q 3.125 18.171875 3.125 33.546875 
Q 3.125 45.453125 6.203125 54 
Q 11.96875 69.921875 27.046875 69.921875 
z
M 26.953125 6.109375 
Q 33.796875 6.109375 37.84375 12.15625 
Q 41.890625 18.21875 41.890625 34.71875 
Q 41.890625 46.625 38.953125 54.3125 
Q 36.03125 62.015625 27.59375 62.015625 
Q 19.828125 62.015625 16.234375 54.703125 
Q 12.640625 47.40625 12.640625 33.203125 
Q 12.640625 22.515625 14.9375 16.015625 
Q 18.453125 6.109375 26.953125 6.109375 
z
" id="Helvetica-48"/>
       </defs>
       <use xlink:href="#Helvetica-49"/>
       <use x="55.615234" xlink:href="#Helvetica-48"/>
       <use x="111.230469" xlink:href="#Helvetica-48"/>
      </g>
     </g>
    </g>
    <g id="xtick_2">
     <g id="line2d_2">
      <g>
       <use style="stroke:#000000;" x="216.88026" xlink:href="#m3df75e7eb3" y="256.451094"/>
      </g>
     </g>
     <g id="text_2">
      <!-- 200 -->
      <g transform="translate(202.69987 277.145938)scale(0.17 -0.17)">
       <defs>
        <path d="M 3.125 0 
Q 3.609375 9.03125 6.859375 15.71875 
Q 10.109375 22.40625 19.53125 27.875 
L 28.90625 33.296875 
Q 35.203125 36.96875 37.75 39.546875 
Q 41.75 43.609375 41.75 48.828125 
Q 41.75 54.9375 38.078125 58.515625 
Q 34.421875 62.109375 28.328125 62.109375 
Q 19.28125 62.109375 15.828125 55.28125 
Q 13.96875 51.609375 13.765625 45.125 
L 4.828125 45.125 
Q 4.984375 54.25 8.203125 60.015625 
Q 13.921875 70.171875 28.375 70.171875 
Q 40.375 70.171875 45.921875 63.671875 
Q 51.46875 57.171875 51.46875 49.21875 
Q 51.46875 40.828125 45.5625 34.859375 
Q 42.140625 31.390625 33.296875 26.46875 
L 26.609375 22.75 
Q 21.828125 20.125 19.09375 17.71875 
Q 14.203125 13.484375 12.9375 8.296875 
L 51.125 8.296875 
L 51.125 0 
L 3.125 0 
z
" id="Helvetica-50"/>
       </defs>
       <use xlink:href="#Helvetica-50"/>
       <use x="55.615234" xlink:href="#Helvetica-48"/>
       <use x="111.230469" xlink:href="#Helvetica-48"/>
      </g>
     </g>
    </g>
    <g id="xtick_3">
     <g id="line2d_3">
      <g>
       <use style="stroke:#000000;" x="286.046927" xlink:href="#m3df75e7eb3" y="256.451094"/>
      </g>
     </g>
     <g id="text_3">
      <!-- 300 -->
      <g transform="translate(271.866536 277.145938)scale(0.17 -0.17)">
       <defs>
        <path d="M 25.984375 -1.90625 
Q 13.578125 -1.90625 7.984375 4.90625 
Q 2.390625 11.71875 2.390625 21.484375 
L 11.578125 21.484375 
Q 12.15625 14.703125 14.109375 11.625 
Q 17.53125 6.109375 26.46875 6.109375 
Q 33.40625 6.109375 37.59375 9.8125 
Q 41.796875 13.53125 41.796875 19.390625 
Q 41.796875 26.609375 37.375 29.484375 
Q 32.953125 32.375 25.09375 32.375 
Q 24.21875 32.375 23.3125 32.34375 
Q 22.40625 32.328125 21.484375 32.28125 
L 21.484375 40.046875 
Q 22.859375 39.890625 23.78125 39.84375 
Q 24.703125 39.796875 25.78125 39.796875 
Q 30.71875 39.796875 33.890625 41.359375 
Q 39.453125 44.09375 39.453125 51.125 
Q 39.453125 56.34375 35.734375 59.171875 
Q 32.03125 62.015625 27.09375 62.015625 
Q 18.3125 62.015625 14.9375 56.15625 
Q 13.09375 52.9375 12.84375 46.96875 
L 4.15625 46.96875 
Q 4.15625 54.78125 7.28125 60.25 
Q 12.640625 70.015625 26.171875 70.015625 
Q 36.859375 70.015625 42.71875 65.25 
Q 48.578125 60.5 48.578125 51.46875 
Q 48.578125 45.015625 45.125 41.015625 
Q 42.96875 38.53125 39.546875 37.109375 
Q 45.0625 35.59375 48.15625 31.265625 
Q 51.265625 26.953125 51.265625 20.703125 
Q 51.265625 10.6875 44.671875 4.390625 
Q 38.09375 -1.90625 25.984375 -1.90625 
z
" id="Helvetica-51"/>
       </defs>
       <use xlink:href="#Helvetica-51"/>
       <use x="55.615234" xlink:href="#Helvetica-48"/>
       <use x="111.230469" xlink:href="#Helvetica-48"/>
      </g>
     </g>
    </g>
    <g id="xtick_4">
     <g id="line2d_4">
      <g>
       <use style="stroke:#000000;" x="355.213594" xlink:href="#m3df75e7eb3" y="256.451094"/>
      </g>
     </g>
     <g id="text_4">
      <!-- 400 -->
      <g transform="translate(341.033203 277.145938)scale(0.17 -0.17)">
       <defs>
        <path d="M 33.0625 24.75 
L 33.0625 56.453125 
L 10.640625 24.75 
z
M 33.203125 0 
L 33.203125 17.09375 
L 2.546875 17.09375 
L 2.546875 25.6875 
L 34.578125 70.125 
L 42 70.125 
L 42 24.75 
L 52.296875 24.75 
L 52.296875 17.09375 
L 42 17.09375 
L 42 0 
z
" id="Helvetica-52"/>
       </defs>
       <use xlink:href="#Helvetica-52"/>
       <use x="55.615234" xlink:href="#Helvetica-48"/>
       <use x="111.230469" xlink:href="#Helvetica-48"/>
      </g>
     </g>
    </g>
    <g id="text_5">
     <!-- number of place cells -->
     <g transform="translate(147.529063 300.694375)scale(0.22 -0.22)">
      <defs>
       <path d="M 6.453125 52.296875 
L 14.796875 52.296875 
L 14.796875 44.875 
Q 18.5 49.46875 22.65625 51.46875 
Q 26.8125 53.46875 31.890625 53.46875 
Q 43.015625 53.46875 46.921875 45.703125 
Q 49.078125 41.453125 49.078125 33.546875 
L 49.078125 0 
L 40.140625 0 
L 40.140625 32.953125 
Q 40.140625 37.75 38.71875 40.671875 
Q 36.375 45.5625 30.21875 45.5625 
Q 27.09375 45.5625 25.09375 44.921875 
Q 21.484375 43.84375 18.75 40.625 
Q 16.546875 38.03125 15.890625 35.265625 
Q 15.234375 32.515625 15.234375 27.390625 
L 15.234375 0 
L 6.453125 0 
z
M 27.09375 53.5625 
z
" id="Helvetica-110"/>
       <path d="M 15.234375 52.296875 
L 15.234375 17.578125 
Q 15.234375 13.578125 16.5 11.03125 
Q 18.84375 6.34375 25.25 6.34375 
Q 34.421875 6.34375 37.75 14.546875 
Q 39.546875 18.953125 39.546875 26.609375 
L 39.546875 52.296875 
L 48.34375 52.296875 
L 48.34375 0 
L 40.046875 0 
L 40.140625 7.71875 
Q 38.421875 4.734375 35.890625 2.6875 
Q 30.859375 -1.421875 23.6875 -1.421875 
Q 12.5 -1.421875 8.453125 6.0625 
Q 6.25 10.0625 6.25 16.75 
L 6.25 52.296875 
z
M 27.296875 53.5625 
z
" id="Helvetica-117"/>
       <path d="M 6.453125 52.296875 
L 15.140625 52.296875 
L 15.140625 44.875 
Q 18.265625 48.734375 20.796875 50.484375 
Q 25.140625 53.46875 30.671875 53.46875 
Q 36.921875 53.46875 40.71875 50.390625 
Q 42.875 48.640625 44.625 45.21875 
Q 47.5625 49.421875 51.515625 51.4375 
Q 55.46875 53.46875 60.40625 53.46875 
Q 70.953125 53.46875 74.75 45.84375 
Q 76.8125 41.75 76.8125 34.8125 
L 76.8125 0 
L 67.671875 0 
L 67.671875 36.328125 
Q 67.671875 41.546875 65.0625 43.5 
Q 62.453125 45.453125 58.6875 45.453125 
Q 53.515625 45.453125 49.78125 41.984375 
Q 46.046875 38.53125 46.046875 30.421875 
L 46.046875 0 
L 37.109375 0 
L 37.109375 34.125 
Q 37.109375 39.453125 35.84375 41.890625 
Q 33.84375 45.5625 28.375 45.5625 
Q 23.390625 45.5625 19.3125 41.703125 
Q 15.234375 37.84375 15.234375 27.734375 
L 15.234375 0 
L 6.453125 0 
z
" id="Helvetica-109"/>
       <path d="M 5.765625 71.96875 
L 14.3125 71.96875 
L 14.3125 45.953125 
Q 17.1875 49.703125 21.1875 51.671875 
Q 25.203125 53.65625 29.890625 53.65625 
Q 39.65625 53.65625 45.734375 46.9375 
Q 51.8125 40.234375 51.8125 27.15625 
Q 51.8125 14.75 45.796875 6.546875 
Q 39.796875 -1.65625 29.15625 -1.65625 
Q 23.1875 -1.65625 19.09375 1.21875 
Q 16.65625 2.9375 13.875 6.6875 
L 13.875 0 
L 5.765625 0 
z
M 28.609375 6.109375 
Q 35.75 6.109375 39.28125 11.765625 
Q 42.828125 17.4375 42.828125 26.703125 
Q 42.828125 34.96875 39.28125 40.375 
Q 35.75 45.796875 28.859375 45.796875 
Q 22.859375 45.796875 18.328125 41.359375 
Q 13.8125 36.921875 13.8125 26.703125 
Q 13.8125 19.34375 15.671875 14.75 
Q 19.140625 6.109375 28.609375 6.109375 
z
" id="Helvetica-98"/>
       <path d="M 28.21875 53.46875 
Q 33.796875 53.46875 39.015625 50.859375 
Q 44.234375 48.25 46.96875 44.09375 
Q 49.609375 40.140625 50.484375 34.859375 
Q 51.265625 31.25 51.265625 23.34375 
L 12.9375 23.34375 
Q 13.1875 15.375 16.703125 10.5625 
Q 20.21875 5.765625 27.59375 5.765625 
Q 34.46875 5.765625 38.578125 10.296875 
Q 40.921875 12.9375 41.890625 16.40625 
L 50.53125 16.40625 
Q 50.203125 13.53125 48.265625 9.984375 
Q 46.34375 6.453125 43.953125 4.203125 
Q 39.9375 0.296875 34.03125 -1.078125 
Q 30.859375 -1.859375 26.859375 -1.859375 
Q 17.09375 -1.859375 10.296875 5.25 
Q 3.515625 12.359375 3.515625 25.140625 
Q 3.515625 37.75 10.34375 45.609375 
Q 17.1875 53.46875 28.21875 53.46875 
z
M 42.234375 30.328125 
Q 41.703125 36.03125 39.75 39.453125 
Q 36.140625 45.796875 27.6875 45.796875 
Q 21.625 45.796875 17.515625 41.421875 
Q 13.421875 37.0625 13.1875 30.328125 
z
M 27.390625 53.5625 
z
" id="Helvetica-101"/>
       <path d="M 6.6875 52.296875 
L 15.046875 52.296875 
L 15.046875 43.265625 
Q 16.0625 45.90625 20.0625 49.6875 
Q 24.078125 53.46875 29.296875 53.46875 
Q 29.546875 53.46875 30.125 53.421875 
Q 30.71875 53.375 32.125 53.21875 
L 32.125 43.953125 
Q 31.34375 44.09375 30.6875 44.140625 
Q 30.03125 44.1875 29.25 44.1875 
Q 22.609375 44.1875 19.046875 39.90625 
Q 15.484375 35.640625 15.484375 30.078125 
L 15.484375 0 
L 6.6875 0 
z
" id="Helvetica-114"/>
       <path id="Helvetica-32"/>
       <path d="M 27.203125 5.671875 
Q 35.9375 5.671875 39.1875 12.28125 
Q 42.4375 18.890625 42.4375 27 
Q 42.4375 34.328125 40.09375 38.921875 
Q 36.375 46.140625 27.296875 46.140625 
Q 19.234375 46.140625 15.578125 39.984375 
Q 11.921875 33.84375 11.921875 25.140625 
Q 11.921875 16.796875 15.578125 11.234375 
Q 19.234375 5.671875 27.203125 5.671875 
z
M 27.546875 53.8125 
Q 37.640625 53.8125 44.625 47.0625 
Q 51.609375 40.328125 51.609375 27.25 
Q 51.609375 14.59375 45.453125 6.34375 
Q 39.3125 -1.90625 26.375 -1.90625 
Q 15.578125 -1.90625 9.21875 5.390625 
Q 2.875 12.703125 2.875 25 
Q 2.875 38.1875 9.5625 46 
Q 16.265625 53.8125 27.546875 53.8125 
z
M 27.25 53.5625 
z
" id="Helvetica-111"/>
       <path d="M 8.640625 60.25 
Q 8.84375 65.71875 10.546875 68.265625 
Q 13.625 72.75 22.40625 72.75 
Q 23.25 72.75 24.125 72.703125 
Q 25 72.65625 26.125 72.5625 
L 26.125 64.546875 
Q 24.75 64.65625 24.140625 64.671875 
Q 23.53125 64.703125 23 64.703125 
Q 19 64.703125 18.21875 62.625 
Q 17.4375 60.546875 17.4375 52.046875 
L 26.125 52.046875 
L 26.125 45.125 
L 17.328125 45.125 
L 17.328125 0 
L 8.640625 0 
L 8.640625 45.125 
L 1.375 45.125 
L 1.375 52.046875 
L 8.640625 52.046875 
L 8.640625 60.25 
z
" id="Helvetica-102"/>
       <path d="M 28.515625 5.90625 
Q 34.671875 5.90625 38.75 11.0625 
Q 42.828125 16.21875 42.828125 26.46875 
Q 42.828125 32.71875 41.015625 37.203125 
Q 37.59375 45.84375 28.515625 45.84375 
Q 19.390625 45.84375 16.015625 36.71875 
Q 14.203125 31.84375 14.203125 24.3125 
Q 14.203125 18.265625 16.015625 14.015625 
Q 19.4375 5.90625 28.515625 5.90625 
z
M 5.765625 52.046875 
L 14.3125 52.046875 
L 14.3125 45.125 
Q 16.9375 48.6875 20.0625 50.640625 
Q 24.515625 53.5625 30.515625 53.5625 
Q 39.40625 53.5625 45.609375 46.75 
Q 51.8125 39.9375 51.8125 27.296875 
Q 51.8125 10.203125 42.875 2.875 
Q 37.203125 -1.765625 29.6875 -1.765625 
Q 23.78125 -1.765625 19.78125 0.828125 
Q 17.4375 2.296875 14.546875 5.859375 
L 14.546875 -20.84375 
L 5.765625 -20.84375 
z
" id="Helvetica-112"/>
       <path d="M 6.6875 71.734375 
L 15.484375 71.734375 
L 15.484375 0 
L 6.6875 0 
z
" id="Helvetica-108"/>
       <path d="M 13.1875 13.921875 
Q 13.1875 10.109375 15.96875 7.90625 
Q 18.75 5.71875 22.5625 5.71875 
Q 27.203125 5.71875 31.546875 7.859375 
Q 38.875 11.421875 38.875 19.53125 
L 38.875 26.609375 
Q 37.25 25.59375 34.703125 24.90625 
Q 32.171875 24.21875 29.734375 23.921875 
L 24.421875 23.25 
Q 19.625 22.609375 17.234375 21.234375 
Q 13.1875 18.953125 13.1875 13.921875 
z
M 34.46875 31.6875 
Q 37.5 32.078125 38.53125 34.234375 
Q 39.109375 35.40625 39.109375 37.59375 
Q 39.109375 42.09375 35.90625 44.109375 
Q 32.71875 46.140625 26.765625 46.140625 
Q 19.875 46.140625 17 42.4375 
Q 15.375 40.375 14.890625 36.328125 
L 6.6875 36.328125 
Q 6.9375 46 12.96875 49.78125 
Q 19 53.5625 26.953125 53.5625 
Q 36.1875 53.5625 41.9375 50.046875 
Q 47.65625 46.53125 47.65625 39.109375 
L 47.65625 8.984375 
Q 47.65625 7.625 48.21875 6.78125 
Q 48.78125 5.953125 50.59375 5.953125 
Q 51.171875 5.953125 51.90625 6.03125 
Q 52.640625 6.109375 53.46875 6.25 
L 53.46875 -0.25 
Q 51.421875 -0.828125 50.34375 -0.96875 
Q 49.265625 -1.125 47.40625 -1.125 
Q 42.875 -1.125 40.828125 2.09375 
Q 39.75 3.8125 39.3125 6.9375 
Q 36.625 3.421875 31.59375 0.828125 
Q 26.5625 -1.765625 20.515625 -1.765625 
Q 13.234375 -1.765625 8.609375 2.65625 
Q 4 7.078125 4 13.71875 
Q 4 21 8.546875 25 
Q 13.09375 29 20.453125 29.9375 
z
M 27.203125 53.5625 
z
" id="Helvetica-97"/>
       <path d="M 26.609375 53.8125 
Q 35.453125 53.8125 40.984375 49.515625 
Q 46.53125 45.21875 47.65625 34.71875 
L 39.109375 34.71875 
Q 38.328125 39.546875 35.546875 42.75 
Q 32.765625 45.953125 26.609375 45.953125 
Q 18.21875 45.953125 14.59375 37.75 
Q 12.25 32.421875 12.25 24.609375 
Q 12.25 16.75 15.5625 11.375 
Q 18.890625 6 26.03125 6 
Q 31.5 6 34.6875 9.34375 
Q 37.890625 12.703125 39.109375 18.5 
L 47.65625 18.5 
Q 46.1875 8.109375 40.328125 3.296875 
Q 34.46875 -1.515625 25.34375 -1.515625 
Q 15.09375 -1.515625 8.984375 5.984375 
Q 2.875 13.484375 2.875 24.703125 
Q 2.875 38.484375 9.5625 46.140625 
Q 16.265625 53.8125 26.609375 53.8125 
z
M 25.25 53.5625 
z
" id="Helvetica-99"/>
       <path d="M 11.671875 16.40625 
Q 12.0625 12.015625 13.875 9.671875 
Q 17.1875 5.421875 25.390625 5.421875 
Q 30.28125 5.421875 33.984375 7.546875 
Q 37.703125 9.671875 37.703125 14.109375 
Q 37.703125 17.484375 34.71875 19.234375 
Q 32.8125 20.3125 27.203125 21.734375 
L 20.21875 23.484375 
Q 13.53125 25.140625 10.359375 27.203125 
Q 4.6875 30.765625 4.6875 37.0625 
Q 4.6875 44.484375 10.03125 49.0625 
Q 15.375 53.65625 24.421875 53.65625 
Q 36.234375 53.65625 41.453125 46.734375 
Q 44.734375 42.328125 44.625 37.25 
L 36.328125 37.25 
Q 36.078125 40.234375 34.234375 42.671875 
Q 31.203125 46.140625 23.734375 46.140625 
Q 18.75 46.140625 16.1875 44.234375 
Q 13.625 42.328125 13.625 39.203125 
Q 13.625 35.796875 17 33.734375 
Q 18.953125 32.515625 22.75 31.59375 
L 28.5625 30.171875 
Q 38.03125 27.875 41.265625 25.734375 
Q 46.390625 22.359375 46.390625 15.140625 
Q 46.390625 8.15625 41.09375 3.078125 
Q 35.796875 -2 24.953125 -2 
Q 13.28125 -2 8.421875 3.296875 
Q 3.5625 8.59375 3.21875 16.40625 
z
M 24.65625 53.5625 
z
" id="Helvetica-115"/>
      </defs>
      <use xlink:href="#Helvetica-110"/>
      <use x="55.615234" xlink:href="#Helvetica-117"/>
      <use x="111.230469" xlink:href="#Helvetica-109"/>
      <use x="194.53125" xlink:href="#Helvetica-98"/>
      <use x="250.146484" xlink:href="#Helvetica-101"/>
      <use x="305.761719" xlink:href="#Helvetica-114"/>
      <use x="339.0625" xlink:href="#Helvetica-32"/>
      <use x="366.845703" xlink:href="#Helvetica-111"/>
      <use x="422.460938" xlink:href="#Helvetica-102"/>
      <use x="450.244141" xlink:href="#Helvetica-32"/>
      <use x="478.027344" xlink:href="#Helvetica-112"/>
      <use x="533.642578" xlink:href="#Helvetica-108"/>
      <use x="555.859375" xlink:href="#Helvetica-97"/>
      <use x="611.474609" xlink:href="#Helvetica-99"/>
      <use x="661.474609" xlink:href="#Helvetica-101"/>
      <use x="717.089844" xlink:href="#Helvetica-32"/>
      <use x="744.873047" xlink:href="#Helvetica-99"/>
      <use x="794.873047" xlink:href="#Helvetica-101"/>
      <use x="850.488281" xlink:href="#Helvetica-108"/>
      <use x="872.705078" xlink:href="#Helvetica-108"/>
      <use x="894.921875" xlink:href="#Helvetica-115"/>
     </g>
    </g>
   </g>
   <g id="matplotlib.axis_2">
    <g id="ytick_1">
     <g id="line2d_5">
      <defs>
       <path d="M 0 0 
L -5 0 
" id="m938cc88f59" style="stroke:#000000;"/>
      </defs>
      <g>
       <use style="stroke:#000000;" x="80.276094" xlink:href="#m938cc88f59" y="246.521815"/>
      </g>
     </g>
     <g id="text_6">
      <!-- 0 -->
      <g transform="translate(62.3225 252.619237)scale(0.17 -0.17)">
       <use xlink:href="#Helvetica-48"/>
      </g>
     </g>
    </g>
    <g id="ytick_2">
     <g id="line2d_6">
      <g>
       <use style="stroke:#000000;" x="80.276094" xlink:href="#m938cc88f59" y="195.411936"/>
      </g>
     </g>
     <g id="text_7">
      <!-- 500 -->
      <g transform="translate(43.415313 201.509357)scale(0.17 -0.17)">
       <defs>
        <path d="M 12.359375 17.828125 
Q 13.234375 10.296875 19.34375 7.421875 
Q 22.46875 5.953125 26.5625 5.953125 
Q 34.375 5.953125 38.125 10.9375 
Q 41.890625 15.921875 41.890625 21.96875 
Q 41.890625 29.296875 37.421875 33.296875 
Q 32.953125 37.3125 26.703125 37.3125 
Q 22.171875 37.3125 18.921875 35.546875 
Q 15.671875 33.796875 13.375 30.671875 
L 5.765625 31.109375 
L 11.078125 68.75 
L 47.40625 68.75 
L 47.40625 60.25 
L 17.671875 60.25 
L 14.703125 40.828125 
Q 17.140625 42.671875 19.34375 43.609375 
Q 23.25 45.21875 28.375 45.21875 
Q 37.984375 45.21875 44.671875 39.015625 
Q 51.375 32.8125 51.375 23.296875 
Q 51.375 13.375 45.234375 5.796875 
Q 39.109375 -1.765625 25.6875 -1.765625 
Q 17.140625 -1.765625 10.5625 3.046875 
Q 4 7.859375 3.21875 17.828125 
z
" id="Helvetica-53"/>
       </defs>
       <use xlink:href="#Helvetica-53"/>
       <use x="55.615234" xlink:href="#Helvetica-48"/>
       <use x="111.230469" xlink:href="#Helvetica-48"/>
      </g>
     </g>
    </g>
    <g id="ytick_3">
     <g id="line2d_7">
      <g>
       <use style="stroke:#000000;" x="80.276094" xlink:href="#m938cc88f59" y="144.302056"/>
      </g>
     </g>
     <g id="text_8">
      <!-- 1000 -->
      <g transform="translate(33.961719 150.399478)scale(0.17 -0.17)">
       <use xlink:href="#Helvetica-49"/>
       <use x="55.615234" xlink:href="#Helvetica-48"/>
       <use x="111.230469" xlink:href="#Helvetica-48"/>
       <use x="166.845703" xlink:href="#Helvetica-48"/>
      </g>
     </g>
    </g>
    <g id="ytick_4">
     <g id="line2d_8">
      <g>
       <use style="stroke:#000000;" x="80.276094" xlink:href="#m938cc88f59" y="93.192177"/>
      </g>
     </g>
     <g id="text_9">
      <!-- 1500 -->
      <g transform="translate(33.961719 99.289599)scale(0.17 -0.17)">
       <use xlink:href="#Helvetica-49"/>
       <use x="55.615234" xlink:href="#Helvetica-53"/>
       <use x="111.230469" xlink:href="#Helvetica-48"/>
       <use x="166.845703" xlink:href="#Helvetica-48"/>
      </g>
     </g>
    </g>
    <g id="ytick_5">
     <g id="line2d_9">
      <g>
       <use style="stroke:#000000;" x="80.276094" xlink:href="#m938cc88f59" y="42.082297"/>
      </g>
     </g>
     <g id="text_10">
      <!-- 2000 -->
      <g transform="translate(33.961719 48.179719)scale(0.17 -0.17)">
       <use xlink:href="#Helvetica-50"/>
       <use x="55.615234" xlink:href="#Helvetica-48"/>
       <use x="111.230469" xlink:href="#Helvetica-48"/>
       <use x="166.845703" xlink:href="#Helvetica-48"/>
      </g>
     </g>
    </g>
    <g id="text_11">
     <!-- number of patterns -->
     <g transform="translate(25.376094 235.252109)rotate(-90)scale(0.22 -0.22)">
      <defs>
       <path d="M 8.203125 66.890625 
L 17.09375 66.890625 
L 17.09375 52.296875 
L 25.4375 52.296875 
L 25.4375 45.125 
L 17.09375 45.125 
L 17.09375 10.984375 
Q 17.09375 8.25 18.953125 7.328125 
Q 19.96875 6.78125 22.359375 6.78125 
Q 23 6.78125 23.734375 6.8125 
Q 24.46875 6.84375 25.4375 6.9375 
L 25.4375 0 
Q 23.921875 -0.4375 22.28125 -0.625 
Q 20.65625 -0.828125 18.75 -0.828125 
Q 12.59375 -0.828125 10.390625 2.3125 
Q 8.203125 5.46875 8.203125 10.5 
L 8.203125 45.125 
L 1.125 45.125 
L 1.125 52.296875 
L 8.203125 52.296875 
z
" id="Helvetica-116"/>
      </defs>
      <use xlink:href="#Helvetica-110"/>
      <use x="55.615234" xlink:href="#Helvetica-117"/>
      <use x="111.230469" xlink:href="#Helvetica-109"/>
      <use x="194.53125" xlink:href="#Helvetica-98"/>
      <use x="250.146484" xlink:href="#Helvetica-101"/>
      <use x="305.761719" xlink:href="#Helvetica-114"/>
      <use x="339.0625" xlink:href="#Helvetica-32"/>
      <use x="366.845703" xlink:href="#Helvetica-111"/>
      <use x="422.460938" xlink:href="#Helvetica-102"/>
      <use x="450.244141" xlink:href="#Helvetica-32"/>
      <use x="478.027344" xlink:href="#Helvetica-112"/>
      <use x="533.642578" xlink:href="#Helvetica-97"/>
      <use x="589.257812" xlink:href="#Helvetica-116"/>
      <use x="617.041016" xlink:href="#Helvetica-116"/>
      <use x="644.824219" xlink:href="#Helvetica-101"/>
      <use x="700.439453" xlink:href="#Helvetica-114"/>
      <use x="733.740234" xlink:href="#Helvetica-110"/>
      <use x="789.355469" xlink:href="#Helvetica-115"/>
     </g>
    </g>
   </g>
   <g id="LineCollection_1">
    <path clip-path="url(#p976aea6d59)" d="M 95.838594 246.131101 
L 95.838594 246.094771 
" style="fill:none;stroke:#000000;"/>
    <path clip-path="url(#p976aea6d59)" d="M 113.13026 245.830377 
L 113.13026 245.751511 
" style="fill:none;stroke:#000000;"/>
    <path clip-path="url(#p976aea6d59)" d="M 130.421927 245.405749 
L 130.421927 245.245939 
" style="fill:none;stroke:#000000;"/>
    <path clip-path="url(#p976aea6d59)" d="M 147.713594 245.319315 
L 147.713594 245.199487 
" style="fill:none;stroke:#000000;"/>
    <path clip-path="url(#p976aea6d59)" d="M 165.00526 244.953627 
L 165.00526 244.767861 
" style="fill:none;stroke:#000000;"/>
    <path clip-path="url(#p976aea6d59)" d="M 182.296927 244.77189 
L 182.296927 244.49983 
" style="fill:none;stroke:#000000;"/>
    <path clip-path="url(#p976aea6d59)" d="M 199.588594 244.520529 
L 199.588594 244.270759 
" style="fill:none;stroke:#000000;"/>
    <path clip-path="url(#p976aea6d59)" d="M 216.88026 243.862481 
L 216.88026 243.456843 
" style="fill:none;stroke:#000000;"/>
    <path clip-path="url(#p976aea6d59)" d="M 234.171927 243.682747 
L 234.171927 243.309473 
" style="fill:none;stroke:#000000;"/>
    <path clip-path="url(#p976aea6d59)" d="M 251.463594 243.561185 
L 251.463594 242.47017 
" style="fill:none;stroke:#000000;"/>
    <path clip-path="url(#p976aea6d59)" d="M 268.75526 242.46075 
L 268.75526 241.27066 
" style="fill:none;stroke:#000000;"/>
    <path clip-path="url(#p976aea6d59)" d="M 286.046927 239.850593 
L 286.046927 236.70499 
" style="fill:none;stroke:#000000;"/>
    <path clip-path="url(#p976aea6d59)" d="M 303.338594 176.777302 
L 303.338594 147.716167 
" style="fill:none;stroke:#000000;"/>
    <path clip-path="url(#p976aea6d59)" d="M 320.63026 59.253067 
L 320.63026 50.711795 
" style="fill:none;stroke:#000000;"/>
    <path clip-path="url(#p976aea6d59)" d="M 337.921927 41.12018 
L 337.921927 40.550253 
" style="fill:none;stroke:#000000;"/>
    <path clip-path="url(#p976aea6d59)" d="M 355.213594 39.991558 
L 355.213594 39.900251 
" style="fill:none;stroke:#000000;"/>
    <path clip-path="url(#p976aea6d59)" d="M 372.50526 39.826365 
L 372.50526 39.779229 
" style="fill:none;stroke:#000000;"/>
    <path clip-path="url(#p976aea6d59)" d="M 389.796927 39.7485 
L 389.796927 39.73443 
" style="fill:none;stroke:#000000;"/>
    <path clip-path="url(#p976aea6d59)" d="M 407.088594 39.741465 
L 407.088594 39.731243 
" style="fill:none;stroke:#000000;"/>
   </g>
   <g id="line2d_10">
    <path clip-path="url(#p976aea6d59)" d="M 95.838594 246.112936 
L 113.13026 245.790944 
L 130.421927 245.325844 
L 147.713594 245.259401 
L 165.00526 244.860744 
L 182.296927 244.63586 
L 199.588594 244.395644 
L 216.88026 243.659662 
L 234.171927 243.49611 
L 251.463594 243.015677 
L 268.75526 241.865705 
L 286.046927 238.277791 
L 303.338594 162.246735 
L 320.63026 54.982431 
L 337.921927 40.835216 
L 355.213594 39.945904 
L 372.50526 39.802797 
L 389.796927 39.741465 
L 407.088594 39.736354 
" style="fill:none;stroke:#000000;stroke-dasharray:3.7,1.6;stroke-dashoffset:0;"/>
    <defs>
     <path d="M 0 3 
C 0.795609 3 1.55874 2.683901 2.12132 2.12132 
C 2.683901 1.55874 3 0.795609 3 0 
C 3 -0.795609 2.683901 -1.55874 2.12132 -2.12132 
C 1.55874 -2.683901 0.795609 -3 0 -3 
C -0.795609 -3 -1.55874 -2.683901 -2.12132 -2.12132 
C -2.683901 -1.55874 -3 -0.795609 -3 0 
C -3 0.795609 -2.683901 1.55874 -2.12132 2.12132 
C -1.55874 2.683901 -0.795609 3 0 3 
z
" id="m8eba2d1c03" style="stroke:#000000;stroke-width:2;"/>
    </defs>
    <g clip-path="url(#p976aea6d59)">
     <use style="stroke:#000000;stroke-width:2;" x="95.838594" xlink:href="#m8eba2d1c03" y="246.112936"/>
     <use style="stroke:#000000;stroke-width:2;" x="113.13026" xlink:href="#m8eba2d1c03" y="245.790944"/>
     <use style="stroke:#000000;stroke-width:2;" x="130.421927" xlink:href="#m8eba2d1c03" y="245.325844"/>
     <use style="stroke:#000000;stroke-width:2;" x="147.713594" xlink:href="#m8eba2d1c03" y="245.259401"/>
     <use style="stroke:#000000;stroke-width:2;" x="165.00526" xlink:href="#m8eba2d1c03" y="244.860744"/>
     <use style="stroke:#000000;stroke-width:2;" x="182.296927" xlink:href="#m8eba2d1c03" y="244.63586"/>
     <use style="stroke:#000000;stroke-width:2;" x="199.588594" xlink:href="#m8eba2d1c03" y="244.395644"/>
     <use style="stroke:#000000;stroke-width:2;" x="216.88026" xlink:href="#m8eba2d1c03" y="243.659662"/>
     <use style="stroke:#000000;stroke-width:2;" x="234.171927" xlink:href="#m8eba2d1c03" y="243.49611"/>
     <use style="stroke:#000000;stroke-width:2;" x="251.463594" xlink:href="#m8eba2d1c03" y="243.015677"/>
     <use style="stroke:#000000;stroke-width:2;" x="268.75526" xlink:href="#m8eba2d1c03" y="241.865705"/>
     <use style="stroke:#000000;stroke-width:2;" x="286.046927" xlink:href="#m8eba2d1c03" y="238.277791"/>
     <use style="stroke:#000000;stroke-width:2;" x="303.338594" xlink:href="#m8eba2d1c03" y="162.246735"/>
     <use style="stroke:#000000;stroke-width:2;" x="320.63026" xlink:href="#m8eba2d1c03" y="54.982431"/>
     <use style="stroke:#000000;stroke-width:2;" x="337.921927" xlink:href="#m8eba2d1c03" y="40.835216"/>
     <use style="stroke:#000000;stroke-width:2;" x="355.213594" xlink:href="#m8eba2d1c03" y="39.945904"/>
     <use style="stroke:#000000;stroke-width:2;" x="372.50526" xlink:href="#m8eba2d1c03" y="39.802797"/>
     <use style="stroke:#000000;stroke-width:2;" x="389.796927" xlink:href="#m8eba2d1c03" y="39.741465"/>
     <use style="stroke:#000000;stroke-width:2;" x="407.088594" xlink:href="#m8eba2d1c03" y="39.736354"/>
    </g>
   </g>
   <g id="patch_3">
    <path d="M 80.276094 256.451094 
L 80.276094 29.41125 
" style="fill:none;stroke:#000000;stroke-linecap:square;stroke-linejoin:miter;stroke-width:0.8;"/>
   </g>
   <g id="patch_4">
    <path d="M 422.651094 256.451094 
L 422.651094 29.41125 
" style="fill:none;stroke:#000000;stroke-linecap:square;stroke-linejoin:miter;stroke-width:0.8;"/>
   </g>
   <g id="patch_5">
    <path d="M 80.276094 256.451094 
L 422.651094 256.451094 
" style="fill:none;stroke:#000000;stroke-linecap:square;stroke-linejoin:miter;stroke-width:0.8;"/>
   </g>
   <g id="patch_6">
    <path d="M 80.276094 29.41125 
L 422.651094 29.41125 
" style="fill:none;stroke:#000000;stroke-linecap:square;stroke-linejoin:miter;stroke-width:0.8;"/>
   </g>
   <g id="text_12">
    <!-- Grid cells=24; Grid periods=[7, 8, 9]; thresh=0.001 -->
    <g transform="translate(7.2 23.41125)scale(0.22 -0.22)">
     <defs>
      <path d="M 38.625 73.578125 
Q 48.734375 73.578125 56.109375 69.671875 
Q 66.796875 64.0625 69.1875 50 
L 59.578125 50 
Q 57.8125 57.859375 52.296875 61.453125 
Q 46.78125 65.046875 38.375 65.046875 
Q 28.421875 65.046875 21.609375 57.5625 
Q 14.796875 50.09375 14.796875 35.296875 
Q 14.796875 22.515625 20.40625 14.484375 
Q 26.03125 6.453125 38.71875 6.453125 
Q 48.4375 6.453125 54.8125 12.078125 
Q 61.1875 17.71875 61.328125 30.328125 
L 38.875 30.328125 
L 38.875 38.375 
L 70.359375 38.375 
L 70.359375 0 
L 64.109375 0 
L 61.765625 9.234375 
Q 56.84375 3.8125 53.03125 1.703125 
Q 46.625 -1.90625 36.765625 -1.90625 
Q 24.03125 -1.90625 14.84375 6.34375 
Q 4.828125 16.703125 4.828125 34.765625 
Q 4.828125 52.78125 14.59375 63.421875 
Q 23.875 73.578125 38.625 73.578125 
z
M 37.015625 73.6875 
z
" id="Helvetica-71"/>
      <path d="M 6.453125 52.046875 
L 15.375 52.046875 
L 15.375 0 
L 6.453125 0 
z
M 6.453125 71.734375 
L 15.375 71.734375 
L 15.375 61.765625 
L 6.453125 61.765625 
z
" id="Helvetica-105"/>
      <path d="M 12.015625 25.53125 
Q 12.015625 17.140625 15.578125 11.46875 
Q 19.140625 5.8125 27 5.8125 
Q 33.109375 5.8125 37.03125 11.0625 
Q 40.96875 16.3125 40.96875 26.125 
Q 40.96875 36.03125 36.90625 40.796875 
Q 32.859375 45.5625 26.90625 45.5625 
Q 20.265625 45.5625 16.140625 40.484375 
Q 12.015625 35.40625 12.015625 25.53125 
z
M 25.25 53.21875 
Q 31.25 53.21875 35.296875 50.6875 
Q 37.640625 49.21875 40.625 45.5625 
L 40.625 71.96875 
L 49.078125 71.96875 
L 49.078125 0 
L 41.15625 0 
L 41.15625 7.28125 
Q 38.09375 2.4375 33.890625 0.28125 
Q 29.6875 -1.859375 24.265625 -1.859375 
Q 15.53125 -1.859375 9.125 5.484375 
Q 2.734375 12.84375 2.734375 25.046875 
Q 2.734375 36.46875 8.5625 44.84375 
Q 14.40625 53.21875 25.25 53.21875 
z
" id="Helvetica-100"/>
      <path d="M 55.421875 40.140625 
L 55.421875 31.9375 
L 4.5 31.9375 
L 4.5 40.140625 
z
M 55.421875 19.1875 
L 55.421875 10.84375 
L 4.5 10.84375 
L 4.5 19.1875 
z
" id="Helvetica-61"/>
      <path d="M 11.078125 -10.203125 
Q 14.5 -9.578125 15.828125 -5.671875 
Q 16.5 -3.609375 16.5 -1.171875 
Q 16.5 -0.921875 16.46875 -0.75 
Q 16.453125 -0.59375 16.40625 0 
L 11.078125 0 
L 11.078125 10.640625 
L 21.484375 10.640625 
L 21.484375 0.78125 
Q 21.484375 -4.4375 19.96875 -7.953125 
Q 17.4375 -13.71875 11.078125 -14.84375 
z
M 11.078125 51.609375 
L 21.484375 51.609375 
L 21.484375 40.96875 
L 11.078125 40.96875 
z
" id="Helvetica-59"/>
      <path d="M 6.25 72.21875 
L 25 72.21875 
L 25 65.046875 
L 14.546875 65.046875 
L 14.546875 -12.5 
L 25 -12.5 
L 25 -19.671875 
L 6.25 -19.671875 
z
" id="Helvetica-91"/>
      <path d="M 52.296875 68.75 
L 52.296875 61.078125 
Q 48.921875 57.8125 43.328125 49.703125 
Q 37.75 41.609375 33.453125 32.234375 
Q 29.203125 23.09375 27 15.578125 
Q 25.59375 10.75 23.34375 0 
L 13.625 0 
Q 16.9375 20.015625 28.265625 39.84375 
Q 34.96875 51.46875 42.328125 59.90625 
L 3.65625 59.90625 
L 3.65625 68.75 
z
" id="Helvetica-55"/>
      <path d="M 8.296875 -10.203125 
Q 11.671875 -9.625 13.03125 -5.46875 
Q 13.765625 -3.265625 13.765625 -1.21875 
Q 13.765625 -0.875 13.734375 -0.609375 
Q 13.71875 -0.34375 13.625 0 
L 8.296875 0 
L 8.296875 10.640625 
L 18.75 10.640625 
L 18.75 0.78125 
Q 18.75 -5.03125 16.40625 -9.421875 
Q 14.0625 -13.8125 8.296875 -14.84375 
z
" id="Helvetica-44"/>
      <path d="M 27.203125 40.625 
Q 33.015625 40.625 36.28125 43.875 
Q 39.546875 47.125 39.546875 51.609375 
Q 39.546875 55.515625 36.421875 58.78125 
Q 33.296875 62.0625 26.90625 62.0625 
Q 20.5625 62.0625 17.71875 58.78125 
Q 14.890625 55.515625 14.890625 51.125 
Q 14.890625 46.1875 18.546875 43.40625 
Q 22.21875 40.625 27.203125 40.625 
z
M 27.734375 6 
Q 33.84375 6 37.859375 9.296875 
Q 41.890625 12.59375 41.890625 19.140625 
Q 41.890625 25.921875 37.734375 29.4375 
Q 33.59375 32.953125 27.09375 32.953125 
Q 20.796875 32.953125 16.8125 29.359375 
Q 12.84375 25.78125 12.84375 19.4375 
Q 12.84375 13.96875 16.484375 9.984375 
Q 20.125 6 27.734375 6 
z
M 15.234375 37.25 
Q 11.578125 38.8125 9.515625 40.921875 
Q 5.671875 44.828125 5.671875 51.078125 
Q 5.671875 58.890625 11.328125 64.5 
Q 17 70.125 27.390625 70.125 
Q 37.453125 70.125 43.15625 64.8125 
Q 48.875 59.515625 48.875 52.4375 
Q 48.875 45.90625 45.5625 41.84375 
Q 43.703125 39.546875 39.796875 37.359375 
Q 44.140625 35.359375 46.625 32.765625 
Q 51.265625 27.875 51.265625 20.0625 
Q 51.265625 10.84375 45.0625 4.421875 
Q 38.875 -2 27.546875 -2 
Q 17.328125 -2 10.265625 3.53125 
Q 3.21875 9.078125 3.21875 19.625 
Q 3.21875 25.828125 6.25 30.34375 
Q 9.28125 34.859375 15.234375 37.25 
z
" id="Helvetica-56"/>
      <path d="M 13.28125 16.890625 
Q 13.671875 9.625 18.890625 6.84375 
Q 21.578125 5.375 24.953125 5.375 
Q 31.25 5.375 35.6875 10.625 
Q 40.140625 15.875 42 31.9375 
Q 39.0625 27.296875 34.734375 25.40625 
Q 30.421875 23.53125 25.4375 23.53125 
Q 15.328125 23.53125 9.4375 29.828125 
Q 3.5625 36.140625 3.5625 46.046875 
Q 3.5625 55.5625 9.375 62.78125 
Q 15.1875 70.015625 26.515625 70.015625 
Q 41.796875 70.015625 47.609375 56.25 
Q 50.828125 48.6875 50.828125 37.3125 
Q 50.828125 24.46875 46.96875 14.546875 
Q 40.578125 -1.953125 25.296875 -1.953125 
Q 15.046875 -1.953125 9.71875 3.421875 
Q 4.390625 8.796875 4.390625 16.890625 
z
M 26.609375 31.25 
Q 31.84375 31.25 36.15625 34.6875 
Q 40.484375 38.140625 40.484375 46.734375 
Q 40.484375 54.4375 36.59375 58.21875 
Q 32.71875 62.015625 26.703125 62.015625 
Q 20.265625 62.015625 16.484375 57.6875 
Q 12.703125 53.375 12.703125 46.140625 
Q 12.703125 39.3125 16.015625 35.28125 
Q 19.34375 31.25 26.609375 31.25 
z
" id="Helvetica-57"/>
      <path d="M 2.296875 -12.5 
L 12.703125 -12.5 
L 12.703125 65.046875 
L 2.296875 65.046875 
L 2.296875 72.21875 
L 21.046875 72.21875 
L 21.046875 -19.671875 
L 2.296875 -19.671875 
z
" id="Helvetica-93"/>
      <path d="M 6.453125 71.96875 
L 15.234375 71.96875 
L 15.234375 45.21875 
Q 18.359375 49.171875 20.84375 50.78125 
Q 25.09375 53.5625 31.453125 53.5625 
Q 42.828125 53.5625 46.875 45.609375 
Q 49.078125 41.265625 49.078125 33.546875 
L 49.078125 0 
L 40.046875 0 
L 40.046875 32.953125 
Q 40.046875 38.71875 38.578125 41.40625 
Q 36.1875 45.703125 29.59375 45.703125 
Q 24.125 45.703125 19.671875 41.9375 
Q 15.234375 38.1875 15.234375 27.734375 
L 15.234375 0 
L 6.453125 0 
z
" id="Helvetica-104"/>
      <path d="M 8.546875 10.640625 
L 18.75 10.640625 
L 18.75 0 
L 8.546875 0 
z
" id="Helvetica-46"/>
     </defs>
     <use xlink:href="#Helvetica-71"/>
     <use x="77.783203" xlink:href="#Helvetica-114"/>
     <use x="111.083984" xlink:href="#Helvetica-105"/>
     <use x="133.300781" xlink:href="#Helvetica-100"/>
     <use x="188.916016" xlink:href="#Helvetica-32"/>
     <use x="216.699219" xlink:href="#Helvetica-99"/>
     <use x="266.699219" xlink:href="#Helvetica-101"/>
     <use x="322.314453" xlink:href="#Helvetica-108"/>
     <use x="344.53125" xlink:href="#Helvetica-108"/>
     <use x="366.748047" xlink:href="#Helvetica-115"/>
     <use x="416.748047" xlink:href="#Helvetica-61"/>
     <use x="475.146484" xlink:href="#Helvetica-50"/>
     <use x="530.761719" xlink:href="#Helvetica-52"/>
     <use x="586.376953" xlink:href="#Helvetica-59"/>
     <use x="614.160156" xlink:href="#Helvetica-32"/>
     <use x="641.943359" xlink:href="#Helvetica-71"/>
     <use x="719.726562" xlink:href="#Helvetica-114"/>
     <use x="753.027344" xlink:href="#Helvetica-105"/>
     <use x="775.244141" xlink:href="#Helvetica-100"/>
     <use x="830.859375" xlink:href="#Helvetica-32"/>
     <use x="858.642578" xlink:href="#Helvetica-112"/>
     <use x="914.257812" xlink:href="#Helvetica-101"/>
     <use x="969.873047" xlink:href="#Helvetica-114"/>
     <use x="1003.173828" xlink:href="#Helvetica-105"/>
     <use x="1025.390625" xlink:href="#Helvetica-111"/>
     <use x="1081.005859" xlink:href="#Helvetica-100"/>
     <use x="1136.621094" xlink:href="#Helvetica-115"/>
     <use x="1186.621094" xlink:href="#Helvetica-61"/>
     <use x="1245.019531" xlink:href="#Helvetica-91"/>
     <use x="1272.802734" xlink:href="#Helvetica-55"/>
     <use x="1328.417969" xlink:href="#Helvetica-44"/>
     <use x="1356.201172" xlink:href="#Helvetica-32"/>
     <use x="1383.984375" xlink:href="#Helvetica-56"/>
     <use x="1439.599609" xlink:href="#Helvetica-44"/>
     <use x="1467.382812" xlink:href="#Helvetica-32"/>
     <use x="1495.166016" xlink:href="#Helvetica-57"/>
     <use x="1550.78125" xlink:href="#Helvetica-93"/>
     <use x="1578.564453" xlink:href="#Helvetica-59"/>
     <use x="1606.347656" xlink:href="#Helvetica-32"/>
     <use x="1634.130859" xlink:href="#Helvetica-116"/>
     <use x="1661.914062" xlink:href="#Helvetica-104"/>
     <use x="1717.529297" xlink:href="#Helvetica-114"/>
     <use x="1750.830078" xlink:href="#Helvetica-101"/>
     <use x="1806.445312" xlink:href="#Helvetica-115"/>
     <use x="1856.445312" xlink:href="#Helvetica-104"/>
     <use x="1912.060547" xlink:href="#Helvetica-61"/>
     <use x="1970.458984" xlink:href="#Helvetica-48"/>
     <use x="2026.074219" xlink:href="#Helvetica-46"/>
     <use x="2053.857422" xlink:href="#Helvetica-48"/>
     <use x="2109.472656" xlink:href="#Helvetica-48"/>
     <use x="2165.087891" xlink:href="#Helvetica-49"/>
    </g>
   </g>
   <g id="legend_1">
    <g id="patch_7">
     <path d="M 110.132344 160.384297 
L 408.651094 160.384297 
Q 412.651094 160.384297 412.651094 156.384297 
L 412.651094 129.478047 
Q 412.651094 125.478047 408.651094 125.478047 
L 110.132344 125.478047 
Q 106.132344 125.478047 106.132344 129.478047 
L 106.132344 156.384297 
Q 106.132344 160.384297 110.132344 160.384297 
z
" style="fill:#ffffff;opacity:0.8;stroke:#cccccc;stroke-linejoin:miter;"/>
    </g>
    <g id="LineCollection_2">
     <path d="M 134.132344 151.215547 
L 134.132344 131.215547 
" style="fill:none;stroke:#000000;"/>
    </g>
    <g id="line2d_11">
     <path d="M 114.132344 141.215547 
L 154.132344 141.215547 
" style="fill:none;stroke:#000000;stroke-dasharray:3.7,1.6;stroke-dashoffset:0;"/>
    </g>
    <g id="line2d_12">
     <g>
      <use style="stroke:#000000;stroke-width:2;" x="134.132344" xlink:href="#m8eba2d1c03" y="141.215547"/>
     </g>
    </g>
    <g id="text_13">
     <!-- randmsparseNCK network -->
     <g transform="translate(170.132344 148.215547)scale(0.2 -0.2)">
      <defs>
       <path d="M 7.625 71.734375 
L 19.09375 71.734375 
L 55.328125 13.625 
L 55.328125 71.734375 
L 64.546875 71.734375 
L 64.546875 0 
L 53.65625 0 
L 16.890625 58.0625 
L 16.890625 0 
L 7.625 0 
z
M 35.453125 71.734375 
z
" id="Helvetica-78"/>
       <path d="M 37.84375 73.6875 
Q 51.46875 73.6875 58.984375 66.5 
Q 66.5 59.328125 67.328125 50.203125 
L 57.859375 50.203125 
Q 56.25 57.125 51.4375 61.171875 
Q 46.625 65.234375 37.9375 65.234375 
Q 27.34375 65.234375 20.828125 57.78125 
Q 14.3125 50.34375 14.3125 34.96875 
Q 14.3125 22.359375 20.1875 14.515625 
Q 26.078125 6.6875 37.75 6.6875 
Q 48.484375 6.6875 54.109375 14.9375 
Q 57.078125 19.28125 58.546875 26.375 
L 68.015625 26.375 
Q 66.75 15.046875 59.625 7.375 
Q 51.078125 -1.859375 36.578125 -1.859375 
Q 24.078125 -1.859375 15.578125 5.71875 
Q 4.390625 15.71875 4.390625 36.625 
Q 4.390625 52.484375 12.796875 62.640625 
Q 21.875 73.6875 37.84375 73.6875 
z
M 35.890625 73.6875 
z
" id="Helvetica-67"/>
       <path d="M 7.625 71.734375 
L 17.09375 71.734375 
L 17.09375 36.765625 
L 52.046875 71.734375 
L 65.484375 71.734375 
L 35.640625 42.828125 
L 66.3125 0 
L 53.65625 0 
L 28.5625 35.984375 
L 17.09375 25 
L 17.09375 0 
L 7.625 0 
z
" id="Helvetica-75"/>
       <path d="M 10.5 52.296875 
L 20.5625 11.078125 
L 30.765625 52.296875 
L 40.625 52.296875 
L 50.875 11.328125 
L 61.578125 52.296875 
L 70.359375 52.296875 
L 55.171875 0 
L 46.046875 0 
L 35.40625 40.484375 
L 25.09375 0 
L 15.96875 0 
L 0.875 52.296875 
z
" id="Helvetica-119"/>
       <path d="M 6.25 71.734375 
L 14.703125 71.734375 
L 14.703125 30.078125 
L 37.25 52.296875 
L 48.484375 52.296875 
L 28.46875 32.71875 
L 49.609375 0 
L 38.375 0 
L 22.078125 26.375 
L 14.703125 19.625 
L 14.703125 0 
L 6.25 0 
z
" id="Helvetica-107"/>
      </defs>
      <use xlink:href="#Helvetica-114"/>
      <use x="33.300781" xlink:href="#Helvetica-97"/>
      <use x="88.916016" xlink:href="#Helvetica-110"/>
      <use x="144.53125" xlink:href="#Helvetica-100"/>
      <use x="200.146484" xlink:href="#Helvetica-109"/>
      <use x="283.447266" xlink:href="#Helvetica-115"/>
      <use x="333.447266" xlink:href="#Helvetica-112"/>
      <use x="389.0625" xlink:href="#Helvetica-97"/>
      <use x="444.677734" xlink:href="#Helvetica-114"/>
      <use x="477.978516" xlink:href="#Helvetica-115"/>
      <use x="527.978516" xlink:href="#Helvetica-101"/>
      <use x="583.59375" xlink:href="#Helvetica-78"/>
      <use x="655.810547" xlink:href="#Helvetica-67"/>
      <use x="728.027344" xlink:href="#Helvetica-75"/>
      <use x="794.726562" xlink:href="#Helvetica-32"/>
      <use x="822.509766" xlink:href="#Helvetica-110"/>
      <use x="878.125" xlink:href="#Helvetica-101"/>
      <use x="933.740234" xlink:href="#Helvetica-116"/>
      <use x="961.523438" xlink:href="#Helvetica-119"/>
      <use x="1033.740234" xlink:href="#Helvetica-111"/>
      <use x="1089.355469" xlink:href="#Helvetica-114"/>
      <use x="1122.65625" xlink:href="#Helvetica-107"/>
     </g>
    </g>
   </g>
  </g>
 </g>
 <defs>
  <clipPath id="p976aea6d59">
   <rect height="227.039844" width="342.375" x="80.276094" y="29.41125"/>
  </clipPath>
 </defs>
</svg>
