<?xml version="1.0" encoding="utf-8" standalone="no"?>
<!DOCTYPE svg PUBLIC "-//W3C//DTD SVG 1.1//EN"
  "http://www.w3.org/Graphics/SVG/1.1/DTD/svg11.dtd">
<!-- Created with matplotlib (https://matplotlib.org/) -->
<svg height="312.48pt" version="1.1" viewBox="0 0 427.68 312.48" width="427.68pt" xmlns="http://www.w3.org/2000/svg" xmlns:xlink="http://www.w3.org/1999/xlink">
 <metadata>
  <rdf:RDF xmlns:cc="http://creativecommons.org/ns#" xmlns:dc="http://purl.org/dc/elements/1.1/" xmlns:rdf="http://www.w3.org/1999/02/22-rdf-syntax-ns#">
   <cc:Work>
    <dc:type rdf:resource="http://purl.org/dc/dcmitype/StillImage"/>
    <dc:date>2021-12-31T01:37:07.521476</dc:date>
    <dc:format>image/svg+xml</dc:format>
    <dc:creator>
     <cc:Agent>
      <dc:title>Matplotlib v3.3.4, https://matplotlib.org/</dc:title>
     </cc:Agent>
    </dc:creator>
   </cc:Work>
  </rdf:RDF>
 </metadata>
 <defs>
  <style type="text/css">*{stroke-linecap:butt;stroke-linejoin:round;}</style>
 </defs>
 <g id="figure_1">
  <g id="patch_1">
   <path d="M 0 312.48 
L 427.68 312.48 
L 427.68 0 
L 0 0 
z
" style="fill:#ffffff;"/>
  </g>
  <g id="axes_1">
   <g id="patch_2">
    <path d="M 63.697188 256.451094 
L 420.48 256.451094 
L 420.48 28.981563 
L 63.697188 28.981563 
z
" style="fill:#ffffff;"/>
   </g>
   <g id="matplotlib.axis_1">
    <g id="xtick_1">
     <g id="line2d_1">
      <defs>
       <path d="M 0 0 
L 0 5 
" id="me481340fd8" style="stroke:#000000;"/>
      </defs>
      <g>
       <use style="stroke:#000000;" x="79.516615" xlink:href="#me481340fd8" y="256.451094"/>
      </g>
     </g>
     <g id="text_1">
      <!-- 0 -->
      <g transform="translate(74.789818 277.145937)scale(0.17 -0.17)">
       <defs>
        <path d="M 27.046875 69.921875 
Q 40.625 69.921875 46.6875 58.734375 
Q 51.375 50.09375 51.375 35.0625 
Q 51.375 20.796875 47.125 11.46875 
Q 40.96875 -1.90625 27 -1.90625 
Q 14.40625 -1.90625 8.25 9.03125 
Q 3.125 18.171875 3.125 33.546875 
Q 3.125 45.453125 6.203125 54 
Q 11.96875 69.921875 27.046875 69.921875 
z
M 26.953125 6.109375 
Q 33.796875 6.109375 37.84375 12.15625 
Q 41.890625 18.21875 41.890625 34.71875 
Q 41.890625 46.625 38.953125 54.3125 
Q 36.03125 62.015625 27.59375 62.015625 
Q 19.828125 62.015625 16.234375 54.703125 
Q 12.640625 47.40625 12.640625 33.203125 
Q 12.640625 22.515625 14.9375 16.015625 
Q 18.453125 6.109375 26.953125 6.109375 
z
" id="Helvetica-48"/>
       </defs>
       <use xlink:href="#Helvetica-48"/>
      </g>
     </g>
    </g>
    <g id="xtick_2">
     <g id="line2d_2">
      <g>
       <use style="stroke:#000000;" x="159.111219" xlink:href="#me481340fd8" y="256.451094"/>
      </g>
     </g>
     <g id="text_2">
      <!-- 200 -->
      <g transform="translate(144.930828 277.145937)scale(0.17 -0.17)">
       <defs>
        <path d="M 3.125 0 
Q 3.609375 9.03125 6.859375 15.71875 
Q 10.109375 22.40625 19.53125 27.875 
L 28.90625 33.296875 
Q 35.203125 36.96875 37.75 39.546875 
Q 41.75 43.609375 41.75 48.828125 
Q 41.75 54.9375 38.078125 58.515625 
Q 34.421875 62.109375 28.328125 62.109375 
Q 19.28125 62.109375 15.828125 55.28125 
Q 13.96875 51.609375 13.765625 45.125 
L 4.828125 45.125 
Q 4.984375 54.25 8.203125 60.015625 
Q 13.921875 70.171875 28.375 70.171875 
Q 40.375 70.171875 45.921875 63.671875 
Q 51.46875 57.171875 51.46875 49.21875 
Q 51.46875 40.828125 45.5625 34.859375 
Q 42.140625 31.390625 33.296875 26.46875 
L 26.609375 22.75 
Q 21.828125 20.125 19.09375 17.71875 
Q 14.203125 13.484375 12.9375 8.296875 
L 51.125 8.296875 
L 51.125 0 
L 3.125 0 
z
" id="Helvetica-50"/>
       </defs>
       <use xlink:href="#Helvetica-50"/>
       <use x="55.615234" xlink:href="#Helvetica-48"/>
       <use x="111.230469" xlink:href="#Helvetica-48"/>
      </g>
     </g>
    </g>
    <g id="xtick_3">
     <g id="line2d_3">
      <g>
       <use style="stroke:#000000;" x="238.705823" xlink:href="#me481340fd8" y="256.451094"/>
      </g>
     </g>
     <g id="text_3">
      <!-- 400 -->
      <g transform="translate(224.525432 277.145937)scale(0.17 -0.17)">
       <defs>
        <path d="M 33.0625 24.75 
L 33.0625 56.453125 
L 10.640625 24.75 
z
M 33.203125 0 
L 33.203125 17.09375 
L 2.546875 17.09375 
L 2.546875 25.6875 
L 34.578125 70.125 
L 42 70.125 
L 42 24.75 
L 52.296875 24.75 
L 52.296875 17.09375 
L 42 17.09375 
L 42 0 
z
" id="Helvetica-52"/>
       </defs>
       <use xlink:href="#Helvetica-52"/>
       <use x="55.615234" xlink:href="#Helvetica-48"/>
       <use x="111.230469" xlink:href="#Helvetica-48"/>
      </g>
     </g>
    </g>
    <g id="xtick_4">
     <g id="line2d_4">
      <g>
       <use style="stroke:#000000;" x="318.300427" xlink:href="#me481340fd8" y="256.451094"/>
      </g>
     </g>
     <g id="text_4">
      <!-- 600 -->
      <g transform="translate(304.120036 277.145937)scale(0.17 -0.17)">
       <defs>
        <path d="M 29.25 70.21875 
Q 40.96875 70.21875 45.578125 64.140625 
Q 50.203125 58.0625 50.203125 51.609375 
L 41.5 51.609375 
Q 40.71875 55.765625 39.015625 58.109375 
Q 35.84375 62.5 29.390625 62.5 
Q 22.015625 62.5 17.671875 55.6875 
Q 13.328125 48.875 12.84375 36.1875 
Q 15.875 40.625 20.453125 42.828125 
Q 24.65625 44.78125 29.828125 44.78125 
Q 38.625 44.78125 45.15625 39.15625 
Q 51.703125 33.546875 51.703125 22.40625 
Q 51.703125 12.890625 45.5 5.53125 
Q 39.3125 -1.8125 27.828125 -1.8125 
Q 18.015625 -1.8125 10.890625 5.640625 
Q 3.765625 13.09375 3.765625 30.71875 
Q 3.765625 43.75 6.9375 52.828125 
Q 13.03125 70.21875 29.25 70.21875 
z
M 28.609375 6 
Q 35.546875 6 38.984375 10.65625 
Q 42.4375 15.328125 42.4375 21.6875 
Q 42.4375 27.046875 39.359375 31.90625 
Q 36.28125 36.765625 28.171875 36.765625 
Q 22.515625 36.765625 18.234375 33 
Q 13.96875 29.25 13.96875 21.6875 
Q 13.96875 15.046875 17.84375 10.515625 
Q 21.734375 6 28.609375 6 
z
" id="Helvetica-54"/>
       </defs>
       <use xlink:href="#Helvetica-54"/>
       <use x="55.615234" xlink:href="#Helvetica-48"/>
       <use x="111.230469" xlink:href="#Helvetica-48"/>
      </g>
     </g>
    </g>
    <g id="xtick_5">
     <g id="line2d_5">
      <g>
       <use style="stroke:#000000;" x="397.895031" xlink:href="#me481340fd8" y="256.451094"/>
      </g>
     </g>
     <g id="text_5">
      <!-- 800 -->
      <g transform="translate(383.71464 277.145937)scale(0.17 -0.17)">
       <defs>
        <path d="M 27.203125 40.625 
Q 33.015625 40.625 36.28125 43.875 
Q 39.546875 47.125 39.546875 51.609375 
Q 39.546875 55.515625 36.421875 58.78125 
Q 33.296875 62.0625 26.90625 62.0625 
Q 20.5625 62.0625 17.71875 58.78125 
Q 14.890625 55.515625 14.890625 51.125 
Q 14.890625 46.1875 18.546875 43.40625 
Q 22.21875 40.625 27.203125 40.625 
z
M 27.734375 6 
Q 33.84375 6 37.859375 9.296875 
Q 41.890625 12.59375 41.890625 19.140625 
Q 41.890625 25.921875 37.734375 29.4375 
Q 33.59375 32.953125 27.09375 32.953125 
Q 20.796875 32.953125 16.8125 29.359375 
Q 12.84375 25.78125 12.84375 19.4375 
Q 12.84375 13.96875 16.484375 9.984375 
Q 20.125 6 27.734375 6 
z
M 15.234375 37.25 
Q 11.578125 38.8125 9.515625 40.921875 
Q 5.671875 44.828125 5.671875 51.078125 
Q 5.671875 58.890625 11.328125 64.5 
Q 17 70.125 27.390625 70.125 
Q 37.453125 70.125 43.15625 64.8125 
Q 48.875 59.515625 48.875 52.4375 
Q 48.875 45.90625 45.5625 41.84375 
Q 43.703125 39.546875 39.796875 37.359375 
Q 44.140625 35.359375 46.625 32.765625 
Q 51.265625 27.875 51.265625 20.0625 
Q 51.265625 10.84375 45.0625 4.421875 
Q 38.875 -2 27.546875 -2 
Q 17.328125 -2 10.265625 3.53125 
Q 3.21875 9.078125 3.21875 19.625 
Q 3.21875 25.828125 6.25 30.34375 
Q 9.28125 34.859375 15.234375 37.25 
z
" id="Helvetica-56"/>
       </defs>
       <use xlink:href="#Helvetica-56"/>
       <use x="55.615234" xlink:href="#Helvetica-48"/>
       <use x="111.230469" xlink:href="#Helvetica-48"/>
      </g>
     </g>
    </g>
    <g id="text_6">
     <!-- Number of patterns -->
     <g transform="translate(147.940625 300.694375)scale(0.22 -0.22)">
      <defs>
       <path d="M 7.625 71.734375 
L 19.09375 71.734375 
L 55.328125 13.625 
L 55.328125 71.734375 
L 64.546875 71.734375 
L 64.546875 0 
L 53.65625 0 
L 16.890625 58.0625 
L 16.890625 0 
L 7.625 0 
z
M 35.453125 71.734375 
z
" id="Helvetica-78"/>
       <path d="M 15.234375 52.296875 
L 15.234375 17.578125 
Q 15.234375 13.578125 16.5 11.03125 
Q 18.84375 6.34375 25.25 6.34375 
Q 34.421875 6.34375 37.75 14.546875 
Q 39.546875 18.953125 39.546875 26.609375 
L 39.546875 52.296875 
L 48.34375 52.296875 
L 48.34375 0 
L 40.046875 0 
L 40.140625 7.71875 
Q 38.421875 4.734375 35.890625 2.6875 
Q 30.859375 -1.421875 23.6875 -1.421875 
Q 12.5 -1.421875 8.453125 6.0625 
Q 6.25 10.0625 6.25 16.75 
L 6.25 52.296875 
z
M 27.296875 53.5625 
z
" id="Helvetica-117"/>
       <path d="M 6.453125 52.296875 
L 15.140625 52.296875 
L 15.140625 44.875 
Q 18.265625 48.734375 20.796875 50.484375 
Q 25.140625 53.46875 30.671875 53.46875 
Q 36.921875 53.46875 40.71875 50.390625 
Q 42.875 48.640625 44.625 45.21875 
Q 47.5625 49.421875 51.515625 51.4375 
Q 55.46875 53.46875 60.40625 53.46875 
Q 70.953125 53.46875 74.75 45.84375 
Q 76.8125 41.75 76.8125 34.8125 
L 76.8125 0 
L 67.671875 0 
L 67.671875 36.328125 
Q 67.671875 41.546875 65.0625 43.5 
Q 62.453125 45.453125 58.6875 45.453125 
Q 53.515625 45.453125 49.78125 41.984375 
Q 46.046875 38.53125 46.046875 30.421875 
L 46.046875 0 
L 37.109375 0 
L 37.109375 34.125 
Q 37.109375 39.453125 35.84375 41.890625 
Q 33.84375 45.5625 28.375 45.5625 
Q 23.390625 45.5625 19.3125 41.703125 
Q 15.234375 37.84375 15.234375 27.734375 
L 15.234375 0 
L 6.453125 0 
z
" id="Helvetica-109"/>
       <path d="M 5.765625 71.96875 
L 14.3125 71.96875 
L 14.3125 45.953125 
Q 17.1875 49.703125 21.1875 51.671875 
Q 25.203125 53.65625 29.890625 53.65625 
Q 39.65625 53.65625 45.734375 46.9375 
Q 51.8125 40.234375 51.8125 27.15625 
Q 51.8125 14.75 45.796875 6.546875 
Q 39.796875 -1.65625 29.15625 -1.65625 
Q 23.1875 -1.65625 19.09375 1.21875 
Q 16.65625 2.9375 13.875 6.6875 
L 13.875 0 
L 5.765625 0 
z
M 28.609375 6.109375 
Q 35.75 6.109375 39.28125 11.765625 
Q 42.828125 17.4375 42.828125 26.703125 
Q 42.828125 34.96875 39.28125 40.375 
Q 35.75 45.796875 28.859375 45.796875 
Q 22.859375 45.796875 18.328125 41.359375 
Q 13.8125 36.921875 13.8125 26.703125 
Q 13.8125 19.34375 15.671875 14.75 
Q 19.140625 6.109375 28.609375 6.109375 
z
" id="Helvetica-98"/>
       <path d="M 28.21875 53.46875 
Q 33.796875 53.46875 39.015625 50.859375 
Q 44.234375 48.25 46.96875 44.09375 
Q 49.609375 40.140625 50.484375 34.859375 
Q 51.265625 31.25 51.265625 23.34375 
L 12.9375 23.34375 
Q 13.1875 15.375 16.703125 10.5625 
Q 20.21875 5.765625 27.59375 5.765625 
Q 34.46875 5.765625 38.578125 10.296875 
Q 40.921875 12.9375 41.890625 16.40625 
L 50.53125 16.40625 
Q 50.203125 13.53125 48.265625 9.984375 
Q 46.34375 6.453125 43.953125 4.203125 
Q 39.9375 0.296875 34.03125 -1.078125 
Q 30.859375 -1.859375 26.859375 -1.859375 
Q 17.09375 -1.859375 10.296875 5.25 
Q 3.515625 12.359375 3.515625 25.140625 
Q 3.515625 37.75 10.34375 45.609375 
Q 17.1875 53.46875 28.21875 53.46875 
z
M 42.234375 30.328125 
Q 41.703125 36.03125 39.75 39.453125 
Q 36.140625 45.796875 27.6875 45.796875 
Q 21.625 45.796875 17.515625 41.421875 
Q 13.421875 37.0625 13.1875 30.328125 
z
M 27.390625 53.5625 
z
" id="Helvetica-101"/>
       <path d="M 6.6875 52.296875 
L 15.046875 52.296875 
L 15.046875 43.265625 
Q 16.0625 45.90625 20.0625 49.6875 
Q 24.078125 53.46875 29.296875 53.46875 
Q 29.546875 53.46875 30.125 53.421875 
Q 30.71875 53.375 32.125 53.21875 
L 32.125 43.953125 
Q 31.34375 44.09375 30.6875 44.140625 
Q 30.03125 44.1875 29.25 44.1875 
Q 22.609375 44.1875 19.046875 39.90625 
Q 15.484375 35.640625 15.484375 30.078125 
L 15.484375 0 
L 6.6875 0 
z
" id="Helvetica-114"/>
       <path id="Helvetica-32"/>
       <path d="M 27.203125 5.671875 
Q 35.9375 5.671875 39.1875 12.28125 
Q 42.4375 18.890625 42.4375 27 
Q 42.4375 34.328125 40.09375 38.921875 
Q 36.375 46.140625 27.296875 46.140625 
Q 19.234375 46.140625 15.578125 39.984375 
Q 11.921875 33.84375 11.921875 25.140625 
Q 11.921875 16.796875 15.578125 11.234375 
Q 19.234375 5.671875 27.203125 5.671875 
z
M 27.546875 53.8125 
Q 37.640625 53.8125 44.625 47.0625 
Q 51.609375 40.328125 51.609375 27.25 
Q 51.609375 14.59375 45.453125 6.34375 
Q 39.3125 -1.90625 26.375 -1.90625 
Q 15.578125 -1.90625 9.21875 5.390625 
Q 2.875 12.703125 2.875 25 
Q 2.875 38.1875 9.5625 46 
Q 16.265625 53.8125 27.546875 53.8125 
z
M 27.25 53.5625 
z
" id="Helvetica-111"/>
       <path d="M 8.640625 60.25 
Q 8.84375 65.71875 10.546875 68.265625 
Q 13.625 72.75 22.40625 72.75 
Q 23.25 72.75 24.125 72.703125 
Q 25 72.65625 26.125 72.5625 
L 26.125 64.546875 
Q 24.75 64.65625 24.140625 64.671875 
Q 23.53125 64.703125 23 64.703125 
Q 19 64.703125 18.21875 62.625 
Q 17.4375 60.546875 17.4375 52.046875 
L 26.125 52.046875 
L 26.125 45.125 
L 17.328125 45.125 
L 17.328125 0 
L 8.640625 0 
L 8.640625 45.125 
L 1.375 45.125 
L 1.375 52.046875 
L 8.640625 52.046875 
L 8.640625 60.25 
z
" id="Helvetica-102"/>
       <path d="M 28.515625 5.90625 
Q 34.671875 5.90625 38.75 11.0625 
Q 42.828125 16.21875 42.828125 26.46875 
Q 42.828125 32.71875 41.015625 37.203125 
Q 37.59375 45.84375 28.515625 45.84375 
Q 19.390625 45.84375 16.015625 36.71875 
Q 14.203125 31.84375 14.203125 24.3125 
Q 14.203125 18.265625 16.015625 14.015625 
Q 19.4375 5.90625 28.515625 5.90625 
z
M 5.765625 52.046875 
L 14.3125 52.046875 
L 14.3125 45.125 
Q 16.9375 48.6875 20.0625 50.640625 
Q 24.515625 53.5625 30.515625 53.5625 
Q 39.40625 53.5625 45.609375 46.75 
Q 51.8125 39.9375 51.8125 27.296875 
Q 51.8125 10.203125 42.875 2.875 
Q 37.203125 -1.765625 29.6875 -1.765625 
Q 23.78125 -1.765625 19.78125 0.828125 
Q 17.4375 2.296875 14.546875 5.859375 
L 14.546875 -20.84375 
L 5.765625 -20.84375 
z
" id="Helvetica-112"/>
       <path d="M 13.1875 13.921875 
Q 13.1875 10.109375 15.96875 7.90625 
Q 18.75 5.71875 22.5625 5.71875 
Q 27.203125 5.71875 31.546875 7.859375 
Q 38.875 11.421875 38.875 19.53125 
L 38.875 26.609375 
Q 37.25 25.59375 34.703125 24.90625 
Q 32.171875 24.21875 29.734375 23.921875 
L 24.421875 23.25 
Q 19.625 22.609375 17.234375 21.234375 
Q 13.1875 18.953125 13.1875 13.921875 
z
M 34.46875 31.6875 
Q 37.5 32.078125 38.53125 34.234375 
Q 39.109375 35.40625 39.109375 37.59375 
Q 39.109375 42.09375 35.90625 44.109375 
Q 32.71875 46.140625 26.765625 46.140625 
Q 19.875 46.140625 17 42.4375 
Q 15.375 40.375 14.890625 36.328125 
L 6.6875 36.328125 
Q 6.9375 46 12.96875 49.78125 
Q 19 53.5625 26.953125 53.5625 
Q 36.1875 53.5625 41.9375 50.046875 
Q 47.65625 46.53125 47.65625 39.109375 
L 47.65625 8.984375 
Q 47.65625 7.625 48.21875 6.78125 
Q 48.78125 5.953125 50.59375 5.953125 
Q 51.171875 5.953125 51.90625 6.03125 
Q 52.640625 6.109375 53.46875 6.25 
L 53.46875 -0.25 
Q 51.421875 -0.828125 50.34375 -0.96875 
Q 49.265625 -1.125 47.40625 -1.125 
Q 42.875 -1.125 40.828125 2.09375 
Q 39.75 3.8125 39.3125 6.9375 
Q 36.625 3.421875 31.59375 0.828125 
Q 26.5625 -1.765625 20.515625 -1.765625 
Q 13.234375 -1.765625 8.609375 2.65625 
Q 4 7.078125 4 13.71875 
Q 4 21 8.546875 25 
Q 13.09375 29 20.453125 29.9375 
z
M 27.203125 53.5625 
z
" id="Helvetica-97"/>
       <path d="M 8.203125 66.890625 
L 17.09375 66.890625 
L 17.09375 52.296875 
L 25.4375 52.296875 
L 25.4375 45.125 
L 17.09375 45.125 
L 17.09375 10.984375 
Q 17.09375 8.25 18.953125 7.328125 
Q 19.96875 6.78125 22.359375 6.78125 
Q 23 6.78125 23.734375 6.8125 
Q 24.46875 6.84375 25.4375 6.9375 
L 25.4375 0 
Q 23.921875 -0.4375 22.28125 -0.625 
Q 20.65625 -0.828125 18.75 -0.828125 
Q 12.59375 -0.828125 10.390625 2.3125 
Q 8.203125 5.46875 8.203125 10.5 
L 8.203125 45.125 
L 1.125 45.125 
L 1.125 52.296875 
L 8.203125 52.296875 
z
" id="Helvetica-116"/>
       <path d="M 6.453125 52.296875 
L 14.796875 52.296875 
L 14.796875 44.875 
Q 18.5 49.46875 22.65625 51.46875 
Q 26.8125 53.46875 31.890625 53.46875 
Q 43.015625 53.46875 46.921875 45.703125 
Q 49.078125 41.453125 49.078125 33.546875 
L 49.078125 0 
L 40.140625 0 
L 40.140625 32.953125 
Q 40.140625 37.75 38.71875 40.671875 
Q 36.375 45.5625 30.21875 45.5625 
Q 27.09375 45.5625 25.09375 44.921875 
Q 21.484375 43.84375 18.75 40.625 
Q 16.546875 38.03125 15.890625 35.265625 
Q 15.234375 32.515625 15.234375 27.390625 
L 15.234375 0 
L 6.453125 0 
z
M 27.09375 53.5625 
z
" id="Helvetica-110"/>
       <path d="M 11.671875 16.40625 
Q 12.0625 12.015625 13.875 9.671875 
Q 17.1875 5.421875 25.390625 5.421875 
Q 30.28125 5.421875 33.984375 7.546875 
Q 37.703125 9.671875 37.703125 14.109375 
Q 37.703125 17.484375 34.71875 19.234375 
Q 32.8125 20.3125 27.203125 21.734375 
L 20.21875 23.484375 
Q 13.53125 25.140625 10.359375 27.203125 
Q 4.6875 30.765625 4.6875 37.0625 
Q 4.6875 44.484375 10.03125 49.0625 
Q 15.375 53.65625 24.421875 53.65625 
Q 36.234375 53.65625 41.453125 46.734375 
Q 44.734375 42.328125 44.625 37.25 
L 36.328125 37.25 
Q 36.078125 40.234375 34.234375 42.671875 
Q 31.203125 46.140625 23.734375 46.140625 
Q 18.75 46.140625 16.1875 44.234375 
Q 13.625 42.328125 13.625 39.203125 
Q 13.625 35.796875 17 33.734375 
Q 18.953125 32.515625 22.75 31.59375 
L 28.5625 30.171875 
Q 38.03125 27.875 41.265625 25.734375 
Q 46.390625 22.359375 46.390625 15.140625 
Q 46.390625 8.15625 41.09375 3.078125 
Q 35.796875 -2 24.953125 -2 
Q 13.28125 -2 8.421875 3.296875 
Q 3.5625 8.59375 3.21875 16.40625 
z
M 24.65625 53.5625 
z
" id="Helvetica-115"/>
      </defs>
      <use xlink:href="#Helvetica-78"/>
      <use x="72.216797" xlink:href="#Helvetica-117"/>
      <use x="127.832031" xlink:href="#Helvetica-109"/>
      <use x="211.132812" xlink:href="#Helvetica-98"/>
      <use x="266.748047" xlink:href="#Helvetica-101"/>
      <use x="322.363281" xlink:href="#Helvetica-114"/>
      <use x="355.664062" xlink:href="#Helvetica-32"/>
      <use x="383.447266" xlink:href="#Helvetica-111"/>
      <use x="439.0625" xlink:href="#Helvetica-102"/>
      <use x="466.845703" xlink:href="#Helvetica-32"/>
      <use x="494.628906" xlink:href="#Helvetica-112"/>
      <use x="550.244141" xlink:href="#Helvetica-97"/>
      <use x="605.859375" xlink:href="#Helvetica-116"/>
      <use x="633.642578" xlink:href="#Helvetica-116"/>
      <use x="661.425781" xlink:href="#Helvetica-101"/>
      <use x="717.041016" xlink:href="#Helvetica-114"/>
      <use x="750.341797" xlink:href="#Helvetica-110"/>
      <use x="805.957031" xlink:href="#Helvetica-115"/>
     </g>
    </g>
   </g>
   <g id="matplotlib.axis_2">
    <g id="ytick_1">
     <g id="line2d_6">
      <defs>
       <path d="M 0 0 
L -5 0 
" id="m7a1101aac5" style="stroke:#000000;"/>
      </defs>
      <g>
       <use style="stroke:#000000;" x="63.697188" xlink:href="#m7a1101aac5" y="255.645528"/>
      </g>
     </g>
     <g id="text_7">
      <!-- 0.0 -->
      <g transform="translate(31.567188 261.74295)scale(0.17 -0.17)">
       <defs>
        <path d="M 8.546875 10.640625 
L 18.75 10.640625 
L 18.75 0 
L 8.546875 0 
z
" id="Helvetica-46"/>
       </defs>
       <use xlink:href="#Helvetica-48"/>
       <use x="55.615234" xlink:href="#Helvetica-46"/>
       <use x="83.398438" xlink:href="#Helvetica-48"/>
      </g>
     </g>
    </g>
    <g id="ytick_2">
     <g id="line2d_7">
      <g>
       <use style="stroke:#000000;" x="63.697188" xlink:href="#m7a1101aac5" y="212.38064"/>
      </g>
     </g>
     <g id="text_8">
      <!-- 0.2 -->
      <g transform="translate(31.567188 218.478062)scale(0.17 -0.17)">
       <use xlink:href="#Helvetica-48"/>
       <use x="55.615234" xlink:href="#Helvetica-46"/>
       <use x="83.398438" xlink:href="#Helvetica-50"/>
      </g>
     </g>
    </g>
    <g id="ytick_3">
     <g id="line2d_8">
      <g>
       <use style="stroke:#000000;" x="63.697188" xlink:href="#m7a1101aac5" y="169.115752"/>
      </g>
     </g>
     <g id="text_9">
      <!-- 0.4 -->
      <g transform="translate(31.567188 175.213173)scale(0.17 -0.17)">
       <use xlink:href="#Helvetica-48"/>
       <use x="55.615234" xlink:href="#Helvetica-46"/>
       <use x="83.398438" xlink:href="#Helvetica-52"/>
      </g>
     </g>
    </g>
    <g id="ytick_4">
     <g id="line2d_9">
      <g>
       <use style="stroke:#000000;" x="63.697188" xlink:href="#m7a1101aac5" y="125.850863"/>
      </g>
     </g>
     <g id="text_10">
      <!-- 0.6 -->
      <g transform="translate(31.567188 131.948285)scale(0.17 -0.17)">
       <use xlink:href="#Helvetica-48"/>
       <use x="55.615234" xlink:href="#Helvetica-46"/>
       <use x="83.398438" xlink:href="#Helvetica-54"/>
      </g>
     </g>
    </g>
    <g id="ytick_5">
     <g id="line2d_10">
      <g>
       <use style="stroke:#000000;" x="63.697188" xlink:href="#m7a1101aac5" y="82.585975"/>
      </g>
     </g>
     <g id="text_11">
      <!-- 0.8 -->
      <g transform="translate(31.567188 88.683397)scale(0.17 -0.17)">
       <use xlink:href="#Helvetica-48"/>
       <use x="55.615234" xlink:href="#Helvetica-46"/>
       <use x="83.398438" xlink:href="#Helvetica-56"/>
      </g>
     </g>
    </g>
    <g id="ytick_6">
     <g id="line2d_11">
      <g>
       <use style="stroke:#000000;" x="63.697188" xlink:href="#m7a1101aac5" y="39.321087"/>
      </g>
     </g>
     <g id="text_12">
      <!-- 1.0 -->
      <g transform="translate(31.567188 45.418509)scale(0.17 -0.17)">
       <defs>
        <path d="M 9.578125 49.515625 
L 9.578125 56.25 
Q 19.09375 57.171875 22.84375 59.34375 
Q 26.609375 61.53125 28.46875 69.625 
L 35.40625 69.625 
L 35.40625 0 
L 26.03125 0 
L 26.03125 49.515625 
z
" id="Helvetica-49"/>
       </defs>
       <use xlink:href="#Helvetica-49"/>
       <use x="55.615234" xlink:href="#Helvetica-46"/>
       <use x="83.398438" xlink:href="#Helvetica-48"/>
      </g>
     </g>
    </g>
    <g id="text_13">
     <!-- MI -->
     <g transform="translate(22.981563 154.934922)rotate(-90)scale(0.22 -0.22)">
      <defs>
       <path d="M 7.375 71.734375 
L 21.296875 71.734375 
L 41.890625 11.078125 
L 62.359375 71.734375 
L 76.125 71.734375 
L 76.125 0 
L 66.890625 0 
L 66.890625 42.328125 
Q 66.890625 44.53125 66.984375 49.609375 
Q 67.09375 54.6875 67.09375 60.5 
L 46.625 0 
L 37.015625 0 
L 16.40625 60.5 
L 16.40625 58.296875 
Q 16.40625 55.671875 16.53125 50.265625 
Q 16.65625 44.875 16.65625 42.328125 
L 16.65625 0 
L 7.375 0 
z
" id="Helvetica-77"/>
       <path d="M 9.8125 71.734375 
L 19.625 71.734375 
L 19.625 0 
L 9.8125 0 
z
" id="Helvetica-73"/>
      </defs>
      <use xlink:href="#Helvetica-77"/>
      <use x="83.300781" xlink:href="#Helvetica-73"/>
     </g>
    </g>
   </g>
   <g id="line2d_12">
    <path clip-path="url(#p1053e37a31)" d="M 79.914588 39.321087 
L 96.629455 39.321087 
L 97.425401 39.530242 
L 100.211212 39.504538 
L 100.609185 39.65864 
L 101.007158 39.577067 
L 101.405131 39.861005 
L 101.803104 39.919842 
L 102.201077 40.229958 
L 102.997023 40.322061 
L 103.792969 40.058375 
L 104.190942 40.335429 
L 104.588915 40.431287 
L 104.986888 40.681166 
L 105.384861 40.610965 
L 105.782834 40.845948 
L 106.180807 41.306459 
L 106.57878 41.373434 
L 106.976753 41.706919 
L 107.374726 41.851363 
L 107.772699 41.691287 
L 108.568646 42.574937 
L 108.966619 42.771232 
L 109.364592 43.261931 
L 109.762565 43.254051 
L 110.956484 43.619528 
L 111.354457 44.052638 
L 111.75243 43.90145 
L 112.150403 45.486063 
L 112.548376 45.469211 
L 112.946349 46.732009 
L 113.344322 49.747927 
L 113.742295 50.126442 
L 114.140268 51.114243 
L 114.538241 51.357592 
L 114.936214 51.842668 
L 115.334187 51.824773 
L 115.73216 51.92835 
L 116.130133 54.538105 
L 116.528106 58.509298 
L 116.926079 59.34595 
L 117.324052 64.325392 
L 117.722025 66.599325 
L 118.119998 67.851881 
L 118.517971 66.079663 
L 118.915944 77.436243 
L 119.313917 73.288411 
L 119.71189 72.578177 
L 120.109863 79.119085 
L 120.507836 77.777247 
L 120.905809 89.535625 
L 121.303782 81.457405 
L 121.701755 85.871362 
L 122.099728 93.731444 
L 122.497701 94.738507 
L 122.895674 109.962559 
L 123.293647 108.342534 
L 123.69162 114.939295 
L 124.487566 121.124604 
L 125.283512 132.163198 
L 125.681485 135.439428 
L 126.477431 144.34127 
L 126.875404 153.781335 
L 127.273377 156.80725 
L 128.069323 168.481033 
L 128.467297 165.675251 
L 128.86527 173.541913 
L 129.263243 184.528411 
L 129.661216 187.486489 
L 130.059189 195.678291 
L 130.457162 197.420893 
L 130.855135 204.388548 
L 131.253108 208.414078 
L 132.049054 211.653605 
L 132.447027 214.601566 
L 132.845 215.787644 
L 133.242973 222.595635 
L 133.640946 221.615001 
L 134.038919 222.876871 
L 134.436892 226.714429 
L 134.834865 224.218961 
L 135.232838 227.672627 
L 135.630811 232.165332 
L 136.028784 230.708728 
L 136.426757 230.832184 
L 136.82473 232.553184 
L 137.222703 230.340416 
L 137.620676 229.755867 
L 138.416622 231.808053 
L 138.814595 234.574445 
L 139.212568 233.197743 
L 139.610541 235.704917 
L 140.008514 234.735924 
L 140.406487 236.036396 
L 140.80446 236.141415 
L 141.202433 237.088215 
L 141.600406 237.364194 
L 141.998379 238.950588 
L 142.396352 238.383144 
L 142.794325 237.479241 
L 143.192298 236.209746 
L 143.590271 237.041656 
L 143.988244 236.285524 
L 144.386217 236.025634 
L 145.182163 239.118958 
L 145.580136 239.425944 
L 145.978109 238.164293 
L 146.376082 238.085302 
L 146.774055 237.262041 
L 147.172028 238.548167 
L 147.570001 236.798449 
L 147.967975 238.473356 
L 148.365948 236.382183 
L 148.763921 237.413185 
L 149.161894 237.222395 
L 149.559867 239.148989 
L 149.95784 239.429118 
L 150.355813 239.511207 
L 150.753786 239.045501 
L 151.151759 239.111809 
L 151.947705 238.824311 
L 152.743651 238.354766 
L 153.141624 237.471757 
L 153.539597 238.39691 
L 153.93757 237.663975 
L 154.733516 237.969303 
L 155.131489 237.91942 
L 155.529462 238.069954 
L 155.927435 237.644698 
L 156.325408 237.429914 
L 156.723381 238.281305 
L 157.121354 238.081983 
L 157.519327 237.328813 
L 157.9173 237.275158 
L 158.315273 237.47345 
L 158.713246 237.038501 
L 159.111219 238.007565 
L 159.509192 238.524138 
L 159.907165 238.849949 
L 160.305138 238.463918 
L 160.703111 238.608742 
L 161.101084 238.054281 
L 161.89703 237.939909 
L 162.295003 237.959166 
L 162.692976 239.351912 
L 163.090949 239.693378 
L 163.488922 239.264078 
L 163.886895 239.365229 
L 164.284868 239.206654 
L 165.080814 239.757987 
L 167.070679 237.866595 
L 167.468652 238.825177 
L 167.866626 239.111011 
L 168.264599 238.556228 
L 168.662572 238.652647 
L 169.060545 239.220419 
L 169.458518 238.442083 
L 169.856491 238.535422 
L 170.254464 239.177841 
L 170.652437 238.16913 
L 171.05041 238.393314 
L 171.448383 239.100571 
L 171.846356 238.301151 
L 172.642302 239.24425 
L 173.040275 239.364304 
L 173.438248 238.473297 
L 174.234194 238.512703 
L 175.428113 239.69037 
L 175.826086 238.71123 
L 176.224059 238.691002 
L 177.020005 239.437539 
L 177.417978 239.009372 
L 178.213924 239.716664 
L 178.611897 240.501928 
L 179.00987 240.204592 
L 179.407843 240.481452 
L 179.805816 239.931091 
L 180.203789 240.894908 
L 180.999735 240.58162 
L 181.397708 240.132901 
L 181.795681 240.89803 
L 182.193654 240.230961 
L 182.591627 240.273549 
L 182.9896 239.95105 
L 183.387573 240.156274 
L 183.785546 241.134248 
L 184.581492 240.012139 
L 184.979465 240.588975 
L 185.377438 240.188382 
L 185.775411 240.707688 
L 186.173384 240.195784 
L 186.571357 240.19627 
L 186.96933 240.408357 
L 187.367303 239.925065 
L 188.16325 240.309493 
L 188.561223 239.947296 
L 188.959196 239.758158 
L 189.357169 240.082841 
L 190.153115 240.012069 
L 190.551088 240.388993 
L 190.949061 240.348354 
L 191.347034 240.435792 
L 191.745007 239.93623 
L 192.540953 240.739125 
L 192.938926 240.6228 
L 193.336899 240.082892 
L 193.734872 240.738731 
L 194.132845 240.462519 
L 194.530818 241.186494 
L 194.928791 240.595942 
L 195.326764 241.245774 
L 196.12271 240.966755 
L 196.520683 240.740376 
L 196.918656 241.817759 
L 197.316629 241.596055 
L 198.112575 240.915176 
L 198.510548 241.728148 
L 198.908521 241.399205 
L 199.306494 241.792378 
L 199.704467 241.170946 
L 200.500413 241.300851 
L 200.898386 241.109496 
L 201.296359 241.48715 
L 201.694332 240.952301 
L 202.092305 241.283517 
L 202.490278 241.187685 
L 202.888251 240.964186 
L 203.286224 241.182228 
L 203.684197 240.940596 
L 204.08217 241.000602 
L 204.480143 241.689423 
L 204.878116 241.237785 
L 205.674062 240.945878 
L 206.072035 241.278464 
L 206.470008 240.972439 
L 207.265954 240.900201 
L 208.061901 241.308053 
L 208.857847 241.018553 
L 209.25582 241.121862 
L 209.653793 240.944086 
L 210.051766 241.661427 
L 210.449739 241.29045 
L 210.847712 241.364639 
L 211.245685 242.026489 
L 211.643658 241.670126 
L 212.041631 241.99978 
L 213.23555 241.816818 
L 213.633523 241.95199 
L 214.429469 241.519173 
L 214.827442 241.485773 
L 215.623388 242.502164 
L 216.021361 242.593856 
L 216.419334 242.112344 
L 216.817307 242.501808 
L 217.21528 242.671266 
L 218.011226 242.264437 
L 218.409199 242.366633 
L 218.807172 242.18123 
L 219.205145 242.38015 
L 219.603118 242.159377 
L 220.399064 242.318051 
L 220.797037 241.826526 
L 221.19501 242.427984 
L 221.592983 242.567737 
L 221.990956 242.040579 
L 222.388929 241.807261 
L 222.786902 242.223705 
L 223.582848 242.466897 
L 224.378794 242.271065 
L 224.776767 242.464698 
L 225.17474 241.972904 
L 225.572713 242.769137 
L 225.970686 243.004171 
L 226.368659 242.806939 
L 226.766632 242.80892 
L 227.164605 242.393966 
L 227.562579 242.283915 
L 227.960552 242.760052 
L 228.358525 242.493653 
L 229.154471 242.899743 
L 229.552444 242.731947 
L 229.950417 242.972775 
L 230.34839 242.968167 
L 230.746363 242.606109 
L 231.542309 242.5486 
L 231.940282 242.915083 
L 232.338255 243.041591 
L 232.736228 242.649732 
L 233.134201 243.098416 
L 233.532174 242.796308 
L 233.930147 242.987931 
L 234.32812 242.820711 
L 234.726093 242.983506 
L 235.124066 242.445263 
L 235.522039 242.724616 
L 236.715958 242.397393 
L 237.113931 242.485687 
L 237.511904 242.358889 
L 237.909877 242.365863 
L 238.705823 242.130875 
L 239.103796 242.467652 
L 239.501769 242.592155 
L 239.899742 243.045758 
L 240.695688 243.01215 
L 241.093661 242.832043 
L 241.491634 243.103898 
L 241.889607 242.689335 
L 242.28758 242.74719 
L 242.685553 242.650749 
L 243.083526 243.040322 
L 243.481499 243.056106 
L 243.879472 243.252371 
L 245.073391 242.784801 
L 245.869337 243.273886 
L 246.26731 242.430483 
L 246.665283 242.571353 
L 247.063257 243.124814 
L 247.46123 243.165613 
L 247.859203 243.364779 
L 248.257176 243.322276 
L 248.655149 243.0674 
L 249.053122 243.161881 
L 249.451095 243.497152 
L 250.247041 243.753835 
L 250.645014 243.393266 
L 251.042987 243.705529 
L 251.44096 243.388352 
L 252.236906 243.7844 
L 252.634879 243.23962 
L 253.032852 243.897209 
L 253.430825 243.485817 
L 253.828798 243.746967 
L 254.226771 243.575058 
L 254.624744 243.716622 
L 255.42069 243.395247 
L 255.818663 243.447264 
L 256.216636 243.905343 
L 256.614609 244.129131 
L 257.012582 244.171541 
L 257.808528 244.019751 
L 258.604474 243.467527 
L 259.002447 243.753369 
L 259.40042 243.573731 
L 259.798393 244.079283 
L 260.594339 243.700619 
L 260.992312 243.992389 
L 261.390285 243.921957 
L 261.788258 243.681567 
L 262.186231 243.864908 
L 262.584204 243.703355 
L 262.982177 243.903071 
L 263.38015 243.651131 
L 263.778123 243.69175 
L 264.176096 243.871425 
L 264.574069 243.729552 
L 264.972042 244.224005 
L 265.370015 243.785018 
L 265.767988 243.850573 
L 266.165961 243.693918 
L 266.961908 244.156008 
L 267.359881 243.845247 
L 267.757854 244.1879 
L 268.155827 244.00035 
L 268.5538 244.002468 
L 268.951773 244.207833 
L 269.349746 243.906644 
L 269.747719 243.953771 
L 270.145692 244.394261 
L 270.543665 244.036424 
L 270.941638 244.240294 
L 271.339611 244.15049 
L 271.737584 243.926988 
L 272.931503 243.86721 
L 273.329476 244.233661 
L 274.125422 244.014646 
L 274.523395 244.135997 
L 274.921368 243.895456 
L 275.319341 244.288996 
L 275.717314 243.937964 
L 276.115287 244.267076 
L 276.51326 244.421856 
L 276.911233 243.991034 
L 277.309206 244.023691 
L 277.707179 244.419001 
L 278.105152 244.391653 
L 278.503125 244.158164 
L 278.901098 244.145732 
L 279.299071 243.858471 
L 280.095017 244.252904 
L 280.49299 243.9093 
L 280.890963 243.766356 
L 281.288936 244.069612 
L 281.686909 243.74833 
L 282.084882 244.365061 
L 282.482855 244.398934 
L 282.880828 243.9776 
L 283.676774 244.096739 
L 284.074747 243.81691 
L 284.47272 243.967467 
L 284.870693 243.659624 
L 285.268666 243.769005 
L 285.666639 244.100999 
L 286.064612 243.669432 
L 286.462585 244.030807 
L 286.860559 243.658851 
L 287.258532 244.01105 
L 288.054478 243.956954 
L 288.452451 244.255148 
L 288.850424 243.726216 
L 289.248397 243.971104 
L 289.64637 243.903602 
L 290.044343 243.698312 
L 290.442316 243.877996 
L 290.840289 243.563763 
L 291.238262 243.733106 
L 291.636235 243.703578 
L 292.034208 243.345124 
L 292.432181 243.301996 
L 292.830154 243.688911 
L 293.228127 243.197066 
L 294.024073 243.773058 
L 294.422046 243.412092 
L 295.217992 243.637727 
L 295.615965 243.564836 
L 296.013938 243.725195 
L 298.003803 243.650877 
L 298.401776 243.833941 
L 298.799749 243.591998 
L 299.993668 243.567961 
L 300.789614 243.643067 
L 301.187587 243.320533 
L 301.58556 243.742103 
L 302.381506 243.75132 
L 302.779479 243.55119 
L 303.177452 243.673999 
L 303.575425 243.546664 
L 303.973398 243.82554 
L 304.371371 243.720567 
L 304.769344 243.880597 
L 305.167317 244.165651 
L 305.56529 243.91215 
L 305.963263 244.174148 
L 306.361236 244.301499 
L 306.75921 244.032835 
L 307.157183 244.227807 
L 308.351102 244.061749 
L 308.749075 244.394293 
L 309.147048 244.04252 
L 309.545021 244.46529 
L 309.942994 244.271062 
L 310.340967 244.272312 
L 310.73894 244.661116 
L 311.136913 244.265215 
L 311.534886 244.309694 
L 311.932859 244.544617 
L 312.728805 244.617315 
L 313.524751 244.500761 
L 314.320697 244.403168 
L 315.116643 244.765865 
L 315.514616 244.466415 
L 315.912589 244.35331 
L 316.708535 244.612511 
L 317.106508 244.433267 
L 318.300427 244.539297 
L 318.6984 244.22007 
L 319.096373 244.347369 
L 319.494346 244.173019 
L 320.290292 244.370533 
L 320.688265 244.219267 
L 321.086238 244.310063 
L 321.484211 244.091728 
L 321.882184 244.35916 
L 322.280157 243.950185 
L 322.67813 244.265373 
L 323.076103 244.435538 
L 323.474076 244.395182 
L 323.872049 244.809957 
L 324.270022 244.645026 
L 324.667995 244.657958 
L 325.065968 244.436921 
L 325.463941 244.664031 
L 326.259887 244.773477 
L 326.657861 245.099303 
L 327.055834 245.205497 
L 327.85178 245.042432 
L 328.249753 245.203883 
L 328.647726 244.86367 
L 329.443672 245.237534 
L 329.841645 245.049216 
L 330.239618 245.104324 
L 330.637591 245.012303 
L 331.035564 245.232641 
L 331.433537 245.134301 
L 331.83151 245.308084 
L 333.025429 245.347833 
L 333.423402 245.586967 
L 333.821375 245.025138 
L 334.617321 245.23387 
L 335.015294 244.985904 
L 335.413267 245.516757 
L 335.81124 245.240446 
L 336.607186 245.472199 
L 337.005159 245.137538 
L 337.403132 245.350243 
L 338.597051 245.29224 
L 338.995024 245.500388 
L 339.392997 245.074732 
L 339.79097 245.521533 
L 340.188943 245.321734 
L 340.586916 245.515739 
L 341.382862 245.274587 
L 341.780835 245.292733 
L 342.178808 245.464049 
L 342.576781 245.213382 
L 343.372727 245.758408 
L 344.168673 245.423599 
L 344.566646 245.65311 
L 344.964619 245.588781 
L 345.760565 245.876638 
L 346.158539 245.661366 
L 346.556512 245.77993 
L 346.954485 245.768038 
L 347.352458 245.606452 
L 347.750431 245.754717 
L 348.148404 245.603626 
L 349.342323 245.733445 
L 349.740296 245.967878 
L 350.138269 245.780209 
L 350.934215 245.879398 
L 351.332188 245.620441 
L 351.730161 245.623842 
L 352.128134 245.866401 
L 356.107864 245.5651 
L 356.90381 245.928344 
L 357.301783 245.722889 
L 357.699756 245.838516 
L 358.097729 246.11157 
L 358.495702 245.610839 
L 358.893675 245.783036 
L 359.689621 245.743177 
L 360.087594 245.859423 
L 360.88354 245.533768 
L 361.281513 245.739129 
L 362.077459 245.448705 
L 362.475432 245.590644 
L 362.873405 245.369531 
L 363.271378 245.612886 
L 363.669351 245.38022 
L 365.261243 245.386521 
L 365.659216 245.169141 
L 366.05719 245.297576 
L 367.251109 245.112116 
L 368.047055 245.47427 
L 369.240974 245.2427 
L 369.638947 244.916094 
L 370.03692 245.003664 
L 370.434893 245.375501 
L 371.230839 245.340839 
L 372.026785 245.637628 
L 372.424758 245.68357 
L 372.822731 245.194265 
L 373.220704 245.383043 
L 373.618677 245.217241 
L 374.01665 245.25261 
L 374.414623 245.433196 
L 375.210569 245.441258 
L 375.608542 245.140755 
L 376.006515 245.191708 
L 376.802461 245.60753 
L 377.598407 245.404242 
L 377.99638 245.629308 
L 378.394353 245.724969 
L 378.792326 245.411134 
L 379.588272 245.409404 
L 379.986245 245.330837 
L 380.384218 245.550229 
L 380.782191 245.507283 
L 381.180164 245.636086 
L 381.578137 245.372716 
L 382.374083 245.196515 
L 383.568002 245.619604 
L 383.965975 245.438448 
L 385.557867 245.682932 
L 385.955841 245.358997 
L 386.353814 245.630569 
L 386.751787 245.539987 
L 387.14976 245.249605 
L 387.945706 245.476103 
L 388.343679 245.266623 
L 389.139625 245.216645 
L 390.731517 245.212793 
L 391.12949 245.385886 
L 391.925436 245.238198 
L 392.323409 245.361832 
L 392.721382 245.239321 
L 393.119355 245.474619 
L 393.517328 245.360118 
L 393.915301 245.368968 
L 394.313274 245.069576 
L 394.711247 245.258325 
L 395.905166 245.282164 
L 396.303139 245.109925 
L 396.701112 245.13417 
L 397.099085 245.042179 
L 397.497058 245.085959 
L 397.895031 245.304277 
L 398.293004 245.191755 
L 398.690977 245.278717 
L 399.08895 245.053172 
L 399.884896 245.108957 
L 400.282869 245.150112 
L 400.680842 245.330108 
L 401.078815 245.196716 
L 401.874761 245.53595 
L 402.272734 245.504451 
L 402.670707 245.357502 
L 403.06868 245.58817 
L 403.466653 245.543364 
L 403.864626 245.646645 
L 404.262599 245.593789 
L 404.262599 245.593789 
" style="fill:none;stroke:#1f77b4;stroke-linecap:square;"/>
   </g>
   <g id="patch_3">
    <path d="M 63.697188 256.451094 
L 63.697188 28.981562 
" style="fill:none;stroke:#000000;stroke-linecap:square;stroke-linejoin:miter;stroke-width:0.8;"/>
   </g>
   <g id="patch_4">
    <path d="M 420.48 256.451094 
L 420.48 28.981562 
" style="fill:none;stroke:#000000;stroke-linecap:square;stroke-linejoin:miter;stroke-width:0.8;"/>
   </g>
   <g id="patch_5">
    <path d="M 63.697188 256.451094 
L 420.48 256.451094 
" style="fill:none;stroke:#000000;stroke-linecap:square;stroke-linejoin:miter;stroke-width:0.8;"/>
   </g>
   <g id="patch_6">
    <path d="M 63.697188 28.981563 
L 420.48 28.981563 
" style="fill:none;stroke:#000000;stroke-linecap:square;stroke-linejoin:miter;stroke-width:0.8;"/>
   </g>
   <g id="text_14">
    <!-- N = 708, $W$ -->
    <g transform="translate(186.758594 22.981562)scale(0.22 -0.22)">
     <defs>
      <path d="M 55.421875 40.140625 
L 55.421875 31.9375 
L 4.5 31.9375 
L 4.5 40.140625 
z
M 55.421875 19.1875 
L 55.421875 10.84375 
L 4.5 10.84375 
L 4.5 19.1875 
z
" id="Helvetica-61"/>
      <path d="M 52.296875 68.75 
L 52.296875 61.078125 
Q 48.921875 57.8125 43.328125 49.703125 
Q 37.75 41.609375 33.453125 32.234375 
Q 29.203125 23.09375 27 15.578125 
Q 25.59375 10.75 23.34375 0 
L 13.625 0 
Q 16.9375 20.015625 28.265625 39.84375 
Q 34.96875 51.46875 42.328125 59.90625 
L 3.65625 59.90625 
L 3.65625 68.75 
z
" id="Helvetica-55"/>
      <path d="M 8.296875 -10.203125 
Q 11.671875 -9.625 13.03125 -5.46875 
Q 13.765625 -3.265625 13.765625 -1.21875 
Q 13.765625 -0.875 13.734375 -0.609375 
Q 13.71875 -0.34375 13.625 0 
L 8.296875 0 
L 8.296875 10.640625 
L 18.75 10.640625 
L 18.75 0.78125 
Q 18.75 -5.03125 16.40625 -9.421875 
Q 14.0625 -13.8125 8.296875 -14.84375 
z
" id="Helvetica-44"/>
      <path d="M 17.828125 -1.125 
L 13.1875 62.59375 
Q 12.84375 64.0625 10.984375 64.421875 
Q 9.125 64.796875 6.390625 64.796875 
Q 5.421875 64.796875 5.421875 66.109375 
Q 5.765625 67.390625 5.953125 67.84375 
Q 6.15625 68.3125 7.078125 68.3125 
L 30.90625 68.3125 
Q 31.890625 68.3125 31.890625 67 
Q 31.5 64.796875 30.609375 64.796875 
Q 22.609375 64.796875 22.125 62.015625 
L 25.6875 11.53125 
L 50.6875 55.078125 
L 50.203125 62.59375 
Q 49.859375 64.0625 48 64.421875 
Q 46.140625 64.796875 43.40625 64.796875 
Q 42.390625 64.796875 42.390625 66.109375 
Q 42.71875 67.390625 42.90625 67.84375 
Q 43.109375 68.3125 44.09375 68.3125 
L 67.921875 68.3125 
Q 68.890625 68.3125 68.890625 67 
Q 68.84375 66.75 68.703125 66.15625 
Q 68.5625 65.578125 68.3125 65.1875 
Q 68.0625 64.796875 67.578125 64.796875 
Q 59.515625 64.796875 59.078125 62.015625 
L 59.078125 61.28125 
L 62.703125 11.53125 
L 89.890625 58.984375 
Q 90.484375 60.0625 90.484375 61.078125 
Q 90.484375 63.140625 88.46875 63.96875 
Q 86.46875 64.796875 83.984375 64.796875 
Q 83.015625 64.796875 83.015625 66.109375 
Q 83.203125 66.890625 83.328125 67.328125 
Q 83.453125 67.78125 83.765625 68.046875 
Q 84.078125 68.3125 84.71875 68.3125 
L 103.8125 68.3125 
Q 104.78125 68.3125 104.78125 67 
Q 104.734375 66.75 104.578125 66.140625 
Q 104.4375 65.53125 104.171875 65.15625 
Q 103.90625 64.796875 103.515625 64.796875 
Q 96.390625 64.796875 92.671875 58.296875 
Q 92.390625 58.015625 92.390625 58.015625 
L 58.5 -1.125 
Q 57.953125 -2.203125 56.78125 -2.203125 
L 56 -2.203125 
Q 54.78125 -2.203125 54.78125 -1.125 
L 50.984375 50.390625 
L 21.578125 -1.125 
Q 20.84375 -2.203125 19.828125 -2.203125 
L 19 -2.203125 
Q 17.828125 -2.203125 17.828125 -1.125 
z
" id="Cmmi10-87"/>
     </defs>
     <use transform="translate(0 0.265625)" xlink:href="#Helvetica-78"/>
     <use transform="translate(72.216797 0.265625)" xlink:href="#Helvetica-32"/>
     <use transform="translate(100 0.265625)" xlink:href="#Helvetica-61"/>
     <use transform="translate(158.398438 0.265625)" xlink:href="#Helvetica-32"/>
     <use transform="translate(186.181641 0.265625)" xlink:href="#Helvetica-55"/>
     <use transform="translate(241.796875 0.265625)" xlink:href="#Helvetica-48"/>
     <use transform="translate(297.412109 0.265625)" xlink:href="#Helvetica-56"/>
     <use transform="translate(353.027344 0.265625)" xlink:href="#Helvetica-44"/>
     <use transform="translate(380.810547 0.265625)" xlink:href="#Helvetica-32"/>
     <use transform="translate(408.59375 0.265625)" xlink:href="#Cmmi10-87"/>
    </g>
   </g>
   <g id="legend_1">
    <g id="patch_7">
     <path d="M 192.958125 73.700312 
L 406.48 73.700312 
Q 410.48 73.700312 410.48 69.700312 
L 410.48 42.981562 
Q 410.48 38.981562 406.48 38.981562 
L 192.958125 38.981562 
Q 188.958125 38.981562 188.958125 42.981562 
L 188.958125 69.700312 
Q 188.958125 73.700312 192.958125 73.700312 
z
" style="fill:#ffffff;opacity:0.8;stroke:#cccccc;stroke-linejoin:miter;"/>
    </g>
    <g id="line2d_13">
     <path d="M 196.958125 54.531563 
L 236.958125 54.531563 
" style="fill:none;stroke:#1f77b4;stroke-linecap:square;"/>
    </g>
    <g id="line2d_14"/>
    <g id="text_15">
     <!-- final, corrupt=0.0 -->
     <g transform="translate(252.958125 61.531563)scale(0.2 -0.2)">
      <defs>
       <path d="M 6.453125 52.046875 
L 15.375 52.046875 
L 15.375 0 
L 6.453125 0 
z
M 6.453125 71.734375 
L 15.375 71.734375 
L 15.375 61.765625 
L 6.453125 61.765625 
z
" id="Helvetica-105"/>
       <path d="M 6.6875 71.734375 
L 15.484375 71.734375 
L 15.484375 0 
L 6.6875 0 
z
" id="Helvetica-108"/>
       <path d="M 26.609375 53.8125 
Q 35.453125 53.8125 40.984375 49.515625 
Q 46.53125 45.21875 47.65625 34.71875 
L 39.109375 34.71875 
Q 38.328125 39.546875 35.546875 42.75 
Q 32.765625 45.953125 26.609375 45.953125 
Q 18.21875 45.953125 14.59375 37.75 
Q 12.25 32.421875 12.25 24.609375 
Q 12.25 16.75 15.5625 11.375 
Q 18.890625 6 26.03125 6 
Q 31.5 6 34.6875 9.34375 
Q 37.890625 12.703125 39.109375 18.5 
L 47.65625 18.5 
Q 46.1875 8.109375 40.328125 3.296875 
Q 34.46875 -1.515625 25.34375 -1.515625 
Q 15.09375 -1.515625 8.984375 5.984375 
Q 2.875 13.484375 2.875 24.703125 
Q 2.875 38.484375 9.5625 46.140625 
Q 16.265625 53.8125 26.609375 53.8125 
z
M 25.25 53.5625 
z
" id="Helvetica-99"/>
      </defs>
      <use xlink:href="#Helvetica-102"/>
      <use x="27.783203" xlink:href="#Helvetica-105"/>
      <use x="50" xlink:href="#Helvetica-110"/>
      <use x="105.615234" xlink:href="#Helvetica-97"/>
      <use x="161.230469" xlink:href="#Helvetica-108"/>
      <use x="183.447266" xlink:href="#Helvetica-44"/>
      <use x="211.230469" xlink:href="#Helvetica-32"/>
      <use x="239.013672" xlink:href="#Helvetica-99"/>
      <use x="289.013672" xlink:href="#Helvetica-111"/>
      <use x="344.628906" xlink:href="#Helvetica-114"/>
      <use x="377.929688" xlink:href="#Helvetica-114"/>
      <use x="411.230469" xlink:href="#Helvetica-117"/>
      <use x="466.845703" xlink:href="#Helvetica-112"/>
      <use x="522.460938" xlink:href="#Helvetica-116"/>
      <use x="550.244141" xlink:href="#Helvetica-61"/>
      <use x="608.642578" xlink:href="#Helvetica-48"/>
      <use x="664.257812" xlink:href="#Helvetica-46"/>
      <use x="692.041016" xlink:href="#Helvetica-48"/>
     </g>
    </g>
   </g>
  </g>
 </g>
 <defs>
  <clipPath id="p1053e37a31">
   <rect height="227.469531" width="356.782812" x="63.697188" y="28.981562"/>
  </clipPath>
 </defs>
</svg>
