<?xml version="1.0" encoding="utf-8" standalone="no"?>
<!DOCTYPE svg PUBLIC "-//W3C//DTD SVG 1.1//EN"
  "http://www.w3.org/Graphics/SVG/1.1/DTD/svg11.dtd">
<!-- Created with matplotlib (https://matplotlib.org/) -->
<svg height="312.48pt" version="1.1" viewBox="0 0 427.68 312.48" width="427.68pt" xmlns="http://www.w3.org/2000/svg" xmlns:xlink="http://www.w3.org/1999/xlink">
 <metadata>
  <rdf:RDF xmlns:cc="http://creativecommons.org/ns#" xmlns:dc="http://purl.org/dc/elements/1.1/" xmlns:rdf="http://www.w3.org/1999/02/22-rdf-syntax-ns#">
   <cc:Work>
    <dc:type rdf:resource="http://purl.org/dc/dcmitype/StillImage"/>
    <dc:date>2021-12-31T00:39:30.057723</dc:date>
    <dc:format>image/svg+xml</dc:format>
    <dc:creator>
     <cc:Agent>
      <dc:title>Matplotlib v3.3.4, https://matplotlib.org/</dc:title>
     </cc:Agent>
    </dc:creator>
   </cc:Work>
  </rdf:RDF>
 </metadata>
 <defs>
  <style type="text/css">*{stroke-linecap:butt;stroke-linejoin:round;}</style>
 </defs>
 <g id="figure_1">
  <g id="patch_1">
   <path d="M 0 312.48 
L 427.68 312.48 
L 427.68 0 
L 0 0 
z
" style="fill:#ffffff;"/>
  </g>
  <g id="axes_1">
   <g id="patch_2">
    <path d="M 63.697188 256.451094 
L 420.48 256.451094 
L 420.48 28.981563 
L 63.697188 28.981563 
z
" style="fill:#ffffff;"/>
   </g>
   <g id="matplotlib.axis_1">
    <g id="xtick_1">
     <g id="line2d_1">
      <defs>
       <path d="M 0 0 
L 0 5 
" id="m9b97451719" style="stroke:#000000;"/>
      </defs>
      <g>
       <use style="stroke:#000000;" x="79.516615" xlink:href="#m9b97451719" y="256.451094"/>
      </g>
     </g>
     <g id="text_1">
      <!-- 0 -->
      <g transform="translate(74.789818 277.145937)scale(0.17 -0.17)">
       <defs>
        <path d="M 27.046875 69.921875 
Q 40.625 69.921875 46.6875 58.734375 
Q 51.375 50.09375 51.375 35.0625 
Q 51.375 20.796875 47.125 11.46875 
Q 40.96875 -1.90625 27 -1.90625 
Q 14.40625 -1.90625 8.25 9.03125 
Q 3.125 18.171875 3.125 33.546875 
Q 3.125 45.453125 6.203125 54 
Q 11.96875 69.921875 27.046875 69.921875 
z
M 26.953125 6.109375 
Q 33.796875 6.109375 37.84375 12.15625 
Q 41.890625 18.21875 41.890625 34.71875 
Q 41.890625 46.625 38.953125 54.3125 
Q 36.03125 62.015625 27.59375 62.015625 
Q 19.828125 62.015625 16.234375 54.703125 
Q 12.640625 47.40625 12.640625 33.203125 
Q 12.640625 22.515625 14.9375 16.015625 
Q 18.453125 6.109375 26.953125 6.109375 
z
" id="Helvetica-48"/>
       </defs>
       <use xlink:href="#Helvetica-48"/>
      </g>
     </g>
    </g>
    <g id="xtick_2">
     <g id="line2d_2">
      <g>
       <use style="stroke:#000000;" x="159.111219" xlink:href="#m9b97451719" y="256.451094"/>
      </g>
     </g>
     <g id="text_2">
      <!-- 200 -->
      <g transform="translate(144.930828 277.145937)scale(0.17 -0.17)">
       <defs>
        <path d="M 3.125 0 
Q 3.609375 9.03125 6.859375 15.71875 
Q 10.109375 22.40625 19.53125 27.875 
L 28.90625 33.296875 
Q 35.203125 36.96875 37.75 39.546875 
Q 41.75 43.609375 41.75 48.828125 
Q 41.75 54.9375 38.078125 58.515625 
Q 34.421875 62.109375 28.328125 62.109375 
Q 19.28125 62.109375 15.828125 55.28125 
Q 13.96875 51.609375 13.765625 45.125 
L 4.828125 45.125 
Q 4.984375 54.25 8.203125 60.015625 
Q 13.921875 70.171875 28.375 70.171875 
Q 40.375 70.171875 45.921875 63.671875 
Q 51.46875 57.171875 51.46875 49.21875 
Q 51.46875 40.828125 45.5625 34.859375 
Q 42.140625 31.390625 33.296875 26.46875 
L 26.609375 22.75 
Q 21.828125 20.125 19.09375 17.71875 
Q 14.203125 13.484375 12.9375 8.296875 
L 51.125 8.296875 
L 51.125 0 
L 3.125 0 
z
" id="Helvetica-50"/>
       </defs>
       <use xlink:href="#Helvetica-50"/>
       <use x="55.615234" xlink:href="#Helvetica-48"/>
       <use x="111.230469" xlink:href="#Helvetica-48"/>
      </g>
     </g>
    </g>
    <g id="xtick_3">
     <g id="line2d_3">
      <g>
       <use style="stroke:#000000;" x="238.705823" xlink:href="#m9b97451719" y="256.451094"/>
      </g>
     </g>
     <g id="text_3">
      <!-- 400 -->
      <g transform="translate(224.525432 277.145937)scale(0.17 -0.17)">
       <defs>
        <path d="M 33.0625 24.75 
L 33.0625 56.453125 
L 10.640625 24.75 
z
M 33.203125 0 
L 33.203125 17.09375 
L 2.546875 17.09375 
L 2.546875 25.6875 
L 34.578125 70.125 
L 42 70.125 
L 42 24.75 
L 52.296875 24.75 
L 52.296875 17.09375 
L 42 17.09375 
L 42 0 
z
" id="Helvetica-52"/>
       </defs>
       <use xlink:href="#Helvetica-52"/>
       <use x="55.615234" xlink:href="#Helvetica-48"/>
       <use x="111.230469" xlink:href="#Helvetica-48"/>
      </g>
     </g>
    </g>
    <g id="xtick_4">
     <g id="line2d_4">
      <g>
       <use style="stroke:#000000;" x="318.300427" xlink:href="#m9b97451719" y="256.451094"/>
      </g>
     </g>
     <g id="text_4">
      <!-- 600 -->
      <g transform="translate(304.120036 277.145937)scale(0.17 -0.17)">
       <defs>
        <path d="M 29.25 70.21875 
Q 40.96875 70.21875 45.578125 64.140625 
Q 50.203125 58.0625 50.203125 51.609375 
L 41.5 51.609375 
Q 40.71875 55.765625 39.015625 58.109375 
Q 35.84375 62.5 29.390625 62.5 
Q 22.015625 62.5 17.671875 55.6875 
Q 13.328125 48.875 12.84375 36.1875 
Q 15.875 40.625 20.453125 42.828125 
Q 24.65625 44.78125 29.828125 44.78125 
Q 38.625 44.78125 45.15625 39.15625 
Q 51.703125 33.546875 51.703125 22.40625 
Q 51.703125 12.890625 45.5 5.53125 
Q 39.3125 -1.8125 27.828125 -1.8125 
Q 18.015625 -1.8125 10.890625 5.640625 
Q 3.765625 13.09375 3.765625 30.71875 
Q 3.765625 43.75 6.9375 52.828125 
Q 13.03125 70.21875 29.25 70.21875 
z
M 28.609375 6 
Q 35.546875 6 38.984375 10.65625 
Q 42.4375 15.328125 42.4375 21.6875 
Q 42.4375 27.046875 39.359375 31.90625 
Q 36.28125 36.765625 28.171875 36.765625 
Q 22.515625 36.765625 18.234375 33 
Q 13.96875 29.25 13.96875 21.6875 
Q 13.96875 15.046875 17.84375 10.515625 
Q 21.734375 6 28.609375 6 
z
" id="Helvetica-54"/>
       </defs>
       <use xlink:href="#Helvetica-54"/>
       <use x="55.615234" xlink:href="#Helvetica-48"/>
       <use x="111.230469" xlink:href="#Helvetica-48"/>
      </g>
     </g>
    </g>
    <g id="xtick_5">
     <g id="line2d_5">
      <g>
       <use style="stroke:#000000;" x="397.895031" xlink:href="#m9b97451719" y="256.451094"/>
      </g>
     </g>
     <g id="text_5">
      <!-- 800 -->
      <g transform="translate(383.71464 277.145937)scale(0.17 -0.17)">
       <defs>
        <path d="M 27.203125 40.625 
Q 33.015625 40.625 36.28125 43.875 
Q 39.546875 47.125 39.546875 51.609375 
Q 39.546875 55.515625 36.421875 58.78125 
Q 33.296875 62.0625 26.90625 62.0625 
Q 20.5625 62.0625 17.71875 58.78125 
Q 14.890625 55.515625 14.890625 51.125 
Q 14.890625 46.1875 18.546875 43.40625 
Q 22.21875 40.625 27.203125 40.625 
z
M 27.734375 6 
Q 33.84375 6 37.859375 9.296875 
Q 41.890625 12.59375 41.890625 19.140625 
Q 41.890625 25.921875 37.734375 29.4375 
Q 33.59375 32.953125 27.09375 32.953125 
Q 20.796875 32.953125 16.8125 29.359375 
Q 12.84375 25.78125 12.84375 19.4375 
Q 12.84375 13.96875 16.484375 9.984375 
Q 20.125 6 27.734375 6 
z
M 15.234375 37.25 
Q 11.578125 38.8125 9.515625 40.921875 
Q 5.671875 44.828125 5.671875 51.078125 
Q 5.671875 58.890625 11.328125 64.5 
Q 17 70.125 27.390625 70.125 
Q 37.453125 70.125 43.15625 64.8125 
Q 48.875 59.515625 48.875 52.4375 
Q 48.875 45.90625 45.5625 41.84375 
Q 43.703125 39.546875 39.796875 37.359375 
Q 44.140625 35.359375 46.625 32.765625 
Q 51.265625 27.875 51.265625 20.0625 
Q 51.265625 10.84375 45.0625 4.421875 
Q 38.875 -2 27.546875 -2 
Q 17.328125 -2 10.265625 3.53125 
Q 3.21875 9.078125 3.21875 19.625 
Q 3.21875 25.828125 6.25 30.34375 
Q 9.28125 34.859375 15.234375 37.25 
z
" id="Helvetica-56"/>
       </defs>
       <use xlink:href="#Helvetica-56"/>
       <use x="55.615234" xlink:href="#Helvetica-48"/>
       <use x="111.230469" xlink:href="#Helvetica-48"/>
      </g>
     </g>
    </g>
    <g id="text_6">
     <!-- Number of patterns -->
     <g transform="translate(147.940625 300.694375)scale(0.22 -0.22)">
      <defs>
       <path d="M 7.625 71.734375 
L 19.09375 71.734375 
L 55.328125 13.625 
L 55.328125 71.734375 
L 64.546875 71.734375 
L 64.546875 0 
L 53.65625 0 
L 16.890625 58.0625 
L 16.890625 0 
L 7.625 0 
z
M 35.453125 71.734375 
z
" id="Helvetica-78"/>
       <path d="M 15.234375 52.296875 
L 15.234375 17.578125 
Q 15.234375 13.578125 16.5 11.03125 
Q 18.84375 6.34375 25.25 6.34375 
Q 34.421875 6.34375 37.75 14.546875 
Q 39.546875 18.953125 39.546875 26.609375 
L 39.546875 52.296875 
L 48.34375 52.296875 
L 48.34375 0 
L 40.046875 0 
L 40.140625 7.71875 
Q 38.421875 4.734375 35.890625 2.6875 
Q 30.859375 -1.421875 23.6875 -1.421875 
Q 12.5 -1.421875 8.453125 6.0625 
Q 6.25 10.0625 6.25 16.75 
L 6.25 52.296875 
z
M 27.296875 53.5625 
z
" id="Helvetica-117"/>
       <path d="M 6.453125 52.296875 
L 15.140625 52.296875 
L 15.140625 44.875 
Q 18.265625 48.734375 20.796875 50.484375 
Q 25.140625 53.46875 30.671875 53.46875 
Q 36.921875 53.46875 40.71875 50.390625 
Q 42.875 48.640625 44.625 45.21875 
Q 47.5625 49.421875 51.515625 51.4375 
Q 55.46875 53.46875 60.40625 53.46875 
Q 70.953125 53.46875 74.75 45.84375 
Q 76.8125 41.75 76.8125 34.8125 
L 76.8125 0 
L 67.671875 0 
L 67.671875 36.328125 
Q 67.671875 41.546875 65.0625 43.5 
Q 62.453125 45.453125 58.6875 45.453125 
Q 53.515625 45.453125 49.78125 41.984375 
Q 46.046875 38.53125 46.046875 30.421875 
L 46.046875 0 
L 37.109375 0 
L 37.109375 34.125 
Q 37.109375 39.453125 35.84375 41.890625 
Q 33.84375 45.5625 28.375 45.5625 
Q 23.390625 45.5625 19.3125 41.703125 
Q 15.234375 37.84375 15.234375 27.734375 
L 15.234375 0 
L 6.453125 0 
z
" id="Helvetica-109"/>
       <path d="M 5.765625 71.96875 
L 14.3125 71.96875 
L 14.3125 45.953125 
Q 17.1875 49.703125 21.1875 51.671875 
Q 25.203125 53.65625 29.890625 53.65625 
Q 39.65625 53.65625 45.734375 46.9375 
Q 51.8125 40.234375 51.8125 27.15625 
Q 51.8125 14.75 45.796875 6.546875 
Q 39.796875 -1.65625 29.15625 -1.65625 
Q 23.1875 -1.65625 19.09375 1.21875 
Q 16.65625 2.9375 13.875 6.6875 
L 13.875 0 
L 5.765625 0 
z
M 28.609375 6.109375 
Q 35.75 6.109375 39.28125 11.765625 
Q 42.828125 17.4375 42.828125 26.703125 
Q 42.828125 34.96875 39.28125 40.375 
Q 35.75 45.796875 28.859375 45.796875 
Q 22.859375 45.796875 18.328125 41.359375 
Q 13.8125 36.921875 13.8125 26.703125 
Q 13.8125 19.34375 15.671875 14.75 
Q 19.140625 6.109375 28.609375 6.109375 
z
" id="Helvetica-98"/>
       <path d="M 28.21875 53.46875 
Q 33.796875 53.46875 39.015625 50.859375 
Q 44.234375 48.25 46.96875 44.09375 
Q 49.609375 40.140625 50.484375 34.859375 
Q 51.265625 31.25 51.265625 23.34375 
L 12.9375 23.34375 
Q 13.1875 15.375 16.703125 10.5625 
Q 20.21875 5.765625 27.59375 5.765625 
Q 34.46875 5.765625 38.578125 10.296875 
Q 40.921875 12.9375 41.890625 16.40625 
L 50.53125 16.40625 
Q 50.203125 13.53125 48.265625 9.984375 
Q 46.34375 6.453125 43.953125 4.203125 
Q 39.9375 0.296875 34.03125 -1.078125 
Q 30.859375 -1.859375 26.859375 -1.859375 
Q 17.09375 -1.859375 10.296875 5.25 
Q 3.515625 12.359375 3.515625 25.140625 
Q 3.515625 37.75 10.34375 45.609375 
Q 17.1875 53.46875 28.21875 53.46875 
z
M 42.234375 30.328125 
Q 41.703125 36.03125 39.75 39.453125 
Q 36.140625 45.796875 27.6875 45.796875 
Q 21.625 45.796875 17.515625 41.421875 
Q 13.421875 37.0625 13.1875 30.328125 
z
M 27.390625 53.5625 
z
" id="Helvetica-101"/>
       <path d="M 6.6875 52.296875 
L 15.046875 52.296875 
L 15.046875 43.265625 
Q 16.0625 45.90625 20.0625 49.6875 
Q 24.078125 53.46875 29.296875 53.46875 
Q 29.546875 53.46875 30.125 53.421875 
Q 30.71875 53.375 32.125 53.21875 
L 32.125 43.953125 
Q 31.34375 44.09375 30.6875 44.140625 
Q 30.03125 44.1875 29.25 44.1875 
Q 22.609375 44.1875 19.046875 39.90625 
Q 15.484375 35.640625 15.484375 30.078125 
L 15.484375 0 
L 6.6875 0 
z
" id="Helvetica-114"/>
       <path id="Helvetica-32"/>
       <path d="M 27.203125 5.671875 
Q 35.9375 5.671875 39.1875 12.28125 
Q 42.4375 18.890625 42.4375 27 
Q 42.4375 34.328125 40.09375 38.921875 
Q 36.375 46.140625 27.296875 46.140625 
Q 19.234375 46.140625 15.578125 39.984375 
Q 11.921875 33.84375 11.921875 25.140625 
Q 11.921875 16.796875 15.578125 11.234375 
Q 19.234375 5.671875 27.203125 5.671875 
z
M 27.546875 53.8125 
Q 37.640625 53.8125 44.625 47.0625 
Q 51.609375 40.328125 51.609375 27.25 
Q 51.609375 14.59375 45.453125 6.34375 
Q 39.3125 -1.90625 26.375 -1.90625 
Q 15.578125 -1.90625 9.21875 5.390625 
Q 2.875 12.703125 2.875 25 
Q 2.875 38.1875 9.5625 46 
Q 16.265625 53.8125 27.546875 53.8125 
z
M 27.25 53.5625 
z
" id="Helvetica-111"/>
       <path d="M 8.640625 60.25 
Q 8.84375 65.71875 10.546875 68.265625 
Q 13.625 72.75 22.40625 72.75 
Q 23.25 72.75 24.125 72.703125 
Q 25 72.65625 26.125 72.5625 
L 26.125 64.546875 
Q 24.75 64.65625 24.140625 64.671875 
Q 23.53125 64.703125 23 64.703125 
Q 19 64.703125 18.21875 62.625 
Q 17.4375 60.546875 17.4375 52.046875 
L 26.125 52.046875 
L 26.125 45.125 
L 17.328125 45.125 
L 17.328125 0 
L 8.640625 0 
L 8.640625 45.125 
L 1.375 45.125 
L 1.375 52.046875 
L 8.640625 52.046875 
L 8.640625 60.25 
z
" id="Helvetica-102"/>
       <path d="M 28.515625 5.90625 
Q 34.671875 5.90625 38.75 11.0625 
Q 42.828125 16.21875 42.828125 26.46875 
Q 42.828125 32.71875 41.015625 37.203125 
Q 37.59375 45.84375 28.515625 45.84375 
Q 19.390625 45.84375 16.015625 36.71875 
Q 14.203125 31.84375 14.203125 24.3125 
Q 14.203125 18.265625 16.015625 14.015625 
Q 19.4375 5.90625 28.515625 5.90625 
z
M 5.765625 52.046875 
L 14.3125 52.046875 
L 14.3125 45.125 
Q 16.9375 48.6875 20.0625 50.640625 
Q 24.515625 53.5625 30.515625 53.5625 
Q 39.40625 53.5625 45.609375 46.75 
Q 51.8125 39.9375 51.8125 27.296875 
Q 51.8125 10.203125 42.875 2.875 
Q 37.203125 -1.765625 29.6875 -1.765625 
Q 23.78125 -1.765625 19.78125 0.828125 
Q 17.4375 2.296875 14.546875 5.859375 
L 14.546875 -20.84375 
L 5.765625 -20.84375 
z
" id="Helvetica-112"/>
       <path d="M 13.1875 13.921875 
Q 13.1875 10.109375 15.96875 7.90625 
Q 18.75 5.71875 22.5625 5.71875 
Q 27.203125 5.71875 31.546875 7.859375 
Q 38.875 11.421875 38.875 19.53125 
L 38.875 26.609375 
Q 37.25 25.59375 34.703125 24.90625 
Q 32.171875 24.21875 29.734375 23.921875 
L 24.421875 23.25 
Q 19.625 22.609375 17.234375 21.234375 
Q 13.1875 18.953125 13.1875 13.921875 
z
M 34.46875 31.6875 
Q 37.5 32.078125 38.53125 34.234375 
Q 39.109375 35.40625 39.109375 37.59375 
Q 39.109375 42.09375 35.90625 44.109375 
Q 32.71875 46.140625 26.765625 46.140625 
Q 19.875 46.140625 17 42.4375 
Q 15.375 40.375 14.890625 36.328125 
L 6.6875 36.328125 
Q 6.9375 46 12.96875 49.78125 
Q 19 53.5625 26.953125 53.5625 
Q 36.1875 53.5625 41.9375 50.046875 
Q 47.65625 46.53125 47.65625 39.109375 
L 47.65625 8.984375 
Q 47.65625 7.625 48.21875 6.78125 
Q 48.78125 5.953125 50.59375 5.953125 
Q 51.171875 5.953125 51.90625 6.03125 
Q 52.640625 6.109375 53.46875 6.25 
L 53.46875 -0.25 
Q 51.421875 -0.828125 50.34375 -0.96875 
Q 49.265625 -1.125 47.40625 -1.125 
Q 42.875 -1.125 40.828125 2.09375 
Q 39.75 3.8125 39.3125 6.9375 
Q 36.625 3.421875 31.59375 0.828125 
Q 26.5625 -1.765625 20.515625 -1.765625 
Q 13.234375 -1.765625 8.609375 2.65625 
Q 4 7.078125 4 13.71875 
Q 4 21 8.546875 25 
Q 13.09375 29 20.453125 29.9375 
z
M 27.203125 53.5625 
z
" id="Helvetica-97"/>
       <path d="M 8.203125 66.890625 
L 17.09375 66.890625 
L 17.09375 52.296875 
L 25.4375 52.296875 
L 25.4375 45.125 
L 17.09375 45.125 
L 17.09375 10.984375 
Q 17.09375 8.25 18.953125 7.328125 
Q 19.96875 6.78125 22.359375 6.78125 
Q 23 6.78125 23.734375 6.8125 
Q 24.46875 6.84375 25.4375 6.9375 
L 25.4375 0 
Q 23.921875 -0.4375 22.28125 -0.625 
Q 20.65625 -0.828125 18.75 -0.828125 
Q 12.59375 -0.828125 10.390625 2.3125 
Q 8.203125 5.46875 8.203125 10.5 
L 8.203125 45.125 
L 1.125 45.125 
L 1.125 52.296875 
L 8.203125 52.296875 
z
" id="Helvetica-116"/>
       <path d="M 6.453125 52.296875 
L 14.796875 52.296875 
L 14.796875 44.875 
Q 18.5 49.46875 22.65625 51.46875 
Q 26.8125 53.46875 31.890625 53.46875 
Q 43.015625 53.46875 46.921875 45.703125 
Q 49.078125 41.453125 49.078125 33.546875 
L 49.078125 0 
L 40.140625 0 
L 40.140625 32.953125 
Q 40.140625 37.75 38.71875 40.671875 
Q 36.375 45.5625 30.21875 45.5625 
Q 27.09375 45.5625 25.09375 44.921875 
Q 21.484375 43.84375 18.75 40.625 
Q 16.546875 38.03125 15.890625 35.265625 
Q 15.234375 32.515625 15.234375 27.390625 
L 15.234375 0 
L 6.453125 0 
z
M 27.09375 53.5625 
z
" id="Helvetica-110"/>
       <path d="M 11.671875 16.40625 
Q 12.0625 12.015625 13.875 9.671875 
Q 17.1875 5.421875 25.390625 5.421875 
Q 30.28125 5.421875 33.984375 7.546875 
Q 37.703125 9.671875 37.703125 14.109375 
Q 37.703125 17.484375 34.71875 19.234375 
Q 32.8125 20.3125 27.203125 21.734375 
L 20.21875 23.484375 
Q 13.53125 25.140625 10.359375 27.203125 
Q 4.6875 30.765625 4.6875 37.0625 
Q 4.6875 44.484375 10.03125 49.0625 
Q 15.375 53.65625 24.421875 53.65625 
Q 36.234375 53.65625 41.453125 46.734375 
Q 44.734375 42.328125 44.625 37.25 
L 36.328125 37.25 
Q 36.078125 40.234375 34.234375 42.671875 
Q 31.203125 46.140625 23.734375 46.140625 
Q 18.75 46.140625 16.1875 44.234375 
Q 13.625 42.328125 13.625 39.203125 
Q 13.625 35.796875 17 33.734375 
Q 18.953125 32.515625 22.75 31.59375 
L 28.5625 30.171875 
Q 38.03125 27.875 41.265625 25.734375 
Q 46.390625 22.359375 46.390625 15.140625 
Q 46.390625 8.15625 41.09375 3.078125 
Q 35.796875 -2 24.953125 -2 
Q 13.28125 -2 8.421875 3.296875 
Q 3.5625 8.59375 3.21875 16.40625 
z
M 24.65625 53.5625 
z
" id="Helvetica-115"/>
      </defs>
      <use xlink:href="#Helvetica-78"/>
      <use x="72.216797" xlink:href="#Helvetica-117"/>
      <use x="127.832031" xlink:href="#Helvetica-109"/>
      <use x="211.132812" xlink:href="#Helvetica-98"/>
      <use x="266.748047" xlink:href="#Helvetica-101"/>
      <use x="322.363281" xlink:href="#Helvetica-114"/>
      <use x="355.664062" xlink:href="#Helvetica-32"/>
      <use x="383.447266" xlink:href="#Helvetica-111"/>
      <use x="439.0625" xlink:href="#Helvetica-102"/>
      <use x="466.845703" xlink:href="#Helvetica-32"/>
      <use x="494.628906" xlink:href="#Helvetica-112"/>
      <use x="550.244141" xlink:href="#Helvetica-97"/>
      <use x="605.859375" xlink:href="#Helvetica-116"/>
      <use x="633.642578" xlink:href="#Helvetica-116"/>
      <use x="661.425781" xlink:href="#Helvetica-101"/>
      <use x="717.041016" xlink:href="#Helvetica-114"/>
      <use x="750.341797" xlink:href="#Helvetica-110"/>
      <use x="805.957031" xlink:href="#Helvetica-115"/>
     </g>
    </g>
   </g>
   <g id="matplotlib.axis_2">
    <g id="ytick_1">
     <g id="line2d_6">
      <defs>
       <path d="M 0 0 
L -5 0 
" id="mfcb5f5ca4e" style="stroke:#000000;"/>
      </defs>
      <g>
       <use style="stroke:#000000;" x="63.697188" xlink:href="#mfcb5f5ca4e" y="247.47437"/>
      </g>
     </g>
     <g id="text_7">
      <!-- 0.0 -->
      <g transform="translate(31.567188 253.571792)scale(0.17 -0.17)">
       <defs>
        <path d="M 8.546875 10.640625 
L 18.75 10.640625 
L 18.75 0 
L 8.546875 0 
z
" id="Helvetica-46"/>
       </defs>
       <use xlink:href="#Helvetica-48"/>
       <use x="55.615234" xlink:href="#Helvetica-46"/>
       <use x="83.398438" xlink:href="#Helvetica-48"/>
      </g>
     </g>
    </g>
    <g id="ytick_2">
     <g id="line2d_7">
      <g>
       <use style="stroke:#000000;" x="63.697188" xlink:href="#mfcb5f5ca4e" y="205.843713"/>
      </g>
     </g>
     <g id="text_8">
      <!-- 0.2 -->
      <g transform="translate(31.567188 211.941135)scale(0.17 -0.17)">
       <use xlink:href="#Helvetica-48"/>
       <use x="55.615234" xlink:href="#Helvetica-46"/>
       <use x="83.398438" xlink:href="#Helvetica-50"/>
      </g>
     </g>
    </g>
    <g id="ytick_3">
     <g id="line2d_8">
      <g>
       <use style="stroke:#000000;" x="63.697188" xlink:href="#mfcb5f5ca4e" y="164.213057"/>
      </g>
     </g>
     <g id="text_9">
      <!-- 0.4 -->
      <g transform="translate(31.567188 170.310478)scale(0.17 -0.17)">
       <use xlink:href="#Helvetica-48"/>
       <use x="55.615234" xlink:href="#Helvetica-46"/>
       <use x="83.398438" xlink:href="#Helvetica-52"/>
      </g>
     </g>
    </g>
    <g id="ytick_4">
     <g id="line2d_9">
      <g>
       <use style="stroke:#000000;" x="63.697188" xlink:href="#mfcb5f5ca4e" y="122.5824"/>
      </g>
     </g>
     <g id="text_10">
      <!-- 0.6 -->
      <g transform="translate(31.567188 128.679822)scale(0.17 -0.17)">
       <use xlink:href="#Helvetica-48"/>
       <use x="55.615234" xlink:href="#Helvetica-46"/>
       <use x="83.398438" xlink:href="#Helvetica-54"/>
      </g>
     </g>
    </g>
    <g id="ytick_5">
     <g id="line2d_10">
      <g>
       <use style="stroke:#000000;" x="63.697188" xlink:href="#mfcb5f5ca4e" y="80.951743"/>
      </g>
     </g>
     <g id="text_11">
      <!-- 0.8 -->
      <g transform="translate(31.567188 87.049165)scale(0.17 -0.17)">
       <use xlink:href="#Helvetica-48"/>
       <use x="55.615234" xlink:href="#Helvetica-46"/>
       <use x="83.398438" xlink:href="#Helvetica-56"/>
      </g>
     </g>
    </g>
    <g id="ytick_6">
     <g id="line2d_11">
      <g>
       <use style="stroke:#000000;" x="63.697188" xlink:href="#mfcb5f5ca4e" y="39.321087"/>
      </g>
     </g>
     <g id="text_12">
      <!-- 1.0 -->
      <g transform="translate(31.567188 45.418509)scale(0.17 -0.17)">
       <defs>
        <path d="M 9.578125 49.515625 
L 9.578125 56.25 
Q 19.09375 57.171875 22.84375 59.34375 
Q 26.609375 61.53125 28.46875 69.625 
L 35.40625 69.625 
L 35.40625 0 
L 26.03125 0 
L 26.03125 49.515625 
z
" id="Helvetica-49"/>
       </defs>
       <use xlink:href="#Helvetica-49"/>
       <use x="55.615234" xlink:href="#Helvetica-46"/>
       <use x="83.398438" xlink:href="#Helvetica-48"/>
      </g>
     </g>
    </g>
    <g id="text_13">
     <!-- MI -->
     <g transform="translate(22.981563 154.934922)rotate(-90)scale(0.22 -0.22)">
      <defs>
       <path d="M 7.375 71.734375 
L 21.296875 71.734375 
L 41.890625 11.078125 
L 62.359375 71.734375 
L 76.125 71.734375 
L 76.125 0 
L 66.890625 0 
L 66.890625 42.328125 
Q 66.890625 44.53125 66.984375 49.609375 
Q 67.09375 54.6875 67.09375 60.5 
L 46.625 0 
L 37.015625 0 
L 16.40625 60.5 
L 16.40625 58.296875 
Q 16.40625 55.671875 16.53125 50.265625 
Q 16.65625 44.875 16.65625 42.328125 
L 16.65625 0 
L 7.375 0 
z
" id="Helvetica-77"/>
       <path d="M 9.8125 71.734375 
L 19.625 71.734375 
L 19.625 0 
L 9.8125 0 
z
" id="Helvetica-73"/>
      </defs>
      <use xlink:href="#Helvetica-77"/>
      <use x="83.300781" xlink:href="#Helvetica-73"/>
     </g>
    </g>
   </g>
   <g id="line2d_12">
    <path clip-path="url(#pd0a79b3ffe)" d="M 79.914588 39.321087 
L 96.231482 39.321087 
L 97.027428 39.526483 
L 99.415266 39.504004 
L 99.813239 39.657347 
L 100.609185 40.125234 
L 102.59905 40.470556 
L 103.394996 40.653221 
L 104.190942 40.87146 
L 104.588915 41.096232 
L 104.986888 41.496865 
L 105.384861 41.649603 
L 105.782834 41.927811 
L 106.180807 41.807327 
L 106.57878 42.156215 
L 106.976753 42.243849 
L 107.374726 42.960757 
L 107.772699 43.031257 
L 108.170672 43.837628 
L 108.568646 44.352041 
L 108.966619 44.466527 
L 109.364592 44.06461 
L 109.762565 44.950064 
L 110.160538 44.985149 
L 110.558511 46.12033 
L 110.956484 56.031772 
L 111.354457 62.317868 
L 111.75243 58.280598 
L 112.548376 76.867664 
L 112.946349 77.617916 
L 113.344322 85.979744 
L 113.742295 91.211126 
L 114.936214 116.32686 
L 115.334187 121.395976 
L 115.73216 121.441305 
L 116.130133 125.082009 
L 116.528106 144.539834 
L 116.926079 151.761381 
L 117.324052 149.951521 
L 117.722025 170.458144 
L 118.119998 167.300326 
L 118.517971 175.215864 
L 118.915944 186.277585 
L 119.313917 183.797374 
L 119.71189 188.779415 
L 120.109863 185.809614 
L 120.507836 192.155138 
L 120.905809 192.072545 
L 121.303782 198.897257 
L 121.701755 200.474383 
L 122.099728 196.3277 
L 122.497701 199.990628 
L 122.895674 201.592511 
L 123.293647 201.054878 
L 123.69162 203.589405 
L 124.089593 202.162583 
L 124.487566 199.903677 
L 124.885539 207.505235 
L 125.283512 205.951031 
L 125.681485 208.086767 
L 126.079458 211.723645 
L 126.477431 213.867815 
L 126.875404 210.553342 
L 127.273377 214.946703 
L 127.67135 211.73406 
L 128.069323 212.789403 
L 128.467297 214.238676 
L 128.86527 212.19711 
L 129.263243 221.087159 
L 129.661216 224.579772 
L 130.457162 222.397641 
L 130.855135 221.38294 
L 131.253108 221.846002 
L 131.651081 220.191965 
L 132.049054 224.061198 
L 132.845 225.56771 
L 133.242973 224.620615 
L 133.640946 225.37937 
L 134.038919 225.14443 
L 134.436892 225.064975 
L 134.834865 225.58157 
L 135.232838 225.021276 
L 135.630811 224.662015 
L 136.028784 222.14344 
L 136.426757 224.208191 
L 136.82473 224.416647 
L 137.222703 227.389368 
L 137.620676 227.015644 
L 138.018649 228.946809 
L 138.416622 229.199643 
L 138.814595 231.570506 
L 139.212568 229.739972 
L 139.610541 228.625853 
L 140.008514 229.555323 
L 140.406487 228.506278 
L 140.80446 225.889725 
L 141.202433 228.884091 
L 141.600406 227.397761 
L 141.998379 229.225057 
L 142.396352 226.621323 
L 142.794325 228.969353 
L 143.192298 228.454322 
L 143.590271 227.659994 
L 143.988244 230.303629 
L 144.386217 230.113729 
L 145.182163 227.492692 
L 145.580136 230.767053 
L 145.978109 230.709407 
L 146.376082 229.92028 
L 146.774055 232.394436 
L 147.172028 230.889998 
L 147.570001 229.915971 
L 147.967975 231.564184 
L 148.365948 230.94639 
L 148.763921 230.897019 
L 149.559867 233.078414 
L 149.95784 232.377118 
L 150.355813 235.997523 
L 150.753786 234.496114 
L 151.151759 235.024901 
L 151.549732 235.877914 
L 151.947705 234.376671 
L 152.345678 237.499625 
L 152.743651 235.992907 
L 153.539597 234.541628 
L 153.93757 233.552257 
L 154.335543 234.265642 
L 154.733516 232.894682 
L 155.131489 235.222669 
L 155.529462 235.373018 
L 155.927435 235.250816 
L 156.325408 236.045334 
L 157.519327 235.566736 
L 157.9173 234.276042 
L 158.315273 235.512557 
L 158.713246 234.891901 
L 159.111219 236.905238 
L 159.509192 236.623275 
L 159.907165 237.494023 
L 160.305138 236.663488 
L 160.703111 238.306571 
L 161.101084 236.727661 
L 161.499057 237.327041 
L 161.89703 238.239668 
L 162.295003 236.469832 
L 163.090949 235.245666 
L 163.488922 237.977845 
L 163.886895 236.449934 
L 164.284868 239.523556 
L 164.682841 240.154655 
L 165.080814 240.010022 
L 165.478787 239.471529 
L 165.87676 237.656695 
L 166.274733 238.345927 
L 166.672706 240.143572 
L 167.070679 237.840342 
L 167.468652 238.486203 
L 167.866626 237.237472 
L 168.264599 237.65881 
L 168.662572 237.016195 
L 169.060545 237.45089 
L 169.458518 237.692973 
L 169.856491 239.795144 
L 170.254464 238.429021 
L 170.652437 237.906683 
L 171.05041 237.980235 
L 171.448383 236.158246 
L 171.846356 239.618669 
L 172.244329 239.688231 
L 172.642302 238.28448 
L 173.040275 241.117033 
L 173.438248 240.178343 
L 173.836221 239.88682 
L 174.234194 238.74982 
L 174.632167 240.651928 
L 175.03014 239.829342 
L 175.428113 239.403033 
L 175.826086 238.407395 
L 176.224059 239.769864 
L 176.622032 239.016038 
L 177.020005 239.006551 
L 177.815951 238.441428 
L 178.611897 238.050034 
L 179.00987 237.593738 
L 179.407843 241.022008 
L 179.805816 240.546429 
L 180.203789 239.640371 
L 180.999735 240.152041 
L 181.397708 239.560793 
L 181.795681 238.442979 
L 182.193654 240.404545 
L 182.591627 240.713534 
L 182.9896 240.50166 
L 183.387573 240.596991 
L 183.785546 239.696889 
L 184.183519 239.260255 
L 184.581492 238.452315 
L 184.979465 238.23129 
L 185.377438 240.490481 
L 185.775411 239.297641 
L 186.173384 239.88859 
L 186.571357 238.79712 
L 186.96933 238.547481 
L 187.367303 239.207714 
L 187.765277 239.438082 
L 188.16325 240.751944 
L 188.561223 240.687933 
L 188.959196 240.214733 
L 189.755142 239.990786 
L 190.153115 240.108764 
L 190.949061 239.557863 
L 191.347034 240.716351 
L 191.745007 239.486187 
L 192.14298 239.75248 
L 192.540953 239.624242 
L 192.938926 239.639813 
L 193.734872 240.685814 
L 194.132845 239.84603 
L 194.530818 241.266601 
L 194.928791 241.316224 
L 195.326764 241.248295 
L 195.724737 240.22372 
L 196.12271 239.734395 
L 196.520683 239.445962 
L 196.918656 239.63055 
L 197.316629 240.259953 
L 197.714602 241.337897 
L 198.112575 240.570114 
L 198.908521 241.72311 
L 199.306494 240.809379 
L 199.704467 240.628168 
L 200.10244 241.362702 
L 200.898386 240.836743 
L 201.296359 241.042079 
L 201.694332 240.419143 
L 202.092305 240.315094 
L 202.490278 241.636813 
L 202.888251 241.638215 
L 204.08217 240.456903 
L 204.480143 242.103978 
L 205.276089 241.9816 
L 205.674062 241.81686 
L 206.470008 240.976858 
L 206.867981 242.091064 
L 207.265954 241.480989 
L 207.663928 241.535885 
L 208.061901 242.128876 
L 208.459874 241.432523 
L 208.857847 242.260325 
L 209.25582 242.449223 
L 209.653793 241.610081 
L 210.051766 241.5078 
L 210.449739 241.104049 
L 210.847712 241.008232 
L 211.245685 241.109551 
L 211.643658 240.968713 
L 212.041631 241.064007 
L 212.439604 240.748675 
L 212.837577 243.934808 
L 213.633523 242.896261 
L 214.031496 241.792964 
L 214.429469 241.794263 
L 214.827442 241.277483 
L 215.225415 242.252795 
L 215.623388 242.401182 
L 216.021361 243.561679 
L 216.419334 243.557278 
L 216.817307 243.044827 
L 217.21528 242.875487 
L 217.613253 243.082524 
L 218.011226 243.531955 
L 218.409199 243.066927 
L 218.807172 242.909271 
L 219.205145 243.266483 
L 219.603118 243.453312 
L 220.001091 242.926864 
L 220.399064 242.703715 
L 221.19501 242.859902 
L 221.592983 242.343435 
L 221.990956 242.617198 
L 222.388929 242.089844 
L 222.786902 241.932361 
L 223.184875 243.319095 
L 223.582848 242.711905 
L 223.980821 243.390233 
L 224.378794 243.105266 
L 225.17474 243.513121 
L 225.970686 242.246596 
L 226.766632 242.717265 
L 227.164605 241.889176 
L 227.562579 241.894974 
L 227.960552 241.134263 
L 228.358525 241.555787 
L 228.756498 242.614102 
L 229.154471 243.167022 
L 229.552444 243.95018 
L 230.34839 242.907496 
L 230.746363 242.545662 
L 231.144336 243.648656 
L 231.542309 243.845238 
L 231.940282 243.427667 
L 232.736228 242.444427 
L 233.532174 241.921984 
L 233.930147 242.167781 
L 234.32812 242.003679 
L 234.726093 242.537554 
L 235.124066 243.469112 
L 235.522039 242.773224 
L 235.920012 242.592665 
L 236.317985 241.802665 
L 236.715958 241.332784 
L 237.113931 243.171142 
L 237.511904 243.435708 
L 238.30785 242.987697 
L 238.705823 243.457314 
L 239.103796 243.00282 
L 239.501769 242.351437 
L 239.899742 242.952858 
L 240.297715 242.213344 
L 240.695688 244.017819 
L 241.093661 243.414408 
L 241.491634 244.126429 
L 241.889607 243.359542 
L 242.28758 243.868219 
L 242.685553 243.190171 
L 243.083526 243.32624 
L 243.481499 242.629828 
L 243.879472 244.34823 
L 244.277445 243.829378 
L 244.675418 243.063784 
L 245.073391 243.375247 
L 245.869337 242.712339 
L 246.26731 242.683173 
L 247.063257 243.114133 
L 247.46123 242.657146 
L 247.859203 243.933117 
L 248.257176 243.856124 
L 249.053122 243.204882 
L 249.451095 243.074163 
L 249.849068 243.377154 
L 250.247041 243.173474 
L 250.645014 244.690692 
L 251.042987 243.921571 
L 251.44096 244.061848 
L 252.236906 243.987809 
L 252.634879 243.474648 
L 253.032852 243.84399 
L 253.430825 243.563546 
L 253.828798 243.797441 
L 254.226771 243.393458 
L 254.624744 244.258304 
L 255.022717 243.3568 
L 255.42069 243.643886 
L 256.614609 243.359327 
L 257.012582 242.748979 
L 257.410555 242.597649 
L 257.808528 243.195594 
L 258.206501 242.848077 
L 258.604474 242.82202 
L 259.002447 244.090323 
L 259.40042 243.672555 
L 259.798393 243.642871 
L 260.594339 242.724179 
L 260.992312 242.987466 
L 261.390285 243.457629 
L 261.788258 243.625025 
L 262.186231 242.976877 
L 262.584204 242.960497 
L 262.982177 242.341108 
L 263.38015 242.581408 
L 263.778123 243.175396 
L 264.176096 243.466773 
L 264.972042 243.4378 
L 265.370015 242.658348 
L 266.165961 242.291782 
L 266.563934 242.984505 
L 266.961908 242.630313 
L 267.359881 242.991743 
L 267.757854 242.86344 
L 268.155827 242.444534 
L 268.5538 243.581298 
L 268.951773 243.238588 
L 269.349746 243.055311 
L 270.145692 243.094756 
L 270.543665 242.687651 
L 270.941638 243.672017 
L 271.339611 243.045238 
L 271.737584 242.935347 
L 272.135557 242.451034 
L 272.53353 243.633221 
L 272.931503 244.218093 
L 273.329476 244.159028 
L 273.727449 244.825565 
L 274.523395 244.186524 
L 274.921368 244.119676 
L 275.717314 243.643737 
L 276.115287 243.41979 
L 276.51326 244.010143 
L 276.911233 243.274773 
L 277.309206 243.715607 
L 277.707179 243.632257 
L 278.105152 243.712977 
L 278.901098 243.155092 
L 279.299071 242.913552 
L 279.697044 243.232185 
L 280.095017 245.205118 
L 280.49299 244.895933 
L 280.890963 244.361857 
L 281.288936 244.161053 
L 282.084882 244.021422 
L 282.482855 243.91779 
L 282.880828 244.452812 
L 283.278801 243.86158 
L 283.676774 243.765144 
L 284.074747 245.023731 
L 284.47272 244.554686 
L 284.870693 245.021902 
L 285.268666 244.76425 
L 285.666639 244.180199 
L 286.064612 243.991389 
L 286.860559 244.265963 
L 287.258532 243.784067 
L 288.054478 244.101859 
L 288.452451 244.187503 
L 288.850424 243.736474 
L 289.248397 244.314492 
L 289.64637 244.537705 
L 290.044343 244.325131 
L 290.840289 244.501055 
L 291.238262 244.322236 
L 291.636235 243.860541 
L 292.034208 243.800737 
L 292.432181 244.375039 
L 292.830154 243.938767 
L 293.228127 243.734245 
L 293.6261 244.355268 
L 294.422046 243.789491 
L 294.820019 243.99015 
L 295.217992 244.746304 
L 295.615965 244.554453 
L 296.013938 244.612783 
L 296.411911 244.079779 
L 296.809884 244.740953 
L 297.207857 244.153767 
L 298.401776 245.041088 
L 298.799749 244.54631 
L 299.197722 244.685081 
L 299.595695 244.493917 
L 299.993668 244.473456 
L 300.391641 244.243291 
L 300.789614 244.526207 
L 301.187587 244.626983 
L 301.58556 244.168304 
L 301.983533 245.405608 
L 302.381506 245.227122 
L 302.779479 244.632146 
L 303.177452 244.259046 
L 303.575425 244.274923 
L 304.371371 244.010525 
L 304.769344 243.747058 
L 305.167317 244.053889 
L 305.56529 244.525107 
L 306.75921 243.794084 
L 307.157183 243.87685 
L 307.555156 244.135413 
L 307.953129 243.868876 
L 308.351102 244.014725 
L 308.749075 244.484362 
L 309.942994 243.85807 
L 310.340967 243.495288 
L 310.73894 244.296632 
L 311.136913 244.709421 
L 311.534886 244.437561 
L 311.932859 244.723053 
L 312.330832 244.284878 
L 313.126778 243.755264 
L 313.524751 244.71724 
L 313.922724 244.986315 
L 314.320697 244.53981 
L 315.514616 243.713823 
L 315.912589 243.896633 
L 316.310562 243.69582 
L 316.708535 243.214975 
L 317.106508 243.399704 
L 317.504481 243.372053 
L 317.902454 243.118438 
L 318.300427 244.232986 
L 319.096373 243.773534 
L 319.494346 244.091118 
L 319.892319 243.773406 
L 320.688265 244.797656 
L 321.086238 244.993195 
L 321.882184 244.035633 
L 322.280157 244.286623 
L 323.076103 244.176432 
L 323.474076 244.409559 
L 323.872049 244.228261 
L 324.270022 244.324384 
L 324.667995 243.999123 
L 325.065968 244.036628 
L 325.861914 243.676527 
L 326.259887 244.952719 
L 326.657861 245.166233 
L 327.055834 244.705246 
L 327.85178 244.613044 
L 328.249753 244.915497 
L 328.647726 244.399697 
L 329.045699 244.760344 
L 329.443672 244.511946 
L 329.841645 244.68903 
L 330.239618 244.437017 
L 330.637591 244.534849 
L 331.035564 244.04029 
L 331.433537 244.190341 
L 331.83151 244.482948 
L 332.229483 244.109489 
L 332.627456 244.287932 
L 333.025429 245.294074 
L 333.423402 244.548696 
L 333.821375 244.541118 
L 334.219348 244.175502 
L 334.617321 244.277533 
L 335.413267 243.869996 
L 336.607186 243.937774 
L 337.005159 244.823615 
L 337.403132 244.493035 
L 337.801105 245.077433 
L 338.199078 244.522459 
L 338.597051 244.500854 
L 338.995024 244.325103 
L 339.392997 244.417497 
L 339.79097 244.708254 
L 340.586916 244.221022 
L 340.984889 244.234578 
L 341.382862 244.557492 
L 341.780835 244.565287 
L 342.178808 244.091539 
L 343.372727 244.573295 
L 343.7707 244.307247 
L 344.168673 244.376394 
L 344.566646 245.148528 
L 345.362592 244.486915 
L 345.760565 244.981884 
L 346.158539 245.094109 
L 346.556512 244.727623 
L 346.954485 245.305846 
L 347.352458 244.827334 
L 348.546377 244.746522 
L 348.94435 244.438339 
L 349.342323 244.275657 
L 349.740296 245.128194 
L 350.138269 244.761968 
L 350.536242 244.995573 
L 350.934215 244.741105 
L 351.332188 244.907436 
L 352.526107 244.734692 
L 352.92408 244.927806 
L 353.322053 244.541374 
L 353.720026 244.901017 
L 354.515972 244.727644 
L 354.913945 244.643522 
L 355.311918 245.344254 
L 355.709891 244.837365 
L 356.107864 244.73663 
L 356.90381 244.237494 
L 357.301783 244.457642 
L 358.097729 244.485061 
L 358.495702 244.650491 
L 358.893675 245.022293 
L 359.689621 244.644413 
L 360.087594 244.715415 
L 360.485567 244.493097 
L 361.281513 245.273451 
L 361.679486 244.787224 
L 362.077459 244.717621 
L 362.475432 244.519396 
L 362.873405 245.035235 
L 363.271378 244.677908 
L 363.669351 245.011322 
L 364.067324 245.165555 
L 364.86327 244.876655 
L 365.261243 244.43105 
L 365.659216 245.45749 
L 366.05719 245.063868 
L 366.455163 244.969067 
L 366.853136 244.728121 
L 367.649082 244.844119 
L 368.047055 244.655213 
L 368.445028 244.911645 
L 368.843001 244.500987 
L 369.240974 245.103629 
L 369.638947 244.65629 
L 370.434893 244.457654 
L 370.832866 245.73211 
L 371.230839 245.110065 
L 373.220704 244.701716 
L 373.618677 244.541561 
L 374.01665 245.445156 
L 374.414623 245.043969 
L 374.812596 244.806463 
L 375.210569 245.738155 
L 375.608542 245.355933 
L 376.006515 245.340159 
L 376.802461 244.84805 
L 377.200434 244.748706 
L 377.598407 245.61362 
L 377.99638 245.248762 
L 378.792326 244.818558 
L 379.190299 245.052557 
L 379.588272 244.760987 
L 379.986245 245.362222 
L 380.782191 244.824925 
L 381.180164 244.552472 
L 381.578137 244.705704 
L 382.374083 245.489669 
L 382.772056 244.963169 
L 383.170029 245.310093 
L 383.568002 245.037649 
L 383.965975 244.978288 
L 384.363948 246.11157 
L 384.761921 245.663985 
L 385.955841 244.98084 
L 386.353814 244.812558 
L 386.751787 244.890026 
L 387.547733 244.673754 
L 387.945706 244.90272 
L 388.343679 244.914956 
L 388.741652 245.319199 
L 389.139625 244.825149 
L 389.537598 245.239679 
L 390.333544 245.365755 
L 390.731517 244.99887 
L 391.12949 245.254649 
L 391.925436 245.169164 
L 393.517328 244.514422 
L 393.915301 244.969449 
L 394.711247 245.150159 
L 395.10922 244.917422 
L 395.507193 245.022876 
L 395.905166 244.82304 
L 396.701112 244.780526 
L 397.099085 244.809816 
L 397.497058 245.179492 
L 397.895031 244.767246 
L 398.293004 244.93779 
L 399.08895 245.085567 
L 399.486923 245.354539 
L 399.884896 245.376348 
L 400.282869 244.842766 
L 400.680842 245.048732 
L 401.078815 244.876108 
L 402.272734 245.260603 
L 403.06868 244.928568 
L 403.466653 244.710931 
L 403.864626 245.073437 
L 404.262599 245.871813 
L 404.262599 245.871813 
" style="fill:none;stroke:#1f77b4;stroke-linecap:square;"/>
   </g>
   <g id="patch_3">
    <path d="M 63.697188 256.451094 
L 63.697188 28.981562 
" style="fill:none;stroke:#000000;stroke-linecap:square;stroke-linejoin:miter;stroke-width:0.8;"/>
   </g>
   <g id="patch_4">
    <path d="M 420.48 256.451094 
L 420.48 28.981562 
" style="fill:none;stroke:#000000;stroke-linecap:square;stroke-linejoin:miter;stroke-width:0.8;"/>
   </g>
   <g id="patch_5">
    <path d="M 63.697188 256.451094 
L 420.48 256.451094 
" style="fill:none;stroke:#000000;stroke-linecap:square;stroke-linejoin:miter;stroke-width:0.8;"/>
   </g>
   <g id="patch_6">
    <path d="M 63.697188 28.981563 
L 420.48 28.981563 
" style="fill:none;stroke:#000000;stroke-linecap:square;stroke-linejoin:miter;stroke-width:0.8;"/>
   </g>
   <g id="text_14">
    <!-- N = 708, $W$ -->
    <g transform="translate(186.758594 22.981562)scale(0.22 -0.22)">
     <defs>
      <path d="M 55.421875 40.140625 
L 55.421875 31.9375 
L 4.5 31.9375 
L 4.5 40.140625 
z
M 55.421875 19.1875 
L 55.421875 10.84375 
L 4.5 10.84375 
L 4.5 19.1875 
z
" id="Helvetica-61"/>
      <path d="M 52.296875 68.75 
L 52.296875 61.078125 
Q 48.921875 57.8125 43.328125 49.703125 
Q 37.75 41.609375 33.453125 32.234375 
Q 29.203125 23.09375 27 15.578125 
Q 25.59375 10.75 23.34375 0 
L 13.625 0 
Q 16.9375 20.015625 28.265625 39.84375 
Q 34.96875 51.46875 42.328125 59.90625 
L 3.65625 59.90625 
L 3.65625 68.75 
z
" id="Helvetica-55"/>
      <path d="M 8.296875 -10.203125 
Q 11.671875 -9.625 13.03125 -5.46875 
Q 13.765625 -3.265625 13.765625 -1.21875 
Q 13.765625 -0.875 13.734375 -0.609375 
Q 13.71875 -0.34375 13.625 0 
L 8.296875 0 
L 8.296875 10.640625 
L 18.75 10.640625 
L 18.75 0.78125 
Q 18.75 -5.03125 16.40625 -9.421875 
Q 14.0625 -13.8125 8.296875 -14.84375 
z
" id="Helvetica-44"/>
      <path d="M 17.828125 -1.125 
L 13.1875 62.59375 
Q 12.84375 64.0625 10.984375 64.421875 
Q 9.125 64.796875 6.390625 64.796875 
Q 5.421875 64.796875 5.421875 66.109375 
Q 5.765625 67.390625 5.953125 67.84375 
Q 6.15625 68.3125 7.078125 68.3125 
L 30.90625 68.3125 
Q 31.890625 68.3125 31.890625 67 
Q 31.5 64.796875 30.609375 64.796875 
Q 22.609375 64.796875 22.125 62.015625 
L 25.6875 11.53125 
L 50.6875 55.078125 
L 50.203125 62.59375 
Q 49.859375 64.0625 48 64.421875 
Q 46.140625 64.796875 43.40625 64.796875 
Q 42.390625 64.796875 42.390625 66.109375 
Q 42.71875 67.390625 42.90625 67.84375 
Q 43.109375 68.3125 44.09375 68.3125 
L 67.921875 68.3125 
Q 68.890625 68.3125 68.890625 67 
Q 68.84375 66.75 68.703125 66.15625 
Q 68.5625 65.578125 68.3125 65.1875 
Q 68.0625 64.796875 67.578125 64.796875 
Q 59.515625 64.796875 59.078125 62.015625 
L 59.078125 61.28125 
L 62.703125 11.53125 
L 89.890625 58.984375 
Q 90.484375 60.0625 90.484375 61.078125 
Q 90.484375 63.140625 88.46875 63.96875 
Q 86.46875 64.796875 83.984375 64.796875 
Q 83.015625 64.796875 83.015625 66.109375 
Q 83.203125 66.890625 83.328125 67.328125 
Q 83.453125 67.78125 83.765625 68.046875 
Q 84.078125 68.3125 84.71875 68.3125 
L 103.8125 68.3125 
Q 104.78125 68.3125 104.78125 67 
Q 104.734375 66.75 104.578125 66.140625 
Q 104.4375 65.53125 104.171875 65.15625 
Q 103.90625 64.796875 103.515625 64.796875 
Q 96.390625 64.796875 92.671875 58.296875 
Q 92.390625 58.015625 92.390625 58.015625 
L 58.5 -1.125 
Q 57.953125 -2.203125 56.78125 -2.203125 
L 56 -2.203125 
Q 54.78125 -2.203125 54.78125 -1.125 
L 50.984375 50.390625 
L 21.578125 -1.125 
Q 20.84375 -2.203125 19.828125 -2.203125 
L 19 -2.203125 
Q 17.828125 -2.203125 17.828125 -1.125 
z
" id="Cmmi10-87"/>
     </defs>
     <use transform="translate(0 0.265625)" xlink:href="#Helvetica-78"/>
     <use transform="translate(72.216797 0.265625)" xlink:href="#Helvetica-32"/>
     <use transform="translate(100 0.265625)" xlink:href="#Helvetica-61"/>
     <use transform="translate(158.398438 0.265625)" xlink:href="#Helvetica-32"/>
     <use transform="translate(186.181641 0.265625)" xlink:href="#Helvetica-55"/>
     <use transform="translate(241.796875 0.265625)" xlink:href="#Helvetica-48"/>
     <use transform="translate(297.412109 0.265625)" xlink:href="#Helvetica-56"/>
     <use transform="translate(353.027344 0.265625)" xlink:href="#Helvetica-44"/>
     <use transform="translate(380.810547 0.265625)" xlink:href="#Helvetica-32"/>
     <use transform="translate(408.59375 0.265625)" xlink:href="#Cmmi10-87"/>
    </g>
   </g>
   <g id="legend_1">
    <g id="patch_7">
     <path d="M 192.958125 73.700312 
L 406.48 73.700312 
Q 410.48 73.700312 410.48 69.700312 
L 410.48 42.981562 
Q 410.48 38.981562 406.48 38.981562 
L 192.958125 38.981562 
Q 188.958125 38.981562 188.958125 42.981562 
L 188.958125 69.700312 
Q 188.958125 73.700312 192.958125 73.700312 
z
" style="fill:#ffffff;opacity:0.8;stroke:#cccccc;stroke-linejoin:miter;"/>
    </g>
    <g id="line2d_13">
     <path d="M 196.958125 54.531563 
L 236.958125 54.531563 
" style="fill:none;stroke:#1f77b4;stroke-linecap:square;"/>
    </g>
    <g id="line2d_14"/>
    <g id="text_15">
     <!-- final, corrupt=0.0 -->
     <g transform="translate(252.958125 61.531563)scale(0.2 -0.2)">
      <defs>
       <path d="M 6.453125 52.046875 
L 15.375 52.046875 
L 15.375 0 
L 6.453125 0 
z
M 6.453125 71.734375 
L 15.375 71.734375 
L 15.375 61.765625 
L 6.453125 61.765625 
z
" id="Helvetica-105"/>
       <path d="M 6.6875 71.734375 
L 15.484375 71.734375 
L 15.484375 0 
L 6.6875 0 
z
" id="Helvetica-108"/>
       <path d="M 26.609375 53.8125 
Q 35.453125 53.8125 40.984375 49.515625 
Q 46.53125 45.21875 47.65625 34.71875 
L 39.109375 34.71875 
Q 38.328125 39.546875 35.546875 42.75 
Q 32.765625 45.953125 26.609375 45.953125 
Q 18.21875 45.953125 14.59375 37.75 
Q 12.25 32.421875 12.25 24.609375 
Q 12.25 16.75 15.5625 11.375 
Q 18.890625 6 26.03125 6 
Q 31.5 6 34.6875 9.34375 
Q 37.890625 12.703125 39.109375 18.5 
L 47.65625 18.5 
Q 46.1875 8.109375 40.328125 3.296875 
Q 34.46875 -1.515625 25.34375 -1.515625 
Q 15.09375 -1.515625 8.984375 5.984375 
Q 2.875 13.484375 2.875 24.703125 
Q 2.875 38.484375 9.5625 46.140625 
Q 16.265625 53.8125 26.609375 53.8125 
z
M 25.25 53.5625 
z
" id="Helvetica-99"/>
      </defs>
      <use xlink:href="#Helvetica-102"/>
      <use x="27.783203" xlink:href="#Helvetica-105"/>
      <use x="50" xlink:href="#Helvetica-110"/>
      <use x="105.615234" xlink:href="#Helvetica-97"/>
      <use x="161.230469" xlink:href="#Helvetica-108"/>
      <use x="183.447266" xlink:href="#Helvetica-44"/>
      <use x="211.230469" xlink:href="#Helvetica-32"/>
      <use x="239.013672" xlink:href="#Helvetica-99"/>
      <use x="289.013672" xlink:href="#Helvetica-111"/>
      <use x="344.628906" xlink:href="#Helvetica-114"/>
      <use x="377.929688" xlink:href="#Helvetica-114"/>
      <use x="411.230469" xlink:href="#Helvetica-117"/>
      <use x="466.845703" xlink:href="#Helvetica-112"/>
      <use x="522.460938" xlink:href="#Helvetica-116"/>
      <use x="550.244141" xlink:href="#Helvetica-61"/>
      <use x="608.642578" xlink:href="#Helvetica-48"/>
      <use x="664.257812" xlink:href="#Helvetica-46"/>
      <use x="692.041016" xlink:href="#Helvetica-48"/>
     </g>
    </g>
   </g>
  </g>
 </g>
 <defs>
  <clipPath id="pd0a79b3ffe">
   <rect height="227.469531" width="356.782812" x="63.697188" y="28.981562"/>
  </clipPath>
 </defs>
</svg>
