<?xml version="1.0" encoding="utf-8" standalone="no"?>
<!DOCTYPE svg PUBLIC "-//W3C//DTD SVG 1.1//EN"
  "http://www.w3.org/Graphics/SVG/1.1/DTD/svg11.dtd">
<!-- Created with matplotlib (https://matplotlib.org/) -->
<svg height="312.48pt" version="1.1" viewBox="0 0 427.68 312.48" width="427.68pt" xmlns="http://www.w3.org/2000/svg" xmlns:xlink="http://www.w3.org/1999/xlink">
 <metadata>
  <rdf:RDF xmlns:cc="http://creativecommons.org/ns#" xmlns:dc="http://purl.org/dc/elements/1.1/" xmlns:rdf="http://www.w3.org/1999/02/22-rdf-syntax-ns#">
   <cc:Work>
    <dc:type rdf:resource="http://purl.org/dc/dcmitype/StillImage"/>
    <dc:date>2021-12-30T22:52:08.822454</dc:date>
    <dc:format>image/svg+xml</dc:format>
    <dc:creator>
     <cc:Agent>
      <dc:title>Matplotlib v3.3.4, https://matplotlib.org/</dc:title>
     </cc:Agent>
    </dc:creator>
   </cc:Work>
  </rdf:RDF>
 </metadata>
 <defs>
  <style type="text/css">*{stroke-linecap:butt;stroke-linejoin:round;}</style>
 </defs>
 <g id="figure_1">
  <g id="patch_1">
   <path d="M 0 312.48 
L 427.68 312.48 
L 427.68 0 
L 0 0 
z
" style="fill:#ffffff;"/>
  </g>
  <g id="axes_1">
   <g id="patch_2">
    <path d="M 63.697188 256.451094 
L 420.48 256.451094 
L 420.48 28.981563 
L 63.697188 28.981563 
z
" style="fill:#ffffff;"/>
   </g>
   <g id="matplotlib.axis_1">
    <g id="xtick_1">
     <g id="line2d_1">
      <defs>
       <path d="M 0 0 
L 0 5 
" id="mb675d88198" style="stroke:#000000;"/>
      </defs>
      <g>
       <use style="stroke:#000000;" x="79.516615" xlink:href="#mb675d88198" y="256.451094"/>
      </g>
     </g>
     <g id="text_1">
      <!-- 0 -->
      <g transform="translate(74.789818 277.145937)scale(0.17 -0.17)">
       <defs>
        <path d="M 27.046875 69.921875 
Q 40.625 69.921875 46.6875 58.734375 
Q 51.375 50.09375 51.375 35.0625 
Q 51.375 20.796875 47.125 11.46875 
Q 40.96875 -1.90625 27 -1.90625 
Q 14.40625 -1.90625 8.25 9.03125 
Q 3.125 18.171875 3.125 33.546875 
Q 3.125 45.453125 6.203125 54 
Q 11.96875 69.921875 27.046875 69.921875 
z
M 26.953125 6.109375 
Q 33.796875 6.109375 37.84375 12.15625 
Q 41.890625 18.21875 41.890625 34.71875 
Q 41.890625 46.625 38.953125 54.3125 
Q 36.03125 62.015625 27.59375 62.015625 
Q 19.828125 62.015625 16.234375 54.703125 
Q 12.640625 47.40625 12.640625 33.203125 
Q 12.640625 22.515625 14.9375 16.015625 
Q 18.453125 6.109375 26.953125 6.109375 
z
" id="Helvetica-48"/>
       </defs>
       <use xlink:href="#Helvetica-48"/>
      </g>
     </g>
    </g>
    <g id="xtick_2">
     <g id="line2d_2">
      <g>
       <use style="stroke:#000000;" x="159.111219" xlink:href="#mb675d88198" y="256.451094"/>
      </g>
     </g>
     <g id="text_2">
      <!-- 200 -->
      <g transform="translate(144.930828 277.145937)scale(0.17 -0.17)">
       <defs>
        <path d="M 3.125 0 
Q 3.609375 9.03125 6.859375 15.71875 
Q 10.109375 22.40625 19.53125 27.875 
L 28.90625 33.296875 
Q 35.203125 36.96875 37.75 39.546875 
Q 41.75 43.609375 41.75 48.828125 
Q 41.75 54.9375 38.078125 58.515625 
Q 34.421875 62.109375 28.328125 62.109375 
Q 19.28125 62.109375 15.828125 55.28125 
Q 13.96875 51.609375 13.765625 45.125 
L 4.828125 45.125 
Q 4.984375 54.25 8.203125 60.015625 
Q 13.921875 70.171875 28.375 70.171875 
Q 40.375 70.171875 45.921875 63.671875 
Q 51.46875 57.171875 51.46875 49.21875 
Q 51.46875 40.828125 45.5625 34.859375 
Q 42.140625 31.390625 33.296875 26.46875 
L 26.609375 22.75 
Q 21.828125 20.125 19.09375 17.71875 
Q 14.203125 13.484375 12.9375 8.296875 
L 51.125 8.296875 
L 51.125 0 
L 3.125 0 
z
" id="Helvetica-50"/>
       </defs>
       <use xlink:href="#Helvetica-50"/>
       <use x="55.615234" xlink:href="#Helvetica-48"/>
       <use x="111.230469" xlink:href="#Helvetica-48"/>
      </g>
     </g>
    </g>
    <g id="xtick_3">
     <g id="line2d_3">
      <g>
       <use style="stroke:#000000;" x="238.705823" xlink:href="#mb675d88198" y="256.451094"/>
      </g>
     </g>
     <g id="text_3">
      <!-- 400 -->
      <g transform="translate(224.525432 277.145937)scale(0.17 -0.17)">
       <defs>
        <path d="M 33.0625 24.75 
L 33.0625 56.453125 
L 10.640625 24.75 
z
M 33.203125 0 
L 33.203125 17.09375 
L 2.546875 17.09375 
L 2.546875 25.6875 
L 34.578125 70.125 
L 42 70.125 
L 42 24.75 
L 52.296875 24.75 
L 52.296875 17.09375 
L 42 17.09375 
L 42 0 
z
" id="Helvetica-52"/>
       </defs>
       <use xlink:href="#Helvetica-52"/>
       <use x="55.615234" xlink:href="#Helvetica-48"/>
       <use x="111.230469" xlink:href="#Helvetica-48"/>
      </g>
     </g>
    </g>
    <g id="xtick_4">
     <g id="line2d_4">
      <g>
       <use style="stroke:#000000;" x="318.300427" xlink:href="#mb675d88198" y="256.451094"/>
      </g>
     </g>
     <g id="text_4">
      <!-- 600 -->
      <g transform="translate(304.120036 277.145937)scale(0.17 -0.17)">
       <defs>
        <path d="M 29.25 70.21875 
Q 40.96875 70.21875 45.578125 64.140625 
Q 50.203125 58.0625 50.203125 51.609375 
L 41.5 51.609375 
Q 40.71875 55.765625 39.015625 58.109375 
Q 35.84375 62.5 29.390625 62.5 
Q 22.015625 62.5 17.671875 55.6875 
Q 13.328125 48.875 12.84375 36.1875 
Q 15.875 40.625 20.453125 42.828125 
Q 24.65625 44.78125 29.828125 44.78125 
Q 38.625 44.78125 45.15625 39.15625 
Q 51.703125 33.546875 51.703125 22.40625 
Q 51.703125 12.890625 45.5 5.53125 
Q 39.3125 -1.8125 27.828125 -1.8125 
Q 18.015625 -1.8125 10.890625 5.640625 
Q 3.765625 13.09375 3.765625 30.71875 
Q 3.765625 43.75 6.9375 52.828125 
Q 13.03125 70.21875 29.25 70.21875 
z
M 28.609375 6 
Q 35.546875 6 38.984375 10.65625 
Q 42.4375 15.328125 42.4375 21.6875 
Q 42.4375 27.046875 39.359375 31.90625 
Q 36.28125 36.765625 28.171875 36.765625 
Q 22.515625 36.765625 18.234375 33 
Q 13.96875 29.25 13.96875 21.6875 
Q 13.96875 15.046875 17.84375 10.515625 
Q 21.734375 6 28.609375 6 
z
" id="Helvetica-54"/>
       </defs>
       <use xlink:href="#Helvetica-54"/>
       <use x="55.615234" xlink:href="#Helvetica-48"/>
       <use x="111.230469" xlink:href="#Helvetica-48"/>
      </g>
     </g>
    </g>
    <g id="xtick_5">
     <g id="line2d_5">
      <g>
       <use style="stroke:#000000;" x="397.895031" xlink:href="#mb675d88198" y="256.451094"/>
      </g>
     </g>
     <g id="text_5">
      <!-- 800 -->
      <g transform="translate(383.71464 277.145937)scale(0.17 -0.17)">
       <defs>
        <path d="M 27.203125 40.625 
Q 33.015625 40.625 36.28125 43.875 
Q 39.546875 47.125 39.546875 51.609375 
Q 39.546875 55.515625 36.421875 58.78125 
Q 33.296875 62.0625 26.90625 62.0625 
Q 20.5625 62.0625 17.71875 58.78125 
Q 14.890625 55.515625 14.890625 51.125 
Q 14.890625 46.1875 18.546875 43.40625 
Q 22.21875 40.625 27.203125 40.625 
z
M 27.734375 6 
Q 33.84375 6 37.859375 9.296875 
Q 41.890625 12.59375 41.890625 19.140625 
Q 41.890625 25.921875 37.734375 29.4375 
Q 33.59375 32.953125 27.09375 32.953125 
Q 20.796875 32.953125 16.8125 29.359375 
Q 12.84375 25.78125 12.84375 19.4375 
Q 12.84375 13.96875 16.484375 9.984375 
Q 20.125 6 27.734375 6 
z
M 15.234375 37.25 
Q 11.578125 38.8125 9.515625 40.921875 
Q 5.671875 44.828125 5.671875 51.078125 
Q 5.671875 58.890625 11.328125 64.5 
Q 17 70.125 27.390625 70.125 
Q 37.453125 70.125 43.15625 64.8125 
Q 48.875 59.515625 48.875 52.4375 
Q 48.875 45.90625 45.5625 41.84375 
Q 43.703125 39.546875 39.796875 37.359375 
Q 44.140625 35.359375 46.625 32.765625 
Q 51.265625 27.875 51.265625 20.0625 
Q 51.265625 10.84375 45.0625 4.421875 
Q 38.875 -2 27.546875 -2 
Q 17.328125 -2 10.265625 3.53125 
Q 3.21875 9.078125 3.21875 19.625 
Q 3.21875 25.828125 6.25 30.34375 
Q 9.28125 34.859375 15.234375 37.25 
z
" id="Helvetica-56"/>
       </defs>
       <use xlink:href="#Helvetica-56"/>
       <use x="55.615234" xlink:href="#Helvetica-48"/>
       <use x="111.230469" xlink:href="#Helvetica-48"/>
      </g>
     </g>
    </g>
    <g id="text_6">
     <!-- Number of patterns -->
     <g transform="translate(147.940625 300.694375)scale(0.22 -0.22)">
      <defs>
       <path d="M 7.625 71.734375 
L 19.09375 71.734375 
L 55.328125 13.625 
L 55.328125 71.734375 
L 64.546875 71.734375 
L 64.546875 0 
L 53.65625 0 
L 16.890625 58.0625 
L 16.890625 0 
L 7.625 0 
z
M 35.453125 71.734375 
z
" id="Helvetica-78"/>
       <path d="M 15.234375 52.296875 
L 15.234375 17.578125 
Q 15.234375 13.578125 16.5 11.03125 
Q 18.84375 6.34375 25.25 6.34375 
Q 34.421875 6.34375 37.75 14.546875 
Q 39.546875 18.953125 39.546875 26.609375 
L 39.546875 52.296875 
L 48.34375 52.296875 
L 48.34375 0 
L 40.046875 0 
L 40.140625 7.71875 
Q 38.421875 4.734375 35.890625 2.6875 
Q 30.859375 -1.421875 23.6875 -1.421875 
Q 12.5 -1.421875 8.453125 6.0625 
Q 6.25 10.0625 6.25 16.75 
L 6.25 52.296875 
z
M 27.296875 53.5625 
z
" id="Helvetica-117"/>
       <path d="M 6.453125 52.296875 
L 15.140625 52.296875 
L 15.140625 44.875 
Q 18.265625 48.734375 20.796875 50.484375 
Q 25.140625 53.46875 30.671875 53.46875 
Q 36.921875 53.46875 40.71875 50.390625 
Q 42.875 48.640625 44.625 45.21875 
Q 47.5625 49.421875 51.515625 51.4375 
Q 55.46875 53.46875 60.40625 53.46875 
Q 70.953125 53.46875 74.75 45.84375 
Q 76.8125 41.75 76.8125 34.8125 
L 76.8125 0 
L 67.671875 0 
L 67.671875 36.328125 
Q 67.671875 41.546875 65.0625 43.5 
Q 62.453125 45.453125 58.6875 45.453125 
Q 53.515625 45.453125 49.78125 41.984375 
Q 46.046875 38.53125 46.046875 30.421875 
L 46.046875 0 
L 37.109375 0 
L 37.109375 34.125 
Q 37.109375 39.453125 35.84375 41.890625 
Q 33.84375 45.5625 28.375 45.5625 
Q 23.390625 45.5625 19.3125 41.703125 
Q 15.234375 37.84375 15.234375 27.734375 
L 15.234375 0 
L 6.453125 0 
z
" id="Helvetica-109"/>
       <path d="M 5.765625 71.96875 
L 14.3125 71.96875 
L 14.3125 45.953125 
Q 17.1875 49.703125 21.1875 51.671875 
Q 25.203125 53.65625 29.890625 53.65625 
Q 39.65625 53.65625 45.734375 46.9375 
Q 51.8125 40.234375 51.8125 27.15625 
Q 51.8125 14.75 45.796875 6.546875 
Q 39.796875 -1.65625 29.15625 -1.65625 
Q 23.1875 -1.65625 19.09375 1.21875 
Q 16.65625 2.9375 13.875 6.6875 
L 13.875 0 
L 5.765625 0 
z
M 28.609375 6.109375 
Q 35.75 6.109375 39.28125 11.765625 
Q 42.828125 17.4375 42.828125 26.703125 
Q 42.828125 34.96875 39.28125 40.375 
Q 35.75 45.796875 28.859375 45.796875 
Q 22.859375 45.796875 18.328125 41.359375 
Q 13.8125 36.921875 13.8125 26.703125 
Q 13.8125 19.34375 15.671875 14.75 
Q 19.140625 6.109375 28.609375 6.109375 
z
" id="Helvetica-98"/>
       <path d="M 28.21875 53.46875 
Q 33.796875 53.46875 39.015625 50.859375 
Q 44.234375 48.25 46.96875 44.09375 
Q 49.609375 40.140625 50.484375 34.859375 
Q 51.265625 31.25 51.265625 23.34375 
L 12.9375 23.34375 
Q 13.1875 15.375 16.703125 10.5625 
Q 20.21875 5.765625 27.59375 5.765625 
Q 34.46875 5.765625 38.578125 10.296875 
Q 40.921875 12.9375 41.890625 16.40625 
L 50.53125 16.40625 
Q 50.203125 13.53125 48.265625 9.984375 
Q 46.34375 6.453125 43.953125 4.203125 
Q 39.9375 0.296875 34.03125 -1.078125 
Q 30.859375 -1.859375 26.859375 -1.859375 
Q 17.09375 -1.859375 10.296875 5.25 
Q 3.515625 12.359375 3.515625 25.140625 
Q 3.515625 37.75 10.34375 45.609375 
Q 17.1875 53.46875 28.21875 53.46875 
z
M 42.234375 30.328125 
Q 41.703125 36.03125 39.75 39.453125 
Q 36.140625 45.796875 27.6875 45.796875 
Q 21.625 45.796875 17.515625 41.421875 
Q 13.421875 37.0625 13.1875 30.328125 
z
M 27.390625 53.5625 
z
" id="Helvetica-101"/>
       <path d="M 6.6875 52.296875 
L 15.046875 52.296875 
L 15.046875 43.265625 
Q 16.0625 45.90625 20.0625 49.6875 
Q 24.078125 53.46875 29.296875 53.46875 
Q 29.546875 53.46875 30.125 53.421875 
Q 30.71875 53.375 32.125 53.21875 
L 32.125 43.953125 
Q 31.34375 44.09375 30.6875 44.140625 
Q 30.03125 44.1875 29.25 44.1875 
Q 22.609375 44.1875 19.046875 39.90625 
Q 15.484375 35.640625 15.484375 30.078125 
L 15.484375 0 
L 6.6875 0 
z
" id="Helvetica-114"/>
       <path id="Helvetica-32"/>
       <path d="M 27.203125 5.671875 
Q 35.9375 5.671875 39.1875 12.28125 
Q 42.4375 18.890625 42.4375 27 
Q 42.4375 34.328125 40.09375 38.921875 
Q 36.375 46.140625 27.296875 46.140625 
Q 19.234375 46.140625 15.578125 39.984375 
Q 11.921875 33.84375 11.921875 25.140625 
Q 11.921875 16.796875 15.578125 11.234375 
Q 19.234375 5.671875 27.203125 5.671875 
z
M 27.546875 53.8125 
Q 37.640625 53.8125 44.625 47.0625 
Q 51.609375 40.328125 51.609375 27.25 
Q 51.609375 14.59375 45.453125 6.34375 
Q 39.3125 -1.90625 26.375 -1.90625 
Q 15.578125 -1.90625 9.21875 5.390625 
Q 2.875 12.703125 2.875 25 
Q 2.875 38.1875 9.5625 46 
Q 16.265625 53.8125 27.546875 53.8125 
z
M 27.25 53.5625 
z
" id="Helvetica-111"/>
       <path d="M 8.640625 60.25 
Q 8.84375 65.71875 10.546875 68.265625 
Q 13.625 72.75 22.40625 72.75 
Q 23.25 72.75 24.125 72.703125 
Q 25 72.65625 26.125 72.5625 
L 26.125 64.546875 
Q 24.75 64.65625 24.140625 64.671875 
Q 23.53125 64.703125 23 64.703125 
Q 19 64.703125 18.21875 62.625 
Q 17.4375 60.546875 17.4375 52.046875 
L 26.125 52.046875 
L 26.125 45.125 
L 17.328125 45.125 
L 17.328125 0 
L 8.640625 0 
L 8.640625 45.125 
L 1.375 45.125 
L 1.375 52.046875 
L 8.640625 52.046875 
L 8.640625 60.25 
z
" id="Helvetica-102"/>
       <path d="M 28.515625 5.90625 
Q 34.671875 5.90625 38.75 11.0625 
Q 42.828125 16.21875 42.828125 26.46875 
Q 42.828125 32.71875 41.015625 37.203125 
Q 37.59375 45.84375 28.515625 45.84375 
Q 19.390625 45.84375 16.015625 36.71875 
Q 14.203125 31.84375 14.203125 24.3125 
Q 14.203125 18.265625 16.015625 14.015625 
Q 19.4375 5.90625 28.515625 5.90625 
z
M 5.765625 52.046875 
L 14.3125 52.046875 
L 14.3125 45.125 
Q 16.9375 48.6875 20.0625 50.640625 
Q 24.515625 53.5625 30.515625 53.5625 
Q 39.40625 53.5625 45.609375 46.75 
Q 51.8125 39.9375 51.8125 27.296875 
Q 51.8125 10.203125 42.875 2.875 
Q 37.203125 -1.765625 29.6875 -1.765625 
Q 23.78125 -1.765625 19.78125 0.828125 
Q 17.4375 2.296875 14.546875 5.859375 
L 14.546875 -20.84375 
L 5.765625 -20.84375 
z
" id="Helvetica-112"/>
       <path d="M 13.1875 13.921875 
Q 13.1875 10.109375 15.96875 7.90625 
Q 18.75 5.71875 22.5625 5.71875 
Q 27.203125 5.71875 31.546875 7.859375 
Q 38.875 11.421875 38.875 19.53125 
L 38.875 26.609375 
Q 37.25 25.59375 34.703125 24.90625 
Q 32.171875 24.21875 29.734375 23.921875 
L 24.421875 23.25 
Q 19.625 22.609375 17.234375 21.234375 
Q 13.1875 18.953125 13.1875 13.921875 
z
M 34.46875 31.6875 
Q 37.5 32.078125 38.53125 34.234375 
Q 39.109375 35.40625 39.109375 37.59375 
Q 39.109375 42.09375 35.90625 44.109375 
Q 32.71875 46.140625 26.765625 46.140625 
Q 19.875 46.140625 17 42.4375 
Q 15.375 40.375 14.890625 36.328125 
L 6.6875 36.328125 
Q 6.9375 46 12.96875 49.78125 
Q 19 53.5625 26.953125 53.5625 
Q 36.1875 53.5625 41.9375 50.046875 
Q 47.65625 46.53125 47.65625 39.109375 
L 47.65625 8.984375 
Q 47.65625 7.625 48.21875 6.78125 
Q 48.78125 5.953125 50.59375 5.953125 
Q 51.171875 5.953125 51.90625 6.03125 
Q 52.640625 6.109375 53.46875 6.25 
L 53.46875 -0.25 
Q 51.421875 -0.828125 50.34375 -0.96875 
Q 49.265625 -1.125 47.40625 -1.125 
Q 42.875 -1.125 40.828125 2.09375 
Q 39.75 3.8125 39.3125 6.9375 
Q 36.625 3.421875 31.59375 0.828125 
Q 26.5625 -1.765625 20.515625 -1.765625 
Q 13.234375 -1.765625 8.609375 2.65625 
Q 4 7.078125 4 13.71875 
Q 4 21 8.546875 25 
Q 13.09375 29 20.453125 29.9375 
z
M 27.203125 53.5625 
z
" id="Helvetica-97"/>
       <path d="M 8.203125 66.890625 
L 17.09375 66.890625 
L 17.09375 52.296875 
L 25.4375 52.296875 
L 25.4375 45.125 
L 17.09375 45.125 
L 17.09375 10.984375 
Q 17.09375 8.25 18.953125 7.328125 
Q 19.96875 6.78125 22.359375 6.78125 
Q 23 6.78125 23.734375 6.8125 
Q 24.46875 6.84375 25.4375 6.9375 
L 25.4375 0 
Q 23.921875 -0.4375 22.28125 -0.625 
Q 20.65625 -0.828125 18.75 -0.828125 
Q 12.59375 -0.828125 10.390625 2.3125 
Q 8.203125 5.46875 8.203125 10.5 
L 8.203125 45.125 
L 1.125 45.125 
L 1.125 52.296875 
L 8.203125 52.296875 
z
" id="Helvetica-116"/>
       <path d="M 6.453125 52.296875 
L 14.796875 52.296875 
L 14.796875 44.875 
Q 18.5 49.46875 22.65625 51.46875 
Q 26.8125 53.46875 31.890625 53.46875 
Q 43.015625 53.46875 46.921875 45.703125 
Q 49.078125 41.453125 49.078125 33.546875 
L 49.078125 0 
L 40.140625 0 
L 40.140625 32.953125 
Q 40.140625 37.75 38.71875 40.671875 
Q 36.375 45.5625 30.21875 45.5625 
Q 27.09375 45.5625 25.09375 44.921875 
Q 21.484375 43.84375 18.75 40.625 
Q 16.546875 38.03125 15.890625 35.265625 
Q 15.234375 32.515625 15.234375 27.390625 
L 15.234375 0 
L 6.453125 0 
z
M 27.09375 53.5625 
z
" id="Helvetica-110"/>
       <path d="M 11.671875 16.40625 
Q 12.0625 12.015625 13.875 9.671875 
Q 17.1875 5.421875 25.390625 5.421875 
Q 30.28125 5.421875 33.984375 7.546875 
Q 37.703125 9.671875 37.703125 14.109375 
Q 37.703125 17.484375 34.71875 19.234375 
Q 32.8125 20.3125 27.203125 21.734375 
L 20.21875 23.484375 
Q 13.53125 25.140625 10.359375 27.203125 
Q 4.6875 30.765625 4.6875 37.0625 
Q 4.6875 44.484375 10.03125 49.0625 
Q 15.375 53.65625 24.421875 53.65625 
Q 36.234375 53.65625 41.453125 46.734375 
Q 44.734375 42.328125 44.625 37.25 
L 36.328125 37.25 
Q 36.078125 40.234375 34.234375 42.671875 
Q 31.203125 46.140625 23.734375 46.140625 
Q 18.75 46.140625 16.1875 44.234375 
Q 13.625 42.328125 13.625 39.203125 
Q 13.625 35.796875 17 33.734375 
Q 18.953125 32.515625 22.75 31.59375 
L 28.5625 30.171875 
Q 38.03125 27.875 41.265625 25.734375 
Q 46.390625 22.359375 46.390625 15.140625 
Q 46.390625 8.15625 41.09375 3.078125 
Q 35.796875 -2 24.953125 -2 
Q 13.28125 -2 8.421875 3.296875 
Q 3.5625 8.59375 3.21875 16.40625 
z
M 24.65625 53.5625 
z
" id="Helvetica-115"/>
      </defs>
      <use xlink:href="#Helvetica-78"/>
      <use x="72.216797" xlink:href="#Helvetica-117"/>
      <use x="127.832031" xlink:href="#Helvetica-109"/>
      <use x="211.132812" xlink:href="#Helvetica-98"/>
      <use x="266.748047" xlink:href="#Helvetica-101"/>
      <use x="322.363281" xlink:href="#Helvetica-114"/>
      <use x="355.664062" xlink:href="#Helvetica-32"/>
      <use x="383.447266" xlink:href="#Helvetica-111"/>
      <use x="439.0625" xlink:href="#Helvetica-102"/>
      <use x="466.845703" xlink:href="#Helvetica-32"/>
      <use x="494.628906" xlink:href="#Helvetica-112"/>
      <use x="550.244141" xlink:href="#Helvetica-97"/>
      <use x="605.859375" xlink:href="#Helvetica-116"/>
      <use x="633.642578" xlink:href="#Helvetica-116"/>
      <use x="661.425781" xlink:href="#Helvetica-101"/>
      <use x="717.041016" xlink:href="#Helvetica-114"/>
      <use x="750.341797" xlink:href="#Helvetica-110"/>
      <use x="805.957031" xlink:href="#Helvetica-115"/>
     </g>
    </g>
   </g>
   <g id="matplotlib.axis_2">
    <g id="ytick_1">
     <g id="line2d_6">
      <defs>
       <path d="M 0 0 
L -5 0 
" id="m36af9fb40e" style="stroke:#000000;"/>
      </defs>
      <g>
       <use style="stroke:#000000;" x="63.697188" xlink:href="#m36af9fb40e" y="247.031654"/>
      </g>
     </g>
     <g id="text_7">
      <!-- 0.0 -->
      <g transform="translate(31.567188 253.129075)scale(0.17 -0.17)">
       <defs>
        <path d="M 8.546875 10.640625 
L 18.75 10.640625 
L 18.75 0 
L 8.546875 0 
z
" id="Helvetica-46"/>
       </defs>
       <use xlink:href="#Helvetica-48"/>
       <use x="55.615234" xlink:href="#Helvetica-46"/>
       <use x="83.398438" xlink:href="#Helvetica-48"/>
      </g>
     </g>
    </g>
    <g id="ytick_2">
     <g id="line2d_7">
      <g>
       <use style="stroke:#000000;" x="63.697188" xlink:href="#m36af9fb40e" y="205.48954"/>
      </g>
     </g>
     <g id="text_8">
      <!-- 0.2 -->
      <g transform="translate(31.567188 211.586962)scale(0.17 -0.17)">
       <use xlink:href="#Helvetica-48"/>
       <use x="55.615234" xlink:href="#Helvetica-46"/>
       <use x="83.398438" xlink:href="#Helvetica-50"/>
      </g>
     </g>
    </g>
    <g id="ytick_3">
     <g id="line2d_8">
      <g>
       <use style="stroke:#000000;" x="63.697188" xlink:href="#m36af9fb40e" y="163.947427"/>
      </g>
     </g>
     <g id="text_9">
      <!-- 0.4 -->
      <g transform="translate(31.567188 170.044849)scale(0.17 -0.17)">
       <use xlink:href="#Helvetica-48"/>
       <use x="55.615234" xlink:href="#Helvetica-46"/>
       <use x="83.398438" xlink:href="#Helvetica-52"/>
      </g>
     </g>
    </g>
    <g id="ytick_4">
     <g id="line2d_9">
      <g>
       <use style="stroke:#000000;" x="63.697188" xlink:href="#m36af9fb40e" y="122.405313"/>
      </g>
     </g>
     <g id="text_10">
      <!-- 0.6 -->
      <g transform="translate(31.567188 128.502735)scale(0.17 -0.17)">
       <use xlink:href="#Helvetica-48"/>
       <use x="55.615234" xlink:href="#Helvetica-46"/>
       <use x="83.398438" xlink:href="#Helvetica-54"/>
      </g>
     </g>
    </g>
    <g id="ytick_5">
     <g id="line2d_10">
      <g>
       <use style="stroke:#000000;" x="63.697188" xlink:href="#m36af9fb40e" y="80.8632"/>
      </g>
     </g>
     <g id="text_11">
      <!-- 0.8 -->
      <g transform="translate(31.567188 86.960622)scale(0.17 -0.17)">
       <use xlink:href="#Helvetica-48"/>
       <use x="55.615234" xlink:href="#Helvetica-46"/>
       <use x="83.398438" xlink:href="#Helvetica-56"/>
      </g>
     </g>
    </g>
    <g id="ytick_6">
     <g id="line2d_11">
      <g>
       <use style="stroke:#000000;" x="63.697188" xlink:href="#m36af9fb40e" y="39.321087"/>
      </g>
     </g>
     <g id="text_12">
      <!-- 1.0 -->
      <g transform="translate(31.567188 45.418509)scale(0.17 -0.17)">
       <defs>
        <path d="M 9.578125 49.515625 
L 9.578125 56.25 
Q 19.09375 57.171875 22.84375 59.34375 
Q 26.609375 61.53125 28.46875 69.625 
L 35.40625 69.625 
L 35.40625 0 
L 26.03125 0 
L 26.03125 49.515625 
z
" id="Helvetica-49"/>
       </defs>
       <use xlink:href="#Helvetica-49"/>
       <use x="55.615234" xlink:href="#Helvetica-46"/>
       <use x="83.398438" xlink:href="#Helvetica-48"/>
      </g>
     </g>
    </g>
    <g id="text_13">
     <!-- MI -->
     <g transform="translate(22.981563 154.934922)rotate(-90)scale(0.22 -0.22)">
      <defs>
       <path d="M 7.375 71.734375 
L 21.296875 71.734375 
L 41.890625 11.078125 
L 62.359375 71.734375 
L 76.125 71.734375 
L 76.125 0 
L 66.890625 0 
L 66.890625 42.328125 
Q 66.890625 44.53125 66.984375 49.609375 
Q 67.09375 54.6875 67.09375 60.5 
L 46.625 0 
L 37.015625 0 
L 16.40625 60.5 
L 16.40625 58.296875 
Q 16.40625 55.671875 16.53125 50.265625 
Q 16.65625 44.875 16.65625 42.328125 
L 16.65625 0 
L 7.375 0 
z
" id="Helvetica-77"/>
       <path d="M 9.8125 71.734375 
L 19.625 71.734375 
L 19.625 0 
L 9.8125 0 
z
" id="Helvetica-73"/>
      </defs>
      <use xlink:href="#Helvetica-77"/>
      <use x="83.300781" xlink:href="#Helvetica-73"/>
     </g>
    </g>
   </g>
   <g id="line2d_12">
    <path clip-path="url(#ped88064f45)" d="M 79.914588 39.321087 
L 93.843644 39.321087 
L 94.241617 39.448901 
L 94.63959 39.321087 
L 95.435536 39.321087 
L 95.833509 39.437491 
L 96.231482 39.434963 
L 96.629455 39.623023 
L 97.425401 39.42802 
L 97.823374 39.689307 
L 98.221347 39.599729 
L 99.017293 40.58699 
L 99.415266 40.756498 
L 99.813239 56.175852 
L 100.211212 56.506812 
L 100.609185 56.423315 
L 101.007158 67.389398 
L 101.405131 56.511541 
L 101.803104 64.419762 
L 102.201077 82.256763 
L 102.59905 89.773829 
L 102.997023 115.937484 
L 103.394996 122.971615 
L 103.792969 153.588075 
L 104.190942 150.674589 
L 104.588915 166.820424 
L 104.986888 165.499332 
L 105.782834 183.200247 
L 106.180807 176.102267 
L 106.57878 190.764098 
L 106.976753 197.468309 
L 107.374726 196.723132 
L 107.772699 198.168868 
L 108.170672 199.042567 
L 108.568646 200.870956 
L 108.966619 210.553047 
L 109.364592 206.289734 
L 109.762565 206.839906 
L 110.160538 213.76597 
L 110.558511 212.784297 
L 111.354457 216.871174 
L 111.75243 221.215946 
L 112.548376 218.409757 
L 112.946349 219.912868 
L 113.742295 216.146887 
L 114.140268 217.053739 
L 114.538241 218.876619 
L 115.334187 223.230938 
L 115.73216 224.892192 
L 116.130133 220.80522 
L 116.528106 224.331009 
L 116.926079 223.050018 
L 117.324052 222.397163 
L 117.722025 224.345522 
L 118.119998 223.319056 
L 118.517971 225.490443 
L 118.915944 223.945279 
L 119.313917 225.200055 
L 120.109863 226.548981 
L 120.507836 227.804232 
L 120.905809 227.368801 
L 121.303782 227.723138 
L 121.701755 226.088736 
L 122.099728 227.072386 
L 122.497701 226.555694 
L 122.895674 228.461519 
L 123.293647 228.579729 
L 123.69162 229.816752 
L 124.089593 229.292165 
L 124.487566 229.540004 
L 124.885539 228.675772 
L 125.283512 228.884257 
L 125.681485 230.595006 
L 126.079458 230.040769 
L 126.477431 230.461073 
L 126.875404 230.591349 
L 127.273377 229.245111 
L 127.67135 231.841552 
L 128.069323 231.143292 
L 128.467297 232.802394 
L 128.86527 232.835185 
L 129.263243 232.213211 
L 129.661216 232.567277 
L 130.059189 232.1029 
L 130.457162 232.508632 
L 130.855135 234.78302 
L 131.253108 235.587301 
L 131.651081 235.436007 
L 132.049054 235.120516 
L 132.447027 234.986692 
L 132.845 233.878264 
L 133.242973 233.748928 
L 133.640946 235.701458 
L 134.038919 235.761536 
L 134.436892 236.127937 
L 135.232838 235.117299 
L 135.630811 234.055541 
L 136.028784 236.531373 
L 136.426757 235.585132 
L 136.82473 235.042108 
L 137.222703 235.90923 
L 137.620676 234.951412 
L 138.814595 237.136274 
L 139.212568 236.15422 
L 139.610541 236.10307 
L 140.008514 236.858328 
L 140.406487 236.709195 
L 141.202433 237.01574 
L 141.600406 238.629391 
L 141.998379 237.925047 
L 142.396352 237.746855 
L 142.794325 237.106611 
L 143.192298 237.08389 
L 143.590271 237.202993 
L 143.988244 238.165611 
L 144.78419 238.232235 
L 145.182163 237.466598 
L 145.580136 237.830892 
L 145.978109 237.828685 
L 146.376082 237.441855 
L 146.774055 237.457404 
L 147.172028 237.053934 
L 147.570001 237.553834 
L 147.967975 237.763405 
L 148.763921 237.881235 
L 149.161894 237.768002 
L 149.559867 237.771119 
L 150.355813 238.703009 
L 151.151759 239.748938 
L 151.549732 239.389289 
L 151.947705 239.542377 
L 152.345678 239.220296 
L 153.141624 238.920917 
L 153.539597 239.795961 
L 153.93757 239.435457 
L 154.335543 239.554483 
L 154.733516 239.268771 
L 155.529462 239.926868 
L 155.927435 239.315152 
L 156.325408 240.496195 
L 156.723381 240.463593 
L 157.121354 240.586014 
L 157.519327 240.999361 
L 157.9173 240.707348 
L 158.315273 239.782393 
L 158.713246 240.241265 
L 159.111219 239.926887 
L 159.509192 239.887644 
L 159.907165 240.260407 
L 160.305138 239.971242 
L 160.703111 240.594217 
L 161.101084 240.280734 
L 161.499057 240.659683 
L 161.89703 240.137479 
L 162.295003 240.773253 
L 162.692976 240.866672 
L 163.090949 240.467455 
L 163.488922 240.440956 
L 163.886895 240.783463 
L 164.284868 241.443787 
L 164.682841 240.704082 
L 165.478787 241.479979 
L 166.274733 241.406443 
L 166.672706 241.624554 
L 167.070679 241.101852 
L 167.468652 241.819592 
L 167.866626 241.260419 
L 168.264599 241.009631 
L 168.662572 241.102432 
L 169.060545 240.834207 
L 169.458518 241.29082 
L 169.856491 240.926963 
L 170.254464 242.078094 
L 170.652437 242.254841 
L 171.05041 242.187053 
L 171.448383 241.773517 
L 171.846356 241.886078 
L 172.244329 241.583828 
L 172.642302 241.530995 
L 173.040275 241.606398 
L 173.438248 241.275714 
L 173.836221 241.527444 
L 174.234194 241.58005 
L 174.632167 242.065146 
L 175.03014 241.459629 
L 175.428113 241.640033 
L 175.826086 241.452891 
L 176.224059 242.108595 
L 176.622032 242.340368 
L 177.417978 241.744742 
L 177.815951 242.507185 
L 178.213924 242.072943 
L 178.611897 241.991042 
L 179.00987 242.445358 
L 179.407843 242.185913 
L 179.805816 242.245709 
L 180.203789 241.865222 
L 180.601762 241.859943 
L 180.999735 242.051333 
L 181.795681 242.124767 
L 182.193654 242.720565 
L 182.591627 242.597332 
L 182.9896 242.800186 
L 183.387573 242.318408 
L 183.785546 242.785792 
L 184.183519 242.705988 
L 184.581492 243.126445 
L 184.979465 242.960144 
L 185.377438 242.997676 
L 185.775411 242.81276 
L 186.173384 242.837418 
L 186.571357 243.045807 
L 186.96933 243.092826 
L 187.367303 242.888978 
L 187.765277 242.503374 
L 188.561223 242.084706 
L 189.755142 242.822372 
L 190.153115 243.295452 
L 190.551088 242.929426 
L 191.745007 242.796477 
L 192.14298 243.012109 
L 192.938926 243.069063 
L 193.336899 242.926509 
L 193.734872 242.630994 
L 194.132845 242.510155 
L 194.530818 243.067513 
L 194.928791 242.937616 
L 195.724737 243.695363 
L 196.12271 243.421419 
L 196.520683 243.609458 
L 197.316629 243.029571 
L 197.714602 243.103657 
L 198.112575 243.410408 
L 199.704467 243.051843 
L 200.10244 243.270373 
L 200.500413 243.240107 
L 200.898386 243.346948 
L 201.296359 243.22565 
L 201.694332 243.621674 
L 202.092305 243.758414 
L 202.490278 244.043458 
L 203.286224 243.89199 
L 204.08217 243.447049 
L 204.480143 243.738898 
L 205.674062 243.344756 
L 206.072035 243.546267 
L 206.867981 244.216201 
L 207.265954 243.979454 
L 207.663928 244.128222 
L 208.061901 244.076742 
L 208.459874 244.161528 
L 208.857847 244.033302 
L 209.25582 243.563413 
L 209.653793 243.573213 
L 210.051766 244.011975 
L 210.449739 243.894901 
L 210.847712 244.095689 
L 211.245685 244.042009 
L 211.643658 244.109999 
L 212.041631 243.924604 
L 212.439604 243.951652 
L 212.837577 244.239037 
L 214.031496 243.874167 
L 214.429469 243.982286 
L 215.225415 243.807113 
L 215.623388 243.625655 
L 216.419334 244.025559 
L 218.409199 243.304572 
L 218.807172 243.292169 
L 219.205145 243.423187 
L 219.603118 243.986907 
L 220.001091 243.649608 
L 220.399064 243.737931 
L 220.797037 244.092944 
L 221.990956 244.353877 
L 222.388929 244.137237 
L 222.786902 244.337276 
L 223.184875 244.083357 
L 224.378794 244.268102 
L 224.776767 244.125479 
L 225.17474 244.509924 
L 225.970686 244.451969 
L 226.766632 244.019208 
L 227.164605 244.059429 
L 227.562579 243.962914 
L 227.960552 244.191721 
L 228.358525 244.100717 
L 228.756498 243.872209 
L 229.154471 244.421637 
L 229.552444 244.169512 
L 229.950417 244.350292 
L 230.34839 244.365064 
L 230.746363 244.025589 
L 231.144336 244.29503 
L 231.940282 244.290989 
L 232.338255 243.961297 
L 232.736228 244.077101 
L 233.134201 243.918604 
L 233.930147 244.630913 
L 234.32812 244.255638 
L 234.726093 244.562708 
L 235.920012 244.343714 
L 236.317985 244.623124 
L 237.511904 244.255313 
L 238.30785 244.082129 
L 238.705823 244.638706 
L 239.501769 244.582632 
L 239.899742 244.316637 
L 240.297715 244.731553 
L 241.093661 244.598341 
L 241.889607 244.362704 
L 243.083526 244.553399 
L 243.481499 244.887353 
L 243.879472 244.67157 
L 244.675418 244.733543 
L 245.471364 244.48524 
L 245.869337 244.470127 
L 246.26731 244.586609 
L 247.859203 244.632756 
L 248.257176 244.70992 
L 248.655149 244.657859 
L 249.053122 244.902638 
L 249.451095 244.64632 
L 250.247041 244.747505 
L 251.042987 244.549668 
L 251.44096 244.872499 
L 251.838933 244.769889 
L 252.236906 244.873413 
L 253.032852 244.567825 
L 253.430825 244.606416 
L 253.828798 244.854455 
L 254.624744 244.493276 
L 255.022717 244.848148 
L 255.42069 244.827606 
L 255.818663 244.661233 
L 256.216636 244.75619 
L 256.614609 244.965833 
L 257.410555 245.115844 
L 257.808528 244.927935 
L 259.002447 244.876668 
L 259.40042 244.774584 
L 259.798393 244.918478 
L 260.196366 244.668795 
L 260.594339 244.992532 
L 261.390285 244.828786 
L 262.186231 244.804421 
L 262.584204 245.033308 
L 262.982177 244.877118 
L 263.38015 244.960611 
L 263.778123 244.757281 
L 264.176096 244.955042 
L 264.574069 244.836527 
L 264.972042 245.067056 
L 265.370015 245.061324 
L 265.767988 244.781554 
L 266.165961 244.844453 
L 266.563934 245.036931 
L 266.961908 244.94343 
L 267.757854 245.195918 
L 268.5538 245.089599 
L 269.747719 244.740911 
L 270.543665 245.217199 
L 271.339611 245.073883 
L 271.737584 245.372482 
L 272.53353 245.153177 
L 272.931503 245.205935 
L 273.727449 244.806563 
L 274.125422 245.200009 
L 274.523395 245.012657 
L 274.921368 245.164503 
L 276.115287 244.994892 
L 276.51326 245.206566 
L 277.707179 245.001431 
L 278.503125 245.132954 
L 278.901098 244.952087 
L 279.299071 245.024143 
L 279.697044 244.833507 
L 280.49299 245.051459 
L 281.686909 245.143752 
L 282.482855 245.161724 
L 284.074747 244.882497 
L 284.47272 245.372474 
L 285.268666 245.406069 
L 286.064612 245.491728 
L 286.462585 245.364406 
L 286.860559 245.565579 
L 287.258532 245.354891 
L 288.054478 245.546287 
L 289.248397 245.22005 
L 289.64637 245.538254 
L 290.044343 245.545183 
L 290.442316 245.374709 
L 291.238262 245.50756 
L 291.636235 245.196557 
L 293.228127 245.400596 
L 294.024073 245.398756 
L 294.422046 245.318853 
L 294.820019 245.450077 
L 295.217992 245.720263 
L 295.615965 245.515966 
L 296.013938 245.593486 
L 296.411911 245.337962 
L 296.809884 245.462302 
L 297.207857 245.435862 
L 297.60583 245.533341 
L 298.401776 245.286208 
L 298.799749 245.229064 
L 299.197722 245.575998 
L 299.595695 245.385414 
L 299.993668 245.350389 
L 300.391641 245.538321 
L 302.381506 245.07403 
L 303.177452 245.441548 
L 303.973398 245.326811 
L 304.371371 245.460573 
L 304.769344 245.254615 
L 305.167317 245.215015 
L 305.56529 245.329027 
L 306.361236 245.230045 
L 306.75921 245.42557 
L 309.545021 245.379838 
L 309.942994 245.632261 
L 311.534886 245.14279 
L 311.932859 245.408073 
L 313.126778 245.22421 
L 313.524751 245.44011 
L 313.922724 245.394707 
L 314.320697 245.502628 
L 314.71867 245.339746 
L 315.514616 245.491793 
L 316.310562 245.315146 
L 317.504481 245.501458 
L 318.300427 245.393323 
L 319.096373 245.466638 
L 320.290292 245.298666 
L 320.688265 245.580503 
L 321.086238 245.39038 
L 321.882184 245.460655 
L 325.861914 245.380203 
L 326.259887 245.573537 
L 327.055834 245.395553 
L 327.453807 245.608485 
L 328.249753 245.580155 
L 329.045699 245.55764 
L 331.433537 245.370309 
L 331.83151 245.517485 
L 332.229483 245.284408 
L 332.627456 245.562499 
L 333.025429 245.592554 
L 333.423402 245.475507 
L 333.821375 245.607007 
L 334.219348 245.561199 
L 334.617321 245.377126 
L 335.015294 245.533582 
L 335.81124 245.376779 
L 336.209213 245.570464 
L 337.005159 245.614533 
L 338.597051 245.638967 
L 340.188943 245.766216 
L 340.586916 245.610077 
L 341.780835 245.605729 
L 342.178808 245.437269 
L 342.576781 245.630542 
L 342.974754 245.589241 
L 343.372727 245.771159 
L 344.168673 245.583616 
L 344.566646 245.467089 
L 346.158539 245.534125 
L 346.954485 245.662863 
L 347.352458 245.474426 
L 350.138269 245.879103 
L 350.934215 245.72656 
L 352.128134 245.562037 
L 353.322053 245.73404 
L 353.720026 245.666011 
L 354.515972 245.75846 
L 354.913945 245.690982 
L 355.311918 245.744341 
L 355.709891 245.653125 
L 356.107864 245.743161 
L 356.90381 245.757636 
L 357.301783 245.830591 
L 358.097729 245.526825 
L 358.893675 245.435068 
L 360.087594 245.795295 
L 360.485567 245.622658 
L 361.281513 245.829919 
L 361.679486 245.691982 
L 362.077459 245.839674 
L 364.067324 245.612365 
L 364.465297 245.833784 
L 370.03692 245.621784 
L 370.434893 245.75486 
L 373.220704 245.788022 
L 373.618677 245.747882 
L 374.01665 245.851769 
L 375.608542 245.628786 
L 376.006515 245.853381 
L 376.802461 245.650428 
L 377.200434 245.895641 
L 377.99638 245.676469 
L 378.394353 245.530763 
L 378.792326 245.600345 
L 379.190299 245.898584 
L 379.588272 245.784911 
L 379.986245 245.835352 
L 380.782191 245.673321 
L 381.97611 245.69703 
L 383.170029 245.857192 
L 383.568002 245.682796 
L 384.363948 246.025727 
L 384.761921 245.790906 
L 385.159894 245.798853 
L 385.557867 245.629392 
L 386.751787 245.796395 
L 387.14976 245.722391 
L 388.343679 245.802094 
L 389.935571 245.745618 
L 390.333544 245.899378 
L 392.323409 245.827812 
L 392.721382 246.002802 
L 394.711247 245.718712 
L 395.10922 245.829247 
L 395.905166 245.615285 
L 396.303139 245.879967 
L 396.701112 245.740795 
L 397.099085 245.910513 
L 397.895031 245.951057 
L 398.293004 245.845652 
L 398.690977 245.977304 
L 399.08895 245.87525 
L 399.486923 246.11157 
L 401.874761 245.777168 
L 403.466653 245.75355 
L 403.864626 245.877073 
L 404.262599 245.736532 
L 404.262599 245.736532 
" style="fill:none;stroke:#1f77b4;stroke-linecap:square;"/>
   </g>
   <g id="patch_3">
    <path d="M 63.697188 256.451094 
L 63.697188 28.981563 
" style="fill:none;stroke:#000000;stroke-linecap:square;stroke-linejoin:miter;stroke-width:0.8;"/>
   </g>
   <g id="patch_4">
    <path d="M 420.48 256.451094 
L 420.48 28.981563 
" style="fill:none;stroke:#000000;stroke-linecap:square;stroke-linejoin:miter;stroke-width:0.8;"/>
   </g>
   <g id="patch_5">
    <path d="M 63.697188 256.451094 
L 420.48 256.451094 
" style="fill:none;stroke:#000000;stroke-linecap:square;stroke-linejoin:miter;stroke-width:0.8;"/>
   </g>
   <g id="patch_6">
    <path d="M 63.697188 28.981563 
L 420.48 28.981563 
" style="fill:none;stroke:#000000;stroke-linecap:square;stroke-linejoin:miter;stroke-width:0.8;"/>
   </g>
   <g id="text_14">
    <!-- N = 708, $W$ -->
    <g transform="translate(186.758594 22.981562)scale(0.22 -0.22)">
     <defs>
      <path d="M 55.421875 40.140625 
L 55.421875 31.9375 
L 4.5 31.9375 
L 4.5 40.140625 
z
M 55.421875 19.1875 
L 55.421875 10.84375 
L 4.5 10.84375 
L 4.5 19.1875 
z
" id="Helvetica-61"/>
      <path d="M 52.296875 68.75 
L 52.296875 61.078125 
Q 48.921875 57.8125 43.328125 49.703125 
Q 37.75 41.609375 33.453125 32.234375 
Q 29.203125 23.09375 27 15.578125 
Q 25.59375 10.75 23.34375 0 
L 13.625 0 
Q 16.9375 20.015625 28.265625 39.84375 
Q 34.96875 51.46875 42.328125 59.90625 
L 3.65625 59.90625 
L 3.65625 68.75 
z
" id="Helvetica-55"/>
      <path d="M 8.296875 -10.203125 
Q 11.671875 -9.625 13.03125 -5.46875 
Q 13.765625 -3.265625 13.765625 -1.21875 
Q 13.765625 -0.875 13.734375 -0.609375 
Q 13.71875 -0.34375 13.625 0 
L 8.296875 0 
L 8.296875 10.640625 
L 18.75 10.640625 
L 18.75 0.78125 
Q 18.75 -5.03125 16.40625 -9.421875 
Q 14.0625 -13.8125 8.296875 -14.84375 
z
" id="Helvetica-44"/>
      <path d="M 17.828125 -1.125 
L 13.1875 62.59375 
Q 12.84375 64.0625 10.984375 64.421875 
Q 9.125 64.796875 6.390625 64.796875 
Q 5.421875 64.796875 5.421875 66.109375 
Q 5.765625 67.390625 5.953125 67.84375 
Q 6.15625 68.3125 7.078125 68.3125 
L 30.90625 68.3125 
Q 31.890625 68.3125 31.890625 67 
Q 31.5 64.796875 30.609375 64.796875 
Q 22.609375 64.796875 22.125 62.015625 
L 25.6875 11.53125 
L 50.6875 55.078125 
L 50.203125 62.59375 
Q 49.859375 64.0625 48 64.421875 
Q 46.140625 64.796875 43.40625 64.796875 
Q 42.390625 64.796875 42.390625 66.109375 
Q 42.71875 67.390625 42.90625 67.84375 
Q 43.109375 68.3125 44.09375 68.3125 
L 67.921875 68.3125 
Q 68.890625 68.3125 68.890625 67 
Q 68.84375 66.75 68.703125 66.15625 
Q 68.5625 65.578125 68.3125 65.1875 
Q 68.0625 64.796875 67.578125 64.796875 
Q 59.515625 64.796875 59.078125 62.015625 
L 59.078125 61.28125 
L 62.703125 11.53125 
L 89.890625 58.984375 
Q 90.484375 60.0625 90.484375 61.078125 
Q 90.484375 63.140625 88.46875 63.96875 
Q 86.46875 64.796875 83.984375 64.796875 
Q 83.015625 64.796875 83.015625 66.109375 
Q 83.203125 66.890625 83.328125 67.328125 
Q 83.453125 67.78125 83.765625 68.046875 
Q 84.078125 68.3125 84.71875 68.3125 
L 103.8125 68.3125 
Q 104.78125 68.3125 104.78125 67 
Q 104.734375 66.75 104.578125 66.140625 
Q 104.4375 65.53125 104.171875 65.15625 
Q 103.90625 64.796875 103.515625 64.796875 
Q 96.390625 64.796875 92.671875 58.296875 
Q 92.390625 58.015625 92.390625 58.015625 
L 58.5 -1.125 
Q 57.953125 -2.203125 56.78125 -2.203125 
L 56 -2.203125 
Q 54.78125 -2.203125 54.78125 -1.125 
L 50.984375 50.390625 
L 21.578125 -1.125 
Q 20.84375 -2.203125 19.828125 -2.203125 
L 19 -2.203125 
Q 17.828125 -2.203125 17.828125 -1.125 
z
" id="Cmmi10-87"/>
     </defs>
     <use transform="translate(0 0.265625)" xlink:href="#Helvetica-78"/>
     <use transform="translate(72.216797 0.265625)" xlink:href="#Helvetica-32"/>
     <use transform="translate(100 0.265625)" xlink:href="#Helvetica-61"/>
     <use transform="translate(158.398438 0.265625)" xlink:href="#Helvetica-32"/>
     <use transform="translate(186.181641 0.265625)" xlink:href="#Helvetica-55"/>
     <use transform="translate(241.796875 0.265625)" xlink:href="#Helvetica-48"/>
     <use transform="translate(297.412109 0.265625)" xlink:href="#Helvetica-56"/>
     <use transform="translate(353.027344 0.265625)" xlink:href="#Helvetica-44"/>
     <use transform="translate(380.810547 0.265625)" xlink:href="#Helvetica-32"/>
     <use transform="translate(408.59375 0.265625)" xlink:href="#Cmmi10-87"/>
    </g>
   </g>
   <g id="legend_1">
    <g id="patch_7">
     <path d="M 192.958125 73.700312 
L 406.48 73.700312 
Q 410.48 73.700312 410.48 69.700312 
L 410.48 42.981562 
Q 410.48 38.981562 406.48 38.981562 
L 192.958125 38.981562 
Q 188.958125 38.981562 188.958125 42.981562 
L 188.958125 69.700312 
Q 188.958125 73.700312 192.958125 73.700312 
z
" style="fill:#ffffff;opacity:0.8;stroke:#cccccc;stroke-linejoin:miter;"/>
    </g>
    <g id="line2d_13">
     <path d="M 196.958125 54.531563 
L 236.958125 54.531563 
" style="fill:none;stroke:#1f77b4;stroke-linecap:square;"/>
    </g>
    <g id="line2d_14"/>
    <g id="text_15">
     <!-- final, corrupt=0.0 -->
     <g transform="translate(252.958125 61.531563)scale(0.2 -0.2)">
      <defs>
       <path d="M 6.453125 52.046875 
L 15.375 52.046875 
L 15.375 0 
L 6.453125 0 
z
M 6.453125 71.734375 
L 15.375 71.734375 
L 15.375 61.765625 
L 6.453125 61.765625 
z
" id="Helvetica-105"/>
       <path d="M 6.6875 71.734375 
L 15.484375 71.734375 
L 15.484375 0 
L 6.6875 0 
z
" id="Helvetica-108"/>
       <path d="M 26.609375 53.8125 
Q 35.453125 53.8125 40.984375 49.515625 
Q 46.53125 45.21875 47.65625 34.71875 
L 39.109375 34.71875 
Q 38.328125 39.546875 35.546875 42.75 
Q 32.765625 45.953125 26.609375 45.953125 
Q 18.21875 45.953125 14.59375 37.75 
Q 12.25 32.421875 12.25 24.609375 
Q 12.25 16.75 15.5625 11.375 
Q 18.890625 6 26.03125 6 
Q 31.5 6 34.6875 9.34375 
Q 37.890625 12.703125 39.109375 18.5 
L 47.65625 18.5 
Q 46.1875 8.109375 40.328125 3.296875 
Q 34.46875 -1.515625 25.34375 -1.515625 
Q 15.09375 -1.515625 8.984375 5.984375 
Q 2.875 13.484375 2.875 24.703125 
Q 2.875 38.484375 9.5625 46.140625 
Q 16.265625 53.8125 26.609375 53.8125 
z
M 25.25 53.5625 
z
" id="Helvetica-99"/>
      </defs>
      <use xlink:href="#Helvetica-102"/>
      <use x="27.783203" xlink:href="#Helvetica-105"/>
      <use x="50" xlink:href="#Helvetica-110"/>
      <use x="105.615234" xlink:href="#Helvetica-97"/>
      <use x="161.230469" xlink:href="#Helvetica-108"/>
      <use x="183.447266" xlink:href="#Helvetica-44"/>
      <use x="211.230469" xlink:href="#Helvetica-32"/>
      <use x="239.013672" xlink:href="#Helvetica-99"/>
      <use x="289.013672" xlink:href="#Helvetica-111"/>
      <use x="344.628906" xlink:href="#Helvetica-114"/>
      <use x="377.929688" xlink:href="#Helvetica-114"/>
      <use x="411.230469" xlink:href="#Helvetica-117"/>
      <use x="466.845703" xlink:href="#Helvetica-112"/>
      <use x="522.460938" xlink:href="#Helvetica-116"/>
      <use x="550.244141" xlink:href="#Helvetica-61"/>
      <use x="608.642578" xlink:href="#Helvetica-48"/>
      <use x="664.257812" xlink:href="#Helvetica-46"/>
      <use x="692.041016" xlink:href="#Helvetica-48"/>
     </g>
    </g>
   </g>
  </g>
 </g>
 <defs>
  <clipPath id="ped88064f45">
   <rect height="227.469531" width="356.782812" x="63.697188" y="28.981562"/>
  </clipPath>
 </defs>
</svg>
