<?xml version="1.0" encoding="utf-8" standalone="no"?>
<!DOCTYPE svg PUBLIC "-//W3C//DTD SVG 1.1//EN"
  "http://www.w3.org/Graphics/SVG/1.1/DTD/svg11.dtd">
<!-- Created with matplotlib (https://matplotlib.org/) -->
<svg height="312.48pt" version="1.1" viewBox="0 0 427.68 312.48" width="427.68pt" xmlns="http://www.w3.org/2000/svg" xmlns:xlink="http://www.w3.org/1999/xlink">
 <metadata>
  <rdf:RDF xmlns:cc="http://creativecommons.org/ns#" xmlns:dc="http://purl.org/dc/elements/1.1/" xmlns:rdf="http://www.w3.org/1999/02/22-rdf-syntax-ns#">
   <cc:Work>
    <dc:type rdf:resource="http://purl.org/dc/dcmitype/StillImage"/>
    <dc:date>2021-12-30T23:42:54.120470</dc:date>
    <dc:format>image/svg+xml</dc:format>
    <dc:creator>
     <cc:Agent>
      <dc:title>Matplotlib v3.3.4, https://matplotlib.org/</dc:title>
     </cc:Agent>
    </dc:creator>
   </cc:Work>
  </rdf:RDF>
 </metadata>
 <defs>
  <style type="text/css">*{stroke-linecap:butt;stroke-linejoin:round;}</style>
 </defs>
 <g id="figure_1">
  <g id="patch_1">
   <path d="M 0 312.48 
L 427.68 312.48 
L 427.68 0 
L 0 0 
z
" style="fill:#ffffff;"/>
  </g>
  <g id="axes_1">
   <g id="patch_2">
    <path d="M 63.697188 256.451094 
L 420.48 256.451094 
L 420.48 28.981563 
L 63.697188 28.981563 
z
" style="fill:#ffffff;"/>
   </g>
   <g id="matplotlib.axis_1">
    <g id="xtick_1">
     <g id="line2d_1">
      <defs>
       <path d="M 0 0 
L 0 5 
" id="m002c942854" style="stroke:#000000;"/>
      </defs>
      <g>
       <use style="stroke:#000000;" x="79.516615" xlink:href="#m002c942854" y="256.451094"/>
      </g>
     </g>
     <g id="text_1">
      <!-- 0 -->
      <g transform="translate(74.789818 277.145937)scale(0.17 -0.17)">
       <defs>
        <path d="M 27.046875 69.921875 
Q 40.625 69.921875 46.6875 58.734375 
Q 51.375 50.09375 51.375 35.0625 
Q 51.375 20.796875 47.125 11.46875 
Q 40.96875 -1.90625 27 -1.90625 
Q 14.40625 -1.90625 8.25 9.03125 
Q 3.125 18.171875 3.125 33.546875 
Q 3.125 45.453125 6.203125 54 
Q 11.96875 69.921875 27.046875 69.921875 
z
M 26.953125 6.109375 
Q 33.796875 6.109375 37.84375 12.15625 
Q 41.890625 18.21875 41.890625 34.71875 
Q 41.890625 46.625 38.953125 54.3125 
Q 36.03125 62.015625 27.59375 62.015625 
Q 19.828125 62.015625 16.234375 54.703125 
Q 12.640625 47.40625 12.640625 33.203125 
Q 12.640625 22.515625 14.9375 16.015625 
Q 18.453125 6.109375 26.953125 6.109375 
z
" id="Helvetica-48"/>
       </defs>
       <use xlink:href="#Helvetica-48"/>
      </g>
     </g>
    </g>
    <g id="xtick_2">
     <g id="line2d_2">
      <g>
       <use style="stroke:#000000;" x="159.111219" xlink:href="#m002c942854" y="256.451094"/>
      </g>
     </g>
     <g id="text_2">
      <!-- 200 -->
      <g transform="translate(144.930828 277.145937)scale(0.17 -0.17)">
       <defs>
        <path d="M 3.125 0 
Q 3.609375 9.03125 6.859375 15.71875 
Q 10.109375 22.40625 19.53125 27.875 
L 28.90625 33.296875 
Q 35.203125 36.96875 37.75 39.546875 
Q 41.75 43.609375 41.75 48.828125 
Q 41.75 54.9375 38.078125 58.515625 
Q 34.421875 62.109375 28.328125 62.109375 
Q 19.28125 62.109375 15.828125 55.28125 
Q 13.96875 51.609375 13.765625 45.125 
L 4.828125 45.125 
Q 4.984375 54.25 8.203125 60.015625 
Q 13.921875 70.171875 28.375 70.171875 
Q 40.375 70.171875 45.921875 63.671875 
Q 51.46875 57.171875 51.46875 49.21875 
Q 51.46875 40.828125 45.5625 34.859375 
Q 42.140625 31.390625 33.296875 26.46875 
L 26.609375 22.75 
Q 21.828125 20.125 19.09375 17.71875 
Q 14.203125 13.484375 12.9375 8.296875 
L 51.125 8.296875 
L 51.125 0 
L 3.125 0 
z
" id="Helvetica-50"/>
       </defs>
       <use xlink:href="#Helvetica-50"/>
       <use x="55.615234" xlink:href="#Helvetica-48"/>
       <use x="111.230469" xlink:href="#Helvetica-48"/>
      </g>
     </g>
    </g>
    <g id="xtick_3">
     <g id="line2d_3">
      <g>
       <use style="stroke:#000000;" x="238.705823" xlink:href="#m002c942854" y="256.451094"/>
      </g>
     </g>
     <g id="text_3">
      <!-- 400 -->
      <g transform="translate(224.525432 277.145937)scale(0.17 -0.17)">
       <defs>
        <path d="M 33.0625 24.75 
L 33.0625 56.453125 
L 10.640625 24.75 
z
M 33.203125 0 
L 33.203125 17.09375 
L 2.546875 17.09375 
L 2.546875 25.6875 
L 34.578125 70.125 
L 42 70.125 
L 42 24.75 
L 52.296875 24.75 
L 52.296875 17.09375 
L 42 17.09375 
L 42 0 
z
" id="Helvetica-52"/>
       </defs>
       <use xlink:href="#Helvetica-52"/>
       <use x="55.615234" xlink:href="#Helvetica-48"/>
       <use x="111.230469" xlink:href="#Helvetica-48"/>
      </g>
     </g>
    </g>
    <g id="xtick_4">
     <g id="line2d_4">
      <g>
       <use style="stroke:#000000;" x="318.300427" xlink:href="#m002c942854" y="256.451094"/>
      </g>
     </g>
     <g id="text_4">
      <!-- 600 -->
      <g transform="translate(304.120036 277.145937)scale(0.17 -0.17)">
       <defs>
        <path d="M 29.25 70.21875 
Q 40.96875 70.21875 45.578125 64.140625 
Q 50.203125 58.0625 50.203125 51.609375 
L 41.5 51.609375 
Q 40.71875 55.765625 39.015625 58.109375 
Q 35.84375 62.5 29.390625 62.5 
Q 22.015625 62.5 17.671875 55.6875 
Q 13.328125 48.875 12.84375 36.1875 
Q 15.875 40.625 20.453125 42.828125 
Q 24.65625 44.78125 29.828125 44.78125 
Q 38.625 44.78125 45.15625 39.15625 
Q 51.703125 33.546875 51.703125 22.40625 
Q 51.703125 12.890625 45.5 5.53125 
Q 39.3125 -1.8125 27.828125 -1.8125 
Q 18.015625 -1.8125 10.890625 5.640625 
Q 3.765625 13.09375 3.765625 30.71875 
Q 3.765625 43.75 6.9375 52.828125 
Q 13.03125 70.21875 29.25 70.21875 
z
M 28.609375 6 
Q 35.546875 6 38.984375 10.65625 
Q 42.4375 15.328125 42.4375 21.6875 
Q 42.4375 27.046875 39.359375 31.90625 
Q 36.28125 36.765625 28.171875 36.765625 
Q 22.515625 36.765625 18.234375 33 
Q 13.96875 29.25 13.96875 21.6875 
Q 13.96875 15.046875 17.84375 10.515625 
Q 21.734375 6 28.609375 6 
z
" id="Helvetica-54"/>
       </defs>
       <use xlink:href="#Helvetica-54"/>
       <use x="55.615234" xlink:href="#Helvetica-48"/>
       <use x="111.230469" xlink:href="#Helvetica-48"/>
      </g>
     </g>
    </g>
    <g id="xtick_5">
     <g id="line2d_5">
      <g>
       <use style="stroke:#000000;" x="397.895031" xlink:href="#m002c942854" y="256.451094"/>
      </g>
     </g>
     <g id="text_5">
      <!-- 800 -->
      <g transform="translate(383.71464 277.145937)scale(0.17 -0.17)">
       <defs>
        <path d="M 27.203125 40.625 
Q 33.015625 40.625 36.28125 43.875 
Q 39.546875 47.125 39.546875 51.609375 
Q 39.546875 55.515625 36.421875 58.78125 
Q 33.296875 62.0625 26.90625 62.0625 
Q 20.5625 62.0625 17.71875 58.78125 
Q 14.890625 55.515625 14.890625 51.125 
Q 14.890625 46.1875 18.546875 43.40625 
Q 22.21875 40.625 27.203125 40.625 
z
M 27.734375 6 
Q 33.84375 6 37.859375 9.296875 
Q 41.890625 12.59375 41.890625 19.140625 
Q 41.890625 25.921875 37.734375 29.4375 
Q 33.59375 32.953125 27.09375 32.953125 
Q 20.796875 32.953125 16.8125 29.359375 
Q 12.84375 25.78125 12.84375 19.4375 
Q 12.84375 13.96875 16.484375 9.984375 
Q 20.125 6 27.734375 6 
z
M 15.234375 37.25 
Q 11.578125 38.8125 9.515625 40.921875 
Q 5.671875 44.828125 5.671875 51.078125 
Q 5.671875 58.890625 11.328125 64.5 
Q 17 70.125 27.390625 70.125 
Q 37.453125 70.125 43.15625 64.8125 
Q 48.875 59.515625 48.875 52.4375 
Q 48.875 45.90625 45.5625 41.84375 
Q 43.703125 39.546875 39.796875 37.359375 
Q 44.140625 35.359375 46.625 32.765625 
Q 51.265625 27.875 51.265625 20.0625 
Q 51.265625 10.84375 45.0625 4.421875 
Q 38.875 -2 27.546875 -2 
Q 17.328125 -2 10.265625 3.53125 
Q 3.21875 9.078125 3.21875 19.625 
Q 3.21875 25.828125 6.25 30.34375 
Q 9.28125 34.859375 15.234375 37.25 
z
" id="Helvetica-56"/>
       </defs>
       <use xlink:href="#Helvetica-56"/>
       <use x="55.615234" xlink:href="#Helvetica-48"/>
       <use x="111.230469" xlink:href="#Helvetica-48"/>
      </g>
     </g>
    </g>
    <g id="text_6">
     <!-- Number of patterns -->
     <g transform="translate(147.940625 300.694375)scale(0.22 -0.22)">
      <defs>
       <path d="M 7.625 71.734375 
L 19.09375 71.734375 
L 55.328125 13.625 
L 55.328125 71.734375 
L 64.546875 71.734375 
L 64.546875 0 
L 53.65625 0 
L 16.890625 58.0625 
L 16.890625 0 
L 7.625 0 
z
M 35.453125 71.734375 
z
" id="Helvetica-78"/>
       <path d="M 15.234375 52.296875 
L 15.234375 17.578125 
Q 15.234375 13.578125 16.5 11.03125 
Q 18.84375 6.34375 25.25 6.34375 
Q 34.421875 6.34375 37.75 14.546875 
Q 39.546875 18.953125 39.546875 26.609375 
L 39.546875 52.296875 
L 48.34375 52.296875 
L 48.34375 0 
L 40.046875 0 
L 40.140625 7.71875 
Q 38.421875 4.734375 35.890625 2.6875 
Q 30.859375 -1.421875 23.6875 -1.421875 
Q 12.5 -1.421875 8.453125 6.0625 
Q 6.25 10.0625 6.25 16.75 
L 6.25 52.296875 
z
M 27.296875 53.5625 
z
" id="Helvetica-117"/>
       <path d="M 6.453125 52.296875 
L 15.140625 52.296875 
L 15.140625 44.875 
Q 18.265625 48.734375 20.796875 50.484375 
Q 25.140625 53.46875 30.671875 53.46875 
Q 36.921875 53.46875 40.71875 50.390625 
Q 42.875 48.640625 44.625 45.21875 
Q 47.5625 49.421875 51.515625 51.4375 
Q 55.46875 53.46875 60.40625 53.46875 
Q 70.953125 53.46875 74.75 45.84375 
Q 76.8125 41.75 76.8125 34.8125 
L 76.8125 0 
L 67.671875 0 
L 67.671875 36.328125 
Q 67.671875 41.546875 65.0625 43.5 
Q 62.453125 45.453125 58.6875 45.453125 
Q 53.515625 45.453125 49.78125 41.984375 
Q 46.046875 38.53125 46.046875 30.421875 
L 46.046875 0 
L 37.109375 0 
L 37.109375 34.125 
Q 37.109375 39.453125 35.84375 41.890625 
Q 33.84375 45.5625 28.375 45.5625 
Q 23.390625 45.5625 19.3125 41.703125 
Q 15.234375 37.84375 15.234375 27.734375 
L 15.234375 0 
L 6.453125 0 
z
" id="Helvetica-109"/>
       <path d="M 5.765625 71.96875 
L 14.3125 71.96875 
L 14.3125 45.953125 
Q 17.1875 49.703125 21.1875 51.671875 
Q 25.203125 53.65625 29.890625 53.65625 
Q 39.65625 53.65625 45.734375 46.9375 
Q 51.8125 40.234375 51.8125 27.15625 
Q 51.8125 14.75 45.796875 6.546875 
Q 39.796875 -1.65625 29.15625 -1.65625 
Q 23.1875 -1.65625 19.09375 1.21875 
Q 16.65625 2.9375 13.875 6.6875 
L 13.875 0 
L 5.765625 0 
z
M 28.609375 6.109375 
Q 35.75 6.109375 39.28125 11.765625 
Q 42.828125 17.4375 42.828125 26.703125 
Q 42.828125 34.96875 39.28125 40.375 
Q 35.75 45.796875 28.859375 45.796875 
Q 22.859375 45.796875 18.328125 41.359375 
Q 13.8125 36.921875 13.8125 26.703125 
Q 13.8125 19.34375 15.671875 14.75 
Q 19.140625 6.109375 28.609375 6.109375 
z
" id="Helvetica-98"/>
       <path d="M 28.21875 53.46875 
Q 33.796875 53.46875 39.015625 50.859375 
Q 44.234375 48.25 46.96875 44.09375 
Q 49.609375 40.140625 50.484375 34.859375 
Q 51.265625 31.25 51.265625 23.34375 
L 12.9375 23.34375 
Q 13.1875 15.375 16.703125 10.5625 
Q 20.21875 5.765625 27.59375 5.765625 
Q 34.46875 5.765625 38.578125 10.296875 
Q 40.921875 12.9375 41.890625 16.40625 
L 50.53125 16.40625 
Q 50.203125 13.53125 48.265625 9.984375 
Q 46.34375 6.453125 43.953125 4.203125 
Q 39.9375 0.296875 34.03125 -1.078125 
Q 30.859375 -1.859375 26.859375 -1.859375 
Q 17.09375 -1.859375 10.296875 5.25 
Q 3.515625 12.359375 3.515625 25.140625 
Q 3.515625 37.75 10.34375 45.609375 
Q 17.1875 53.46875 28.21875 53.46875 
z
M 42.234375 30.328125 
Q 41.703125 36.03125 39.75 39.453125 
Q 36.140625 45.796875 27.6875 45.796875 
Q 21.625 45.796875 17.515625 41.421875 
Q 13.421875 37.0625 13.1875 30.328125 
z
M 27.390625 53.5625 
z
" id="Helvetica-101"/>
       <path d="M 6.6875 52.296875 
L 15.046875 52.296875 
L 15.046875 43.265625 
Q 16.0625 45.90625 20.0625 49.6875 
Q 24.078125 53.46875 29.296875 53.46875 
Q 29.546875 53.46875 30.125 53.421875 
Q 30.71875 53.375 32.125 53.21875 
L 32.125 43.953125 
Q 31.34375 44.09375 30.6875 44.140625 
Q 30.03125 44.1875 29.25 44.1875 
Q 22.609375 44.1875 19.046875 39.90625 
Q 15.484375 35.640625 15.484375 30.078125 
L 15.484375 0 
L 6.6875 0 
z
" id="Helvetica-114"/>
       <path id="Helvetica-32"/>
       <path d="M 27.203125 5.671875 
Q 35.9375 5.671875 39.1875 12.28125 
Q 42.4375 18.890625 42.4375 27 
Q 42.4375 34.328125 40.09375 38.921875 
Q 36.375 46.140625 27.296875 46.140625 
Q 19.234375 46.140625 15.578125 39.984375 
Q 11.921875 33.84375 11.921875 25.140625 
Q 11.921875 16.796875 15.578125 11.234375 
Q 19.234375 5.671875 27.203125 5.671875 
z
M 27.546875 53.8125 
Q 37.640625 53.8125 44.625 47.0625 
Q 51.609375 40.328125 51.609375 27.25 
Q 51.609375 14.59375 45.453125 6.34375 
Q 39.3125 -1.90625 26.375 -1.90625 
Q 15.578125 -1.90625 9.21875 5.390625 
Q 2.875 12.703125 2.875 25 
Q 2.875 38.1875 9.5625 46 
Q 16.265625 53.8125 27.546875 53.8125 
z
M 27.25 53.5625 
z
" id="Helvetica-111"/>
       <path d="M 8.640625 60.25 
Q 8.84375 65.71875 10.546875 68.265625 
Q 13.625 72.75 22.40625 72.75 
Q 23.25 72.75 24.125 72.703125 
Q 25 72.65625 26.125 72.5625 
L 26.125 64.546875 
Q 24.75 64.65625 24.140625 64.671875 
Q 23.53125 64.703125 23 64.703125 
Q 19 64.703125 18.21875 62.625 
Q 17.4375 60.546875 17.4375 52.046875 
L 26.125 52.046875 
L 26.125 45.125 
L 17.328125 45.125 
L 17.328125 0 
L 8.640625 0 
L 8.640625 45.125 
L 1.375 45.125 
L 1.375 52.046875 
L 8.640625 52.046875 
L 8.640625 60.25 
z
" id="Helvetica-102"/>
       <path d="M 28.515625 5.90625 
Q 34.671875 5.90625 38.75 11.0625 
Q 42.828125 16.21875 42.828125 26.46875 
Q 42.828125 32.71875 41.015625 37.203125 
Q 37.59375 45.84375 28.515625 45.84375 
Q 19.390625 45.84375 16.015625 36.71875 
Q 14.203125 31.84375 14.203125 24.3125 
Q 14.203125 18.265625 16.015625 14.015625 
Q 19.4375 5.90625 28.515625 5.90625 
z
M 5.765625 52.046875 
L 14.3125 52.046875 
L 14.3125 45.125 
Q 16.9375 48.6875 20.0625 50.640625 
Q 24.515625 53.5625 30.515625 53.5625 
Q 39.40625 53.5625 45.609375 46.75 
Q 51.8125 39.9375 51.8125 27.296875 
Q 51.8125 10.203125 42.875 2.875 
Q 37.203125 -1.765625 29.6875 -1.765625 
Q 23.78125 -1.765625 19.78125 0.828125 
Q 17.4375 2.296875 14.546875 5.859375 
L 14.546875 -20.84375 
L 5.765625 -20.84375 
z
" id="Helvetica-112"/>
       <path d="M 13.1875 13.921875 
Q 13.1875 10.109375 15.96875 7.90625 
Q 18.75 5.71875 22.5625 5.71875 
Q 27.203125 5.71875 31.546875 7.859375 
Q 38.875 11.421875 38.875 19.53125 
L 38.875 26.609375 
Q 37.25 25.59375 34.703125 24.90625 
Q 32.171875 24.21875 29.734375 23.921875 
L 24.421875 23.25 
Q 19.625 22.609375 17.234375 21.234375 
Q 13.1875 18.953125 13.1875 13.921875 
z
M 34.46875 31.6875 
Q 37.5 32.078125 38.53125 34.234375 
Q 39.109375 35.40625 39.109375 37.59375 
Q 39.109375 42.09375 35.90625 44.109375 
Q 32.71875 46.140625 26.765625 46.140625 
Q 19.875 46.140625 17 42.4375 
Q 15.375 40.375 14.890625 36.328125 
L 6.6875 36.328125 
Q 6.9375 46 12.96875 49.78125 
Q 19 53.5625 26.953125 53.5625 
Q 36.1875 53.5625 41.9375 50.046875 
Q 47.65625 46.53125 47.65625 39.109375 
L 47.65625 8.984375 
Q 47.65625 7.625 48.21875 6.78125 
Q 48.78125 5.953125 50.59375 5.953125 
Q 51.171875 5.953125 51.90625 6.03125 
Q 52.640625 6.109375 53.46875 6.25 
L 53.46875 -0.25 
Q 51.421875 -0.828125 50.34375 -0.96875 
Q 49.265625 -1.125 47.40625 -1.125 
Q 42.875 -1.125 40.828125 2.09375 
Q 39.75 3.8125 39.3125 6.9375 
Q 36.625 3.421875 31.59375 0.828125 
Q 26.5625 -1.765625 20.515625 -1.765625 
Q 13.234375 -1.765625 8.609375 2.65625 
Q 4 7.078125 4 13.71875 
Q 4 21 8.546875 25 
Q 13.09375 29 20.453125 29.9375 
z
M 27.203125 53.5625 
z
" id="Helvetica-97"/>
       <path d="M 8.203125 66.890625 
L 17.09375 66.890625 
L 17.09375 52.296875 
L 25.4375 52.296875 
L 25.4375 45.125 
L 17.09375 45.125 
L 17.09375 10.984375 
Q 17.09375 8.25 18.953125 7.328125 
Q 19.96875 6.78125 22.359375 6.78125 
Q 23 6.78125 23.734375 6.8125 
Q 24.46875 6.84375 25.4375 6.9375 
L 25.4375 0 
Q 23.921875 -0.4375 22.28125 -0.625 
Q 20.65625 -0.828125 18.75 -0.828125 
Q 12.59375 -0.828125 10.390625 2.3125 
Q 8.203125 5.46875 8.203125 10.5 
L 8.203125 45.125 
L 1.125 45.125 
L 1.125 52.296875 
L 8.203125 52.296875 
z
" id="Helvetica-116"/>
       <path d="M 6.453125 52.296875 
L 14.796875 52.296875 
L 14.796875 44.875 
Q 18.5 49.46875 22.65625 51.46875 
Q 26.8125 53.46875 31.890625 53.46875 
Q 43.015625 53.46875 46.921875 45.703125 
Q 49.078125 41.453125 49.078125 33.546875 
L 49.078125 0 
L 40.140625 0 
L 40.140625 32.953125 
Q 40.140625 37.75 38.71875 40.671875 
Q 36.375 45.5625 30.21875 45.5625 
Q 27.09375 45.5625 25.09375 44.921875 
Q 21.484375 43.84375 18.75 40.625 
Q 16.546875 38.03125 15.890625 35.265625 
Q 15.234375 32.515625 15.234375 27.390625 
L 15.234375 0 
L 6.453125 0 
z
M 27.09375 53.5625 
z
" id="Helvetica-110"/>
       <path d="M 11.671875 16.40625 
Q 12.0625 12.015625 13.875 9.671875 
Q 17.1875 5.421875 25.390625 5.421875 
Q 30.28125 5.421875 33.984375 7.546875 
Q 37.703125 9.671875 37.703125 14.109375 
Q 37.703125 17.484375 34.71875 19.234375 
Q 32.8125 20.3125 27.203125 21.734375 
L 20.21875 23.484375 
Q 13.53125 25.140625 10.359375 27.203125 
Q 4.6875 30.765625 4.6875 37.0625 
Q 4.6875 44.484375 10.03125 49.0625 
Q 15.375 53.65625 24.421875 53.65625 
Q 36.234375 53.65625 41.453125 46.734375 
Q 44.734375 42.328125 44.625 37.25 
L 36.328125 37.25 
Q 36.078125 40.234375 34.234375 42.671875 
Q 31.203125 46.140625 23.734375 46.140625 
Q 18.75 46.140625 16.1875 44.234375 
Q 13.625 42.328125 13.625 39.203125 
Q 13.625 35.796875 17 33.734375 
Q 18.953125 32.515625 22.75 31.59375 
L 28.5625 30.171875 
Q 38.03125 27.875 41.265625 25.734375 
Q 46.390625 22.359375 46.390625 15.140625 
Q 46.390625 8.15625 41.09375 3.078125 
Q 35.796875 -2 24.953125 -2 
Q 13.28125 -2 8.421875 3.296875 
Q 3.5625 8.59375 3.21875 16.40625 
z
M 24.65625 53.5625 
z
" id="Helvetica-115"/>
      </defs>
      <use xlink:href="#Helvetica-78"/>
      <use x="72.216797" xlink:href="#Helvetica-117"/>
      <use x="127.832031" xlink:href="#Helvetica-109"/>
      <use x="211.132812" xlink:href="#Helvetica-98"/>
      <use x="266.748047" xlink:href="#Helvetica-101"/>
      <use x="322.363281" xlink:href="#Helvetica-114"/>
      <use x="355.664062" xlink:href="#Helvetica-32"/>
      <use x="383.447266" xlink:href="#Helvetica-111"/>
      <use x="439.0625" xlink:href="#Helvetica-102"/>
      <use x="466.845703" xlink:href="#Helvetica-32"/>
      <use x="494.628906" xlink:href="#Helvetica-112"/>
      <use x="550.244141" xlink:href="#Helvetica-97"/>
      <use x="605.859375" xlink:href="#Helvetica-116"/>
      <use x="633.642578" xlink:href="#Helvetica-116"/>
      <use x="661.425781" xlink:href="#Helvetica-101"/>
      <use x="717.041016" xlink:href="#Helvetica-114"/>
      <use x="750.341797" xlink:href="#Helvetica-110"/>
      <use x="805.957031" xlink:href="#Helvetica-115"/>
     </g>
    </g>
   </g>
   <g id="matplotlib.axis_2">
    <g id="ytick_1">
     <g id="line2d_6">
      <defs>
       <path d="M 0 0 
L -5 0 
" id="m94656d0e2a" style="stroke:#000000;"/>
      </defs>
      <g>
       <use style="stroke:#000000;" x="63.697188" xlink:href="#m94656d0e2a" y="249.509546"/>
      </g>
     </g>
     <g id="text_7">
      <!-- 0.0 -->
      <g transform="translate(31.567188 255.606968)scale(0.17 -0.17)">
       <defs>
        <path d="M 8.546875 10.640625 
L 18.75 10.640625 
L 18.75 0 
L 8.546875 0 
z
" id="Helvetica-46"/>
       </defs>
       <use xlink:href="#Helvetica-48"/>
       <use x="55.615234" xlink:href="#Helvetica-46"/>
       <use x="83.398438" xlink:href="#Helvetica-48"/>
      </g>
     </g>
    </g>
    <g id="ytick_2">
     <g id="line2d_7">
      <g>
       <use style="stroke:#000000;" x="63.697188" xlink:href="#m94656d0e2a" y="207.471854"/>
      </g>
     </g>
     <g id="text_8">
      <!-- 0.2 -->
      <g transform="translate(31.567188 213.569276)scale(0.17 -0.17)">
       <use xlink:href="#Helvetica-48"/>
       <use x="55.615234" xlink:href="#Helvetica-46"/>
       <use x="83.398438" xlink:href="#Helvetica-50"/>
      </g>
     </g>
    </g>
    <g id="ytick_3">
     <g id="line2d_8">
      <g>
       <use style="stroke:#000000;" x="63.697188" xlink:href="#m94656d0e2a" y="165.434162"/>
      </g>
     </g>
     <g id="text_9">
      <!-- 0.4 -->
      <g transform="translate(31.567188 171.531584)scale(0.17 -0.17)">
       <use xlink:href="#Helvetica-48"/>
       <use x="55.615234" xlink:href="#Helvetica-46"/>
       <use x="83.398438" xlink:href="#Helvetica-52"/>
      </g>
     </g>
    </g>
    <g id="ytick_4">
     <g id="line2d_9">
      <g>
       <use style="stroke:#000000;" x="63.697188" xlink:href="#m94656d0e2a" y="123.396471"/>
      </g>
     </g>
     <g id="text_10">
      <!-- 0.6 -->
      <g transform="translate(31.567188 129.493892)scale(0.17 -0.17)">
       <use xlink:href="#Helvetica-48"/>
       <use x="55.615234" xlink:href="#Helvetica-46"/>
       <use x="83.398438" xlink:href="#Helvetica-54"/>
      </g>
     </g>
    </g>
    <g id="ytick_5">
     <g id="line2d_10">
      <g>
       <use style="stroke:#000000;" x="63.697188" xlink:href="#m94656d0e2a" y="81.358779"/>
      </g>
     </g>
     <g id="text_11">
      <!-- 0.8 -->
      <g transform="translate(31.567188 87.4562)scale(0.17 -0.17)">
       <use xlink:href="#Helvetica-48"/>
       <use x="55.615234" xlink:href="#Helvetica-46"/>
       <use x="83.398438" xlink:href="#Helvetica-56"/>
      </g>
     </g>
    </g>
    <g id="ytick_6">
     <g id="line2d_11">
      <g>
       <use style="stroke:#000000;" x="63.697188" xlink:href="#m94656d0e2a" y="39.321087"/>
      </g>
     </g>
     <g id="text_12">
      <!-- 1.0 -->
      <g transform="translate(31.567188 45.418509)scale(0.17 -0.17)">
       <defs>
        <path d="M 9.578125 49.515625 
L 9.578125 56.25 
Q 19.09375 57.171875 22.84375 59.34375 
Q 26.609375 61.53125 28.46875 69.625 
L 35.40625 69.625 
L 35.40625 0 
L 26.03125 0 
L 26.03125 49.515625 
z
" id="Helvetica-49"/>
       </defs>
       <use xlink:href="#Helvetica-49"/>
       <use x="55.615234" xlink:href="#Helvetica-46"/>
       <use x="83.398438" xlink:href="#Helvetica-48"/>
      </g>
     </g>
    </g>
    <g id="text_13">
     <!-- MI -->
     <g transform="translate(22.981563 154.934922)rotate(-90)scale(0.22 -0.22)">
      <defs>
       <path d="M 7.375 71.734375 
L 21.296875 71.734375 
L 41.890625 11.078125 
L 62.359375 71.734375 
L 76.125 71.734375 
L 76.125 0 
L 66.890625 0 
L 66.890625 42.328125 
Q 66.890625 44.53125 66.984375 49.609375 
Q 67.09375 54.6875 67.09375 60.5 
L 46.625 0 
L 37.015625 0 
L 16.40625 60.5 
L 16.40625 58.296875 
Q 16.40625 55.671875 16.53125 50.265625 
Q 16.65625 44.875 16.65625 42.328125 
L 16.65625 0 
L 7.375 0 
z
" id="Helvetica-77"/>
       <path d="M 9.8125 71.734375 
L 19.625 71.734375 
L 19.625 0 
L 9.8125 0 
z
" id="Helvetica-73"/>
      </defs>
      <use xlink:href="#Helvetica-77"/>
      <use x="83.300781" xlink:href="#Helvetica-73"/>
     </g>
    </g>
   </g>
   <g id="line2d_12">
    <path clip-path="url(#p824e60dc58)" d="M 79.914588 39.321087 
L 96.231482 39.321087 
L 97.027428 39.431536 
L 98.61932 39.51276 
L 99.415266 39.587726 
L 100.211212 39.578439 
L 101.405131 40.042742 
L 101.803104 39.967472 
L 102.59905 40.130829 
L 102.997023 40.177498 
L 103.792969 40.960866 
L 104.190942 40.886618 
L 104.588915 41.064266 
L 104.986888 40.743547 
L 105.384861 41.255069 
L 106.180807 41.2958 
L 106.976753 41.111448 
L 107.374726 41.610269 
L 109.364592 42.96754 
L 109.762565 43.392304 
L 110.160538 43.48657 
L 111.354457 45.078242 
L 111.75243 49.264004 
L 112.150403 54.807501 
L 112.548376 55.211169 
L 112.946349 55.031339 
L 113.344322 52.335353 
L 113.742295 57.124186 
L 114.140268 53.834157 
L 114.538241 57.476541 
L 114.936214 57.429142 
L 115.334187 61.899555 
L 115.73216 58.424614 
L 116.130133 58.627823 
L 116.528106 66.081519 
L 116.926079 69.315148 
L 117.324052 75.880378 
L 117.722025 73.269613 
L 118.119998 76.981108 
L 118.517971 92.70367 
L 118.915944 89.189056 
L 119.71189 105.46428 
L 120.109863 102.995993 
L 120.507836 112.229709 
L 121.303782 121.966237 
L 121.701755 122.845689 
L 122.099728 126.310211 
L 122.497701 132.705559 
L 122.895674 135.59757 
L 123.293647 132.270836 
L 123.69162 157.979575 
L 124.089593 158.346163 
L 124.487566 154.083617 
L 124.885539 161.206164 
L 125.283512 173.094336 
L 125.681485 172.09029 
L 126.079458 181.678256 
L 126.477431 185.718057 
L 126.875404 194.44958 
L 127.273377 194.189791 
L 127.67135 195.306791 
L 128.069323 200.414385 
L 128.467297 209.504915 
L 128.86527 208.837114 
L 129.263243 206.986119 
L 129.661216 209.752701 
L 130.059189 211.097845 
L 130.457162 215.15842 
L 130.855135 215.259908 
L 131.253108 217.375109 
L 132.049054 215.726803 
L 132.447027 216.607638 
L 132.845 216.068097 
L 133.242973 217.152425 
L 133.640946 218.728029 
L 134.038919 219.574286 
L 134.436892 218.362125 
L 134.834865 219.897435 
L 135.232838 218.800658 
L 135.630811 223.752376 
L 136.028784 223.060323 
L 136.426757 223.614289 
L 136.82473 224.707714 
L 137.222703 225.386557 
L 137.620676 223.946737 
L 138.018649 226.801989 
L 138.416622 224.648409 
L 138.814595 225.312814 
L 139.610541 223.713267 
L 140.008514 225.599523 
L 140.406487 225.214772 
L 140.80446 227.335456 
L 141.202433 226.937609 
L 141.998379 228.722876 
L 142.396352 226.914968 
L 142.794325 228.043213 
L 143.192298 228.713963 
L 143.590271 228.318989 
L 143.988244 229.575246 
L 144.386217 229.373426 
L 144.78419 228.988312 
L 145.182163 231.337089 
L 145.580136 231.778932 
L 145.978109 230.925435 
L 146.376082 230.915579 
L 146.774055 229.690183 
L 147.570001 233.298988 
L 147.967975 232.654869 
L 148.365948 231.463333 
L 148.763921 231.780479 
L 149.559867 232.975881 
L 149.95784 232.886695 
L 150.355813 235.283353 
L 150.753786 235.015607 
L 151.151759 233.549696 
L 151.549732 235.096683 
L 151.947705 233.718168 
L 152.345678 234.804586 
L 152.743651 234.447565 
L 153.141624 233.191258 
L 153.539597 233.012213 
L 153.93757 233.550969 
L 154.335543 233.697694 
L 154.733516 234.819149 
L 155.131489 234.270395 
L 155.529462 234.350946 
L 155.927435 233.839823 
L 156.325408 234.981799 
L 156.723381 235.454979 
L 157.121354 234.400728 
L 157.519327 235.525581 
L 157.9173 234.380469 
L 158.315273 234.20731 
L 158.713246 235.675118 
L 159.111219 234.385535 
L 159.509192 233.927375 
L 159.907165 235.561218 
L 160.305138 235.270726 
L 161.499057 233.790871 
L 161.89703 234.004944 
L 162.295003 235.752683 
L 162.692976 236.06399 
L 163.090949 235.225071 
L 163.488922 235.146819 
L 163.886895 234.03032 
L 164.284868 235.025004 
L 164.682841 235.172378 
L 165.080814 235.476961 
L 165.478787 234.079127 
L 165.87676 234.47074 
L 166.274733 235.117801 
L 166.672706 236.246039 
L 167.070679 235.394683 
L 167.468652 234.972501 
L 168.264599 234.847201 
L 169.060545 234.902225 
L 169.458518 234.470763 
L 169.856491 235.643703 
L 170.254464 233.884757 
L 170.652437 233.905287 
L 171.05041 234.520334 
L 171.448383 234.011578 
L 171.846356 234.085665 
L 172.244329 233.578078 
L 173.438248 233.714624 
L 173.836221 234.768312 
L 174.234194 236.225016 
L 174.632167 236.092307 
L 175.03014 238.211367 
L 175.428113 239.152396 
L 175.826086 238.572771 
L 176.224059 237.792613 
L 176.622032 238.298241 
L 177.020005 237.648942 
L 177.815951 238.926026 
L 178.213924 238.197172 
L 178.611897 238.608034 
L 179.00987 238.168703 
L 179.407843 238.126523 
L 179.805816 237.239403 
L 180.999735 236.66277 
L 181.397708 237.193759 
L 181.795681 237.174549 
L 182.193654 236.404554 
L 182.591627 236.465441 
L 183.387573 239.350282 
L 183.785546 238.631722 
L 184.183519 238.925742 
L 184.581492 238.647204 
L 185.775411 238.789752 
L 186.173384 238.036199 
L 186.96933 237.678779 
L 187.367303 237.670885 
L 187.765277 238.296138 
L 188.16325 242.007458 
L 188.561223 241.017886 
L 188.959196 240.810508 
L 189.357169 239.856639 
L 190.551088 240.393209 
L 190.949061 240.175061 
L 191.347034 240.139977 
L 191.745007 240.666446 
L 192.14298 240.630851 
L 192.540953 240.251324 
L 193.336899 239.72208 
L 193.734872 240.126606 
L 194.132845 239.686638 
L 194.928791 239.944167 
L 195.326764 239.449681 
L 195.724737 238.75496 
L 196.12271 239.267583 
L 196.520683 238.660269 
L 196.918656 238.273169 
L 197.316629 238.338722 
L 197.714602 237.76197 
L 198.112575 238.073121 
L 198.908521 237.71627 
L 199.306494 237.182278 
L 199.704467 238.703504 
L 200.10244 238.081856 
L 200.500413 237.996177 
L 200.898386 237.342001 
L 201.296359 237.006601 
L 202.092305 237.646267 
L 202.490278 236.916058 
L 202.888251 237.249153 
L 203.286224 238.066871 
L 204.480143 236.684898 
L 204.878116 236.915148 
L 205.276089 236.860267 
L 206.072035 235.840496 
L 206.470008 235.799604 
L 206.867981 236.485457 
L 207.265954 236.03856 
L 207.663928 237.769817 
L 208.061901 237.498624 
L 208.459874 237.79811 
L 208.857847 240.262008 
L 210.051766 240.699973 
L 210.449739 240.574619 
L 210.847712 240.291214 
L 211.245685 240.714366 
L 211.643658 239.774594 
L 212.041631 239.883746 
L 212.837577 240.479885 
L 213.23555 239.990611 
L 213.633523 241.028953 
L 214.429469 239.935004 
L 214.827442 240.485996 
L 215.225415 240.394877 
L 216.021361 239.288197 
L 216.419334 239.375745 
L 216.817307 239.34569 
L 217.21528 240.783629 
L 217.613253 240.819957 
L 218.011226 239.842609 
L 218.807172 239.716764 
L 219.205145 239.028096 
L 219.603118 239.404552 
L 220.001091 238.766717 
L 220.399064 239.012294 
L 221.19501 239.230985 
L 221.592983 238.931042 
L 221.990956 239.44489 
L 222.786902 240.212549 
L 223.184875 240.210285 
L 223.582848 239.709575 
L 223.980821 239.686696 
L 224.378794 239.355383 
L 224.776767 239.754125 
L 225.572713 239.245267 
L 226.368659 240.614289 
L 226.766632 240.398551 
L 227.164605 242.351223 
L 227.562579 241.624092 
L 227.960552 241.826203 
L 228.358525 241.289057 
L 228.756498 240.980394 
L 229.552444 242.192787 
L 230.34839 241.780837 
L 230.746363 241.593866 
L 231.144336 241.540954 
L 231.542309 241.895156 
L 231.940282 241.337813 
L 232.338255 242.471857 
L 233.134201 242.675421 
L 233.532174 242.326783 
L 233.930147 243.047827 
L 234.32812 242.06757 
L 234.726093 242.75794 
L 235.522039 241.951578 
L 235.920012 241.959317 
L 236.317985 241.562847 
L 236.715958 241.331556 
L 237.113931 242.301361 
L 237.511904 241.791934 
L 238.30785 241.487672 
L 238.705823 241.652577 
L 239.103796 241.259499 
L 239.501769 240.638185 
L 240.297715 241.00812 
L 240.695688 240.187195 
L 241.093661 240.265847 
L 241.491634 240.780238 
L 241.889607 240.943304 
L 242.28758 240.0119 
L 242.685553 240.101546 
L 243.481499 240.718696 
L 243.879472 240.73735 
L 244.277445 241.386035 
L 244.675418 241.014929 
L 245.073391 241.285287 
L 245.869337 241.177081 
L 246.26731 240.743047 
L 246.665283 241.9607 
L 247.063257 241.318577 
L 247.46123 242.492158 
L 247.859203 241.973498 
L 248.257176 242.55084 
L 248.655149 242.062955 
L 249.053122 241.919273 
L 249.451095 241.482445 
L 249.849068 241.337597 
L 250.247041 241.642356 
L 250.645014 241.09269 
L 251.042987 241.694825 
L 251.44096 241.179661 
L 251.838933 241.688472 
L 252.236906 241.670317 
L 252.634879 241.39436 
L 253.032852 241.63011 
L 253.430825 241.702995 
L 253.828798 242.103135 
L 254.226771 241.475206 
L 254.624744 242.481359 
L 255.022717 242.120841 
L 255.42069 242.355328 
L 255.818663 242.134947 
L 256.216636 242.197168 
L 256.614609 242.056729 
L 257.012582 242.456451 
L 257.808528 242.877584 
L 258.206501 242.500166 
L 259.002447 242.859214 
L 259.40042 242.758033 
L 259.798393 242.411551 
L 260.196366 242.863449 
L 260.992312 242.700052 
L 261.390285 243.19194 
L 262.186231 242.691335 
L 262.584204 243.039668 
L 262.982177 242.59035 
L 263.38015 243.024842 
L 263.778123 242.23255 
L 264.176096 242.081191 
L 264.574069 242.080792 
L 264.972042 243.132292 
L 265.370015 243.129381 
L 265.767988 242.63353 
L 266.165961 242.606394 
L 266.563934 243.16526 
L 266.961908 244.075013 
L 267.359881 243.921302 
L 267.757854 243.191993 
L 268.951773 243.126492 
L 269.349746 242.875762 
L 269.747719 242.345215 
L 270.145692 242.232895 
L 270.543665 243.29138 
L 270.941638 242.967381 
L 271.339611 242.934035 
L 272.135557 242.276863 
L 272.53353 242.716107 
L 272.931503 242.753657 
L 273.329476 243.188407 
L 273.727449 243.165214 
L 274.523395 242.824668 
L 274.921368 242.817649 
L 275.319341 242.345234 
L 275.717314 242.780014 
L 276.115287 242.990479 
L 276.51326 242.710739 
L 277.309206 242.893071 
L 277.707179 242.664994 
L 278.105152 243.00871 
L 278.503125 242.942206 
L 278.901098 242.695014 
L 280.095017 242.908772 
L 280.49299 243.726599 
L 280.890963 243.486055 
L 281.288936 243.408354 
L 281.686909 242.936622 
L 282.084882 243.054207 
L 282.482855 242.795799 
L 282.880828 242.976547 
L 283.278801 242.858819 
L 283.676774 243.68481 
L 284.074747 243.169057 
L 284.47272 243.098779 
L 285.268666 243.536174 
L 285.666639 243.322425 
L 286.064612 242.726757 
L 286.860559 243.126497 
L 287.258532 243.265374 
L 287.656505 243.564443 
L 288.054478 243.318286 
L 288.452451 242.721716 
L 288.850424 242.861291 
L 289.248397 242.823672 
L 289.64637 243.443231 
L 290.044343 243.015875 
L 290.442316 242.815841 
L 290.840289 242.398087 
L 291.238262 242.602077 
L 292.034208 241.486474 
L 292.432181 241.829451 
L 293.228127 241.606219 
L 293.6261 241.694178 
L 294.024073 241.954767 
L 294.422046 242.587055 
L 294.820019 242.854528 
L 295.217992 242.886929 
L 295.615965 242.378499 
L 296.013938 242.526129 
L 296.411911 242.433562 
L 296.809884 242.082888 
L 297.207857 242.2132 
L 298.003803 242.023705 
L 298.401776 241.832653 
L 298.799749 241.87664 
L 299.197722 242.391852 
L 299.595695 241.977393 
L 299.993668 242.88352 
L 300.391641 242.311823 
L 301.187587 243.229913 
L 301.983533 243.600321 
L 302.381506 243.410827 
L 302.779479 243.096736 
L 303.177452 243.518585 
L 303.575425 243.354675 
L 303.973398 243.561888 
L 304.371371 243.470515 
L 304.769344 242.831846 
L 305.167317 242.789462 
L 305.56529 242.985843 
L 306.75921 242.415375 
L 307.157183 242.040767 
L 307.555156 242.567849 
L 307.953129 242.350158 
L 308.351102 242.742438 
L 308.749075 242.184429 
L 309.147048 242.210006 
L 309.545021 242.729931 
L 310.340967 242.812791 
L 310.73894 243.402142 
L 311.534886 243.256666 
L 311.932859 243.529027 
L 312.330832 244.340581 
L 313.126778 243.822879 
L 313.524751 243.927581 
L 314.320697 243.988827 
L 315.116643 243.189009 
L 315.514616 243.640968 
L 315.912589 243.206271 
L 316.708535 243.715328 
L 317.106508 244.636272 
L 317.504481 244.159262 
L 319.096373 244.21607 
L 319.892319 243.882561 
L 320.290292 243.517395 
L 320.688265 243.858475 
L 321.086238 244.052735 
L 321.484211 243.788447 
L 321.882184 243.970808 
L 322.280157 243.88827 
L 323.076103 244.257022 
L 323.474076 244.108165 
L 324.270022 245.173264 
L 324.667995 244.600163 
L 325.065968 244.383704 
L 325.463941 244.01286 
L 325.861914 244.663368 
L 326.259887 244.432832 
L 327.055834 244.520174 
L 327.453807 244.156282 
L 327.85178 244.122739 
L 328.249753 243.854991 
L 328.647726 243.949592 
L 329.045699 243.764417 
L 331.035564 243.788751 
L 331.433537 244.408012 
L 331.83151 244.632342 
L 332.229483 243.986614 
L 333.025429 243.800805 
L 333.423402 243.596842 
L 333.821375 243.667388 
L 334.219348 244.404611 
L 334.617321 244.035193 
L 335.015294 244.41215 
L 335.413267 243.959343 
L 335.81124 244.142591 
L 336.209213 243.891955 
L 336.607186 244.196775 
L 337.005159 243.998922 
L 337.403132 244.078057 
L 338.199078 243.64383 
L 338.597051 243.717921 
L 338.995024 243.468007 
L 339.392997 243.819442 
L 339.79097 243.784643 
L 340.188943 243.479548 
L 340.586916 243.580741 
L 340.984889 243.276575 
L 342.178808 243.013092 
L 342.576781 242.792922 
L 342.974754 243.04582 
L 343.372727 243.105632 
L 343.7707 243.006356 
L 344.566646 243.270975 
L 344.964619 242.948997 
L 345.362592 243.338631 
L 346.556512 242.97407 
L 347.750431 244.043247 
L 348.148404 243.618111 
L 348.546377 243.613709 
L 348.94435 243.75161 
L 349.342323 244.21877 
L 349.740296 244.076088 
L 350.138269 244.410189 
L 350.536242 244.508518 
L 350.934215 244.414249 
L 351.332188 244.700063 
L 351.730161 245.215594 
L 352.526107 244.528067 
L 352.92408 245.829868 
L 353.322053 245.834557 
L 354.515972 245.050981 
L 354.913945 245.194053 
L 355.311918 245.172093 
L 355.709891 245.012657 
L 356.107864 245.040162 
L 356.505837 244.840959 
L 358.097729 244.874836 
L 358.495702 245.20178 
L 358.893675 246.11157 
L 359.291648 245.598955 
L 362.077459 244.444528 
L 362.475432 245.13469 
L 362.873405 244.909494 
L 363.271378 245.070102 
L 363.669351 244.993961 
L 364.067324 245.227042 
L 364.465297 244.92125 
L 364.86327 245.120968 
L 365.261243 245.104202 
L 365.659216 244.931118 
L 366.05719 244.974212 
L 366.455163 244.784681 
L 366.853136 244.882182 
L 367.251109 244.621516 
L 367.649082 244.79667 
L 368.047055 245.286337 
L 368.843001 244.818784 
L 369.240974 244.669523 
L 370.03692 244.99254 
L 370.434893 244.809311 
L 370.832866 244.865243 
L 371.230839 244.444525 
L 372.026785 244.391549 
L 372.424758 244.556422 
L 372.822731 245.066141 
L 373.618677 244.607498 
L 374.01665 244.850405 
L 374.812596 244.533642 
L 375.210569 244.363705 
L 375.608542 244.814247 
L 376.006515 244.931795 
L 376.404488 244.51702 
L 377.200434 244.169546 
L 377.598407 245.1101 
L 378.394353 245.037639 
L 379.190299 244.761887 
L 379.986245 244.64377 
L 380.384218 244.344191 
L 380.782191 244.564869 
L 381.578137 244.479733 
L 381.97611 244.780031 
L 382.374083 244.235645 
L 382.772056 244.65751 
L 383.170029 244.657137 
L 383.568002 244.451891 
L 383.965975 244.416763 
L 384.363948 244.763724 
L 384.761921 244.546457 
L 385.159894 244.636053 
L 385.955841 244.534398 
L 386.353814 244.261389 
L 386.751787 244.829931 
L 387.14976 244.481599 
L 387.547733 244.702091 
L 387.945706 244.621973 
L 388.343679 244.885878 
L 388.741652 244.962316 
L 389.537598 244.332214 
L 389.935571 245.060549 
L 390.333544 245.080871 
L 390.731517 244.858457 
L 391.12949 244.863832 
L 391.527463 245.211755 
L 391.925436 245.812841 
L 392.721382 245.183354 
L 393.119355 245.095546 
L 393.517328 245.723201 
L 393.915301 245.18593 
L 394.313274 245.162992 
L 394.711247 245.714161 
L 395.507193 245.475455 
L 396.303139 245.183517 
L 396.701112 245.243584 
L 397.099085 245.088077 
L 397.497058 245.952507 
L 397.895031 245.857359 
L 398.293004 245.576538 
L 399.08895 245.42247 
L 399.486923 245.747116 
L 399.884896 245.506804 
L 400.282869 245.405582 
L 401.078815 244.849642 
L 401.874761 244.694544 
L 403.466653 244.740307 
L 403.864626 244.510702 
L 404.262599 244.995578 
L 404.262599 244.995578 
" style="fill:none;stroke:#1f77b4;stroke-linecap:square;"/>
   </g>
   <g id="patch_3">
    <path d="M 63.697188 256.451094 
L 63.697188 28.981562 
" style="fill:none;stroke:#000000;stroke-linecap:square;stroke-linejoin:miter;stroke-width:0.8;"/>
   </g>
   <g id="patch_4">
    <path d="M 420.48 256.451094 
L 420.48 28.981562 
" style="fill:none;stroke:#000000;stroke-linecap:square;stroke-linejoin:miter;stroke-width:0.8;"/>
   </g>
   <g id="patch_5">
    <path d="M 63.697188 256.451094 
L 420.48 256.451094 
" style="fill:none;stroke:#000000;stroke-linecap:square;stroke-linejoin:miter;stroke-width:0.8;"/>
   </g>
   <g id="patch_6">
    <path d="M 63.697188 28.981563 
L 420.48 28.981563 
" style="fill:none;stroke:#000000;stroke-linecap:square;stroke-linejoin:miter;stroke-width:0.8;"/>
   </g>
   <g id="text_14">
    <!-- N = 708, $W$ -->
    <g transform="translate(186.758594 22.981562)scale(0.22 -0.22)">
     <defs>
      <path d="M 55.421875 40.140625 
L 55.421875 31.9375 
L 4.5 31.9375 
L 4.5 40.140625 
z
M 55.421875 19.1875 
L 55.421875 10.84375 
L 4.5 10.84375 
L 4.5 19.1875 
z
" id="Helvetica-61"/>
      <path d="M 52.296875 68.75 
L 52.296875 61.078125 
Q 48.921875 57.8125 43.328125 49.703125 
Q 37.75 41.609375 33.453125 32.234375 
Q 29.203125 23.09375 27 15.578125 
Q 25.59375 10.75 23.34375 0 
L 13.625 0 
Q 16.9375 20.015625 28.265625 39.84375 
Q 34.96875 51.46875 42.328125 59.90625 
L 3.65625 59.90625 
L 3.65625 68.75 
z
" id="Helvetica-55"/>
      <path d="M 8.296875 -10.203125 
Q 11.671875 -9.625 13.03125 -5.46875 
Q 13.765625 -3.265625 13.765625 -1.21875 
Q 13.765625 -0.875 13.734375 -0.609375 
Q 13.71875 -0.34375 13.625 0 
L 8.296875 0 
L 8.296875 10.640625 
L 18.75 10.640625 
L 18.75 0.78125 
Q 18.75 -5.03125 16.40625 -9.421875 
Q 14.0625 -13.8125 8.296875 -14.84375 
z
" id="Helvetica-44"/>
      <path d="M 17.828125 -1.125 
L 13.1875 62.59375 
Q 12.84375 64.0625 10.984375 64.421875 
Q 9.125 64.796875 6.390625 64.796875 
Q 5.421875 64.796875 5.421875 66.109375 
Q 5.765625 67.390625 5.953125 67.84375 
Q 6.15625 68.3125 7.078125 68.3125 
L 30.90625 68.3125 
Q 31.890625 68.3125 31.890625 67 
Q 31.5 64.796875 30.609375 64.796875 
Q 22.609375 64.796875 22.125 62.015625 
L 25.6875 11.53125 
L 50.6875 55.078125 
L 50.203125 62.59375 
Q 49.859375 64.0625 48 64.421875 
Q 46.140625 64.796875 43.40625 64.796875 
Q 42.390625 64.796875 42.390625 66.109375 
Q 42.71875 67.390625 42.90625 67.84375 
Q 43.109375 68.3125 44.09375 68.3125 
L 67.921875 68.3125 
Q 68.890625 68.3125 68.890625 67 
Q 68.84375 66.75 68.703125 66.15625 
Q 68.5625 65.578125 68.3125 65.1875 
Q 68.0625 64.796875 67.578125 64.796875 
Q 59.515625 64.796875 59.078125 62.015625 
L 59.078125 61.28125 
L 62.703125 11.53125 
L 89.890625 58.984375 
Q 90.484375 60.0625 90.484375 61.078125 
Q 90.484375 63.140625 88.46875 63.96875 
Q 86.46875 64.796875 83.984375 64.796875 
Q 83.015625 64.796875 83.015625 66.109375 
Q 83.203125 66.890625 83.328125 67.328125 
Q 83.453125 67.78125 83.765625 68.046875 
Q 84.078125 68.3125 84.71875 68.3125 
L 103.8125 68.3125 
Q 104.78125 68.3125 104.78125 67 
Q 104.734375 66.75 104.578125 66.140625 
Q 104.4375 65.53125 104.171875 65.15625 
Q 103.90625 64.796875 103.515625 64.796875 
Q 96.390625 64.796875 92.671875 58.296875 
Q 92.390625 58.015625 92.390625 58.015625 
L 58.5 -1.125 
Q 57.953125 -2.203125 56.78125 -2.203125 
L 56 -2.203125 
Q 54.78125 -2.203125 54.78125 -1.125 
L 50.984375 50.390625 
L 21.578125 -1.125 
Q 20.84375 -2.203125 19.828125 -2.203125 
L 19 -2.203125 
Q 17.828125 -2.203125 17.828125 -1.125 
z
" id="Cmmi10-87"/>
     </defs>
     <use transform="translate(0 0.265625)" xlink:href="#Helvetica-78"/>
     <use transform="translate(72.216797 0.265625)" xlink:href="#Helvetica-32"/>
     <use transform="translate(100 0.265625)" xlink:href="#Helvetica-61"/>
     <use transform="translate(158.398438 0.265625)" xlink:href="#Helvetica-32"/>
     <use transform="translate(186.181641 0.265625)" xlink:href="#Helvetica-55"/>
     <use transform="translate(241.796875 0.265625)" xlink:href="#Helvetica-48"/>
     <use transform="translate(297.412109 0.265625)" xlink:href="#Helvetica-56"/>
     <use transform="translate(353.027344 0.265625)" xlink:href="#Helvetica-44"/>
     <use transform="translate(380.810547 0.265625)" xlink:href="#Helvetica-32"/>
     <use transform="translate(408.59375 0.265625)" xlink:href="#Cmmi10-87"/>
    </g>
   </g>
   <g id="legend_1">
    <g id="patch_7">
     <path d="M 192.958125 73.700312 
L 406.48 73.700312 
Q 410.48 73.700312 410.48 69.700312 
L 410.48 42.981562 
Q 410.48 38.981562 406.48 38.981562 
L 192.958125 38.981562 
Q 188.958125 38.981562 188.958125 42.981562 
L 188.958125 69.700312 
Q 188.958125 73.700312 192.958125 73.700312 
z
" style="fill:#ffffff;opacity:0.8;stroke:#cccccc;stroke-linejoin:miter;"/>
    </g>
    <g id="line2d_13">
     <path d="M 196.958125 54.531563 
L 236.958125 54.531563 
" style="fill:none;stroke:#1f77b4;stroke-linecap:square;"/>
    </g>
    <g id="line2d_14"/>
    <g id="text_15">
     <!-- final, corrupt=0.0 -->
     <g transform="translate(252.958125 61.531563)scale(0.2 -0.2)">
      <defs>
       <path d="M 6.453125 52.046875 
L 15.375 52.046875 
L 15.375 0 
L 6.453125 0 
z
M 6.453125 71.734375 
L 15.375 71.734375 
L 15.375 61.765625 
L 6.453125 61.765625 
z
" id="Helvetica-105"/>
       <path d="M 6.6875 71.734375 
L 15.484375 71.734375 
L 15.484375 0 
L 6.6875 0 
z
" id="Helvetica-108"/>
       <path d="M 26.609375 53.8125 
Q 35.453125 53.8125 40.984375 49.515625 
Q 46.53125 45.21875 47.65625 34.71875 
L 39.109375 34.71875 
Q 38.328125 39.546875 35.546875 42.75 
Q 32.765625 45.953125 26.609375 45.953125 
Q 18.21875 45.953125 14.59375 37.75 
Q 12.25 32.421875 12.25 24.609375 
Q 12.25 16.75 15.5625 11.375 
Q 18.890625 6 26.03125 6 
Q 31.5 6 34.6875 9.34375 
Q 37.890625 12.703125 39.109375 18.5 
L 47.65625 18.5 
Q 46.1875 8.109375 40.328125 3.296875 
Q 34.46875 -1.515625 25.34375 -1.515625 
Q 15.09375 -1.515625 8.984375 5.984375 
Q 2.875 13.484375 2.875 24.703125 
Q 2.875 38.484375 9.5625 46.140625 
Q 16.265625 53.8125 26.609375 53.8125 
z
M 25.25 53.5625 
z
" id="Helvetica-99"/>
      </defs>
      <use xlink:href="#Helvetica-102"/>
      <use x="27.783203" xlink:href="#Helvetica-105"/>
      <use x="50" xlink:href="#Helvetica-110"/>
      <use x="105.615234" xlink:href="#Helvetica-97"/>
      <use x="161.230469" xlink:href="#Helvetica-108"/>
      <use x="183.447266" xlink:href="#Helvetica-44"/>
      <use x="211.230469" xlink:href="#Helvetica-32"/>
      <use x="239.013672" xlink:href="#Helvetica-99"/>
      <use x="289.013672" xlink:href="#Helvetica-111"/>
      <use x="344.628906" xlink:href="#Helvetica-114"/>
      <use x="377.929688" xlink:href="#Helvetica-114"/>
      <use x="411.230469" xlink:href="#Helvetica-117"/>
      <use x="466.845703" xlink:href="#Helvetica-112"/>
      <use x="522.460938" xlink:href="#Helvetica-116"/>
      <use x="550.244141" xlink:href="#Helvetica-61"/>
      <use x="608.642578" xlink:href="#Helvetica-48"/>
      <use x="664.257812" xlink:href="#Helvetica-46"/>
      <use x="692.041016" xlink:href="#Helvetica-48"/>
     </g>
    </g>
   </g>
  </g>
 </g>
 <defs>
  <clipPath id="p824e60dc58">
   <rect height="227.469531" width="356.782812" x="63.697188" y="28.981562"/>
  </clipPath>
 </defs>
</svg>
